<mxfile host="app.diagrams.net" modified="2023-07-12T19:04:14.132Z" agent="Mozilla/5.0 (Windows NT 10.0; Win64; x64) AppleWebKit/537.36 (KHTML, like Gecko) Chrome/114.0.0.0 Safari/537.36 Edg/114.0.1823.79" etag="h-ngR-ZgEsYFP5FY2XmD" version="21.6.2" type="device">
  <diagram name="Page-1" id="oYXzsyLeoqhSQJXWEvVp">
    <mxGraphModel dx="3187" dy="1647" grid="1" gridSize="10" guides="1" tooltips="1" connect="1" arrows="1" fold="1" page="1" pageScale="1" pageWidth="827" pageHeight="1169" math="0" shadow="0">
      <root>
        <mxCell id="0" />
        <mxCell id="1" parent="0" />
        <mxCell id="2bNVYI1MK1_DozGiR_B5-24" style="edgeStyle=orthogonalEdgeStyle;rounded=0;orthogonalLoop=1;jettySize=auto;html=1;exitX=0;exitY=0.5;exitDx=0;exitDy=0;entryX=0.5;entryY=1;entryDx=0;entryDy=0;fillColor=#f8cecc;strokeColor=#b85450;" parent="1" source="4koaPTSwhBmFynQigVtt-5" target="4koaPTSwhBmFynQigVtt-23" edge="1">
          <mxGeometry relative="1" as="geometry" />
        </mxCell>
        <mxCell id="EiuUyV7uElEIks8eiaqD-8" style="edgeStyle=orthogonalEdgeStyle;rounded=0;orthogonalLoop=1;jettySize=auto;html=1;exitX=0.5;exitY=0;exitDx=0;exitDy=0;entryX=0.5;entryY=1;entryDx=0;entryDy=0;fillColor=#f8cecc;strokeColor=#b85450;" parent="1" source="4koaPTSwhBmFynQigVtt-5" target="EiuUyV7uElEIks8eiaqD-3" edge="1">
          <mxGeometry relative="1" as="geometry">
            <Array as="points">
              <mxPoint x="245" y="750" />
              <mxPoint x="655" y="750" />
            </Array>
          </mxGeometry>
        </mxCell>
        <mxCell id="4koaPTSwhBmFynQigVtt-5" value="" style="shape=image;verticalLabelPosition=bottom;labelBackgroundColor=default;verticalAlign=top;aspect=fixed;imageAspect=0;image=data:image/png,iVBORw0KGgoAAAANSUhEUgAAAFoAAABaCAYAAAA4qEECAAAAAXNSR0IArs4c6QAAE/1JREFUeF7tnQl8VNW9x3/n3jt7MlsmmZlAwiJPBAEtLqCgQiZQFJfnUrVV+2qfKC5UUfvceGqrxS76qrgv1aqtPn1PK1pXsiCgiAvVVqQsspPMMJPMvs+9571zkwnDZCaZTCabej6f+UBmzjn///ne//3f/1kvwQhJo0efoAmJmiqJkiqmMgfRraJKt8v1XrhkTbid3kkI7ihZfRkVkYGotNg6Tba6UyVCZhOgCpRWUZAqAlQSwEqBslz1cqBRCcQFwE1B3QTkAAHcIsVGpRh70+P5IFiwPlmgq9UHcPzRVTjgjiEclvDVrhAqLFVIiEB7tKPWMiUQShz8N5+sIQWtr/z+BI4TT6UECwioA4CKKaqnqViFlBDtUoKzizF1lZggVVISlVJC/rDk4RRwc0p4OKX8bwuvijk5pejhlFyAKFQiAcfyUeAdDvT1FEebgi3NW3qEngX68AoffjRNjdtPUeOZT2O4+e0UTp1SBqMa2OEFRAr5/61B4MwjgOadgCgBvhjw4d5DJQ06aIN1ngOc5CAUDOzxnWAT82Ie4ay4mzsjdqBgA+wp48cKA95WV+JVtTW0h1fLdwMFPiKUNoCQJp+zsblb+SzQY8v8ONZOwFGK/77YAOOyEKaMKwPPdcAMJwAlD9jLAXcYCCeBnd7cWg0aaIOt/nyALiXATKbKGDEanR9v08yLezAv3lYSuPkq2SSUoVFVgdfVVYHPFHo9y0dANoDDCm9Lwwtd5W6nNxCCe9N/W0gbfjhdD7O4H49/Phbt4QAsNj2qywGVAJjUQFsU0KsAFQ/sCwAbW4cItMleP5tSeh2Acw1SKrU4skc4JeHFCQnfgMLNV/k2QYsmZQWe0o2ObOe1Wgr6FiXcikBrw7u4k55OKN5Il+UTIah4HqIIpCQKkQeg0Bal94BZtME6fxwhqaUAWaKgVLo8spdbFNnHLLkoRUtdKEE4PKkdjYd0tVEnp9IAeI4S7kH/ovfGATiy1PJKD3rCqSpDKH6dGvSmODjTj6MtWBTeiympUKl1L0l9bZxCBv6IrjYRIoJAKX0ARFrhc67eVRIBnZWUFLTJ7jhJK4pPhjl+4jkxFy6L7BsyF9FXSLt5jQz8cW2NBAJfknA3+1sbnuxrPfnylwy0ye64GBTPHpv0cz8P7RzwB1ypAGTX86VQhvvLxuIVtZX99F8+Z+MNpZBVEtAme91tlJK7L4q2YnlgK4uDS6HbkNZxk/5wPKGtYTq86XM2nt5fZfoJ+hiF0WZ8kUUUvwhux8/Cu/urz7Aq/9uycbinbDzT6WuO4+e2t7yX1Q0pXN2iQesr50zgeP5vrBf6ovcLLIh7Cpc6gnK+rLHhCkNHEEIlzPcfaFxVjPpFgWb+mFI8r6IS1ns+wrhhErIVA6CQMtsFLeoqjkOQCCCgS7zOpocKKZeZp8+gTba6ayjIg1OTQaxp+7iv8kZ0/hMtM7FZ0IEScnlfI5I+gTZUOeYRDu/ViDH83f3BiIZWrPKzLDPwlVAGCXRGwNlUsKUVDNpcPb9GksQ9GirSFtfqgssV26DhXG6M9RQEiABKyWF+V8OOQnQtGJjRVr8NoBPWejYM215eIQ0uRZ59vBpTK2exqvaSOJnq9Tb4e6u3INBGm+OvABau8G/GJdGW3ur8Vvy+TmnCGebpbOz1Lz5X4zm9NbpX0Eab4z4A198U2oGbQzt7q+9b9fufNdW4xjAJhOJxr6txcU+N7xG0wV6/iFD6BBt1+22g58mJbxXhjMb+qmw87i0bx/z1r/yuhmX5OOQFbaiqO0zgsGFh3K171vsP9bcVZCHtvtQwJfaaxqruKRLJC9poq39QQcXFq9s+ESYP0yHOQiAMRh4W7s2pOC6VJNyffM7GS3PJzAmaDXdSijVLw7twe/DrwdB1xMv4Zflh+L1uLAghJ3lbG9ZlNygnaKPV8aqFJr6/zrNBa+2cdR7xJAa4AS5OidmWGRE3r3jN39p0Ua+gTVbHhZTgxbuD23B1eM8Aq/fNqv5hXS2Wlf8LKOXq/a5VjZmty7ZozmhzrJ+YCh35gedjHc8m6L9LBRMQQTDLcnx4i1D2js/ZeF5e0Ea743pQ3PeYfxMuiDoLFvBdxoMEXtLYsNhwJAikhV5n81vpX7os2jh2jpGL8ptmJ73mle0bvwvn+mE9Z5mnxz5SGlYfcDaf2h20fe45oNwrj/s34fzvrLkfmIE/a+xYYpgsgZBx3tYG+UF30KJt9Q8KVLpys3sdb/kmRBqEwD1mDHReL7T+Xsd8+gU2u/BOXoPplSeCUrrI72p6Khv0tgVxt+1F7xc5V22WVJMBrowSgkBlJXw2G8rb2mDev3+AJXavfq7luPgXQvlKr7Ppgi7Qemv9TI7Q9d+E0TmJ4+CtrkZSpYLR5YKQSMifwU53lE/AI9qaoMfV3LnWD4DRXrcMlNz1pXsdRonxwdappPJCZrMMOaVUwuh0QhEfmvasVppxtvl7bDHl6V5nw5uyjzbaHJ8cnQxObG77uLykrR7EyvxWKxIaDZvPg8TzqNy9G3wyOYgadBdVY50jBgn3hN/ZdBVJT1H9MrgNS0ZwTzBgsSCu08k+mU+loIjFhhQyE36xcRreVVn2e1xNo0l6VvsTz3pMSEWGXLm+KkA5DsGKCoSNRtlNmFpbuyw5bDLJUcdQpec01bhWnhgg04jR7rhfKUlXuVzNiqFSqBC5NxsMeE576NrkBbEYlnMcYDLB1NICIZnsgsx8tGv8ePm7qp07QSSpEDElzbNRoYej4jhAwtnEYK9/wS7Gz9x8YK2upFJKVNlbajUuM5m61WY2m8HzPDiOwy/a2nBaZ4TBAMfKysAeiqpwGGXt7UP2QNzLqzGtchabfbmcGG11DUclgzNXt30y7EB/plRiidGIXTxban9ostls0Gq1iEaj0DqduN/jwTGJBPZNnixHG+zhyB6IysjQucMo4VBtncvmFG8jRpvji4Ux96Q/+f4+rFxHgBBcZzTiHXXHsAtzE/f7fCgnBF67HZtUKtxrNOJzjwfJZBKXchyuKi+XrZd9GOyhcBfZBjHKOleKgF/BQDsvi+yz/q6IydfM23pZICDLuLtjL46c2HdXhbvvt2zhedkdfK44eG3TIPW0Y2g205ozf2O9PS6VQkqlwvZAANdpNLKcOSoVkmo1REGAzueT3UauO+LHkQh+ndUlz8zHfv9BNHrInZStW1+84lGVs1K7OdXLxGirF28NfS0vHu9ryuc/M+vJblhPZY5OJvGU14tqUcQjOl3XRWPf1RMi+10GUhmLweBiezg7UrS8XLZyVSQiWzIL7zLLZ7crU072Rc3HINcFKoTXvIpj6aeCoYFZNH3Avxlsr0lfUza0tAVnWywDdVoshszvMxubGVGkG5QGNVYU8UAkghqrFbwoQuR52L4+OI8ZMRgQMplkC6/ctUt2G/nuhkx9M8FlW366HZnfZ1+cQln9yDQN7ykt/5BBF7u+OZ/iTIlcv2VbKYOfaVGsgenvGPzndTocRgjurKzEEdEo9G63HEVkWnLQYpHngSz79nWFdukLxy7Sgz6f/JBMp1y/5bswrExPdRUCm8XRL6jtLhk0889sY09fU7aPzvTHmdab9nHL9Xo5Fs4FIFt2uoFT9HrcKgg4YdcuGSQbIIro9bIFs56gEI9DGwjIPpmlXHLTfj/bAHJZbraL6C/ou9jsuHZsilRY67w/ie433luCh2F/QDPfm9BqkVIowEkSniUEd6vkreFYFgrhimhU9r0sH+sFsl4f64xU7N0Lju247EzDDfQt+sPxpGZ0kFhsdV/Vx9smMffR11Qqi2bwmHUyi2U+lv29oboay0QRW5PJrtCOVlbKUNnoHPvs8vuxVBBwcTjcFd0MN9CLjFOwUlW5k5is9e9OEkOODzwfde8V9EI+E3R2CFSoj2ZQd1ZU4HpBwAKfrwuYTxBwS20t3qUUsVhMhn2XSgW+rAyaQACh9nYsYnF0Z4iYKb8/PrrUruNfzd/DGoV5PfPRz+il1CW7D7zfL9DyLd4ZN2d2NjL9cXbU8UQwCEN5OZ6nFHcrlfJlzQT2qUaDW2tqsD2ZlGGzZDKZEI/HEcno8WX7/HwGUEjUUWrQJ1pmipt53RvEYHcsJxS37HethpYe9HWFuJH+xNGCIKC8vFwGxsCxNKW8HLcnEpjWOUbB3MSbOh1+Xlsrg07DztYtV8eo2Di61KAnVJ0sthPhaWKw1y0mlDy6wfMRDk/17dScbB/NLCtzAChfz3CfSoWltbX4NJmUIWs0GpxlteIShQLGUEj2v2z4c9zGjVBGo/JA/u01NXiBkENg99Zjy9UDzaVTds8ws+fY36jDbHNAolhO9HbHAo7i7Ve9f8Pc+MEYta8WnQ9qrnpYD48N9rAeXlyrxf5Jk+ReHetwMLAs+axWBCsrUfPll/LfDDaLmdn48lDMARbCIzsP29A/oepkgNKlpLx6zhG8xG9+0L8ZF/exd9hT1JFPMTaMySKM9ID87mnT5DBt1ObNcpHw+PHQ7N8PLh7HP2fNQvWWLdB7OjaLsovCgGuChR+TVAygUpXZIugw0zKTDfxfRDB2jtoY46PFbJ0oCrRKJc/taX3dD0YJTJ2KyLhxsDQ3QwgGsfWEE2DfulWenmKJlRMVCjnqGAkpvc+F7biVJ2fN1roPpqcCJ65q+7RP+hcDmk2eMhegDoW63AQTGpgyBZHx42H+8EMoPR55TYantlb206yjwhIb01BFo8NiPrAQUGzJwQrdGAipmF4GbbDV3UhAfrf1wNquU7gKqajYPGw4k424seHM9Ex1bNQo2V0wyGyilfltNnjEpqhYihiNIKI4YtwG0/lEywxps1D2qc/ZOKPDom2OyRKw6Snflzg3dnD4sViQhZTLBVsGajCA+e3KPXtg2d1xWsJIhNw1jUWw3N/aeFvX2rsq29wt50Vdhz/s/6oQTiXJkws2A83AjmTIDM7T2tG4QT+Rrb9z+F1NTV2gWcelQkre8LVrTUcXbZBSPsseqZacxvZTNsahrvK2O5vM7LuDoDs31K9s34iTE4O7FoLBZqEbi6HZh3VWYrqOueKREspl2+Vh1pMS7UTxV5+z6dxDQAM/4K1WT+vVkT2V/zkEO7EYaAacQWaRCevQqHPMNw7SjdYvMWuUJpzVsX35Wp+rcUUWaHkN3h8npcIXrPVsUA/V/hUGejjMXveH9K/LxuE37IggSTrad6BZHn8+ZLOQyTb3NAruzXsCW7E4UvTxQf3RccSXZce6nWSZEQ8S7s202+gGuiPUq3upWoqfyazaKI38074G+8qx7W9sGxzAzfE5V72flt9tQ2fnWaJrbwvtwI1FLEEY7IYNJ3nszLw5FceLEsgfvK7GKzJ1y7NFuf4JvZS8ZJ1ng3q0OPTLX4cTzJ50udJ4ZORltQ2UijO8rtUdw46dKfcW5aq5RxFCPrk6soe7K7i9zzMvIwVMKfVcrzTiNPMxoAT3+Fsbb82uu4fTDRz3Kai05P22jxWT+jghUMoGjJS6LjAd5V2lsgQFUZzhdq/uths2/3kd1vrxHKEfXxB1co/6N3VfNztSCAyCnqtUFTjfdDSTdKPP2chO7OmWejyBxmiruxMgdywPbsWV4e/CvVwA2zkFFpiP9W4TtDt9Tt9M4LOcG2d6PVPJYHO8SIALv9tRm/vW+KHpKO+7qgo1kYij/UDj+nw3UK+gWUGjzbFRoPSoxvZPuGnJkTGNNAgeA13nKRFynr+14ZWeZBYEurx67kRe4jZaxYTyn+61wmA0YrjLeEFjx9WGyQWfVVoQaNmqrfPOBJFWTk0FscZT8EmRw51XUfqlQzlQcr/P1bC0kEoKBs0qM9gc/0GA35wdc+Fp3yHxeCGyvhF5WjkVJlfNZsNEn/mcDccW2qg+ge70138A8FN2KDc7nPvblEKER411jtxkX4VZhU3/U/Am8z6D7rTstwmwgB3OXcwq1JF4cdYqTTiTjTED4AmZ3Nba0LEQpcBUFGgZtrXuZkLIPeyQbjYrw446/qYmtmSALR0AIIqcdGSv79zKAaJo0B2w6+sJofJR7P/r/RyOAX4V01BcyOv1R+AZ7SgmepPP2TilWB36BZoJrbDXT6KU/kUCJn7TepD/ZpzK3q/FHnyv+pwN8txfsanfoJlgk6neIKnoY6wH+ZPIftwa2jEoC3GKbXRv5XbxGlxlmJxarzQK+Ubjeqsj+/eSgE5Xmj4CuVqKJa4J71FeEd7b8VLBEZT+qB2F3+vGBFs4NVKELPE5G58thfolBc0UMtrrzxGouDQFbvbUZDBxTWSPciScOsYAP6KtDWwTtHoK8haluCvgavioFJBZHSUHnVbMYK+/XEGlpSmQIxzx9uRVkT2KumH4sGSAH9XWhrYKWnZo1zpK8ZDf1fhSqQCn6xkw0EyA1Tpfl4D4M55QBrzywmgr/ffIfnJscnCPR8sFjQF+TFsT3iLodCD4gkr0Yb+rqWQvIRtQH53PCoz2ujGgZAkBrqWAcJgYicyPebSORPughYRxwqFJacYqVYX4trqKvZ+WLYXaAYKHfTrlw9j+9oCecjWgFp0N3lBdN51Q7jRQOg/AyXJ4KCWS9fF2xRnxA1gYc5f0jmVvAmpUmfG62hp9R23ho+DS6wrXALRZ5KSHgi2rB+XdU4MKOpOiwVo/ngALQShbDT+fAkr2ZpOT4+1klBRHtRiTj4bL/H95jrfKscNH2FuUsz8NqorweqUxfdgLW6DyGiXkPZpKNQfcqwd9kGbIQB9qunMEo1VYyE6oBchxHKG1Ioi8CjMz6WhKqhbjMFCROnml2EaUXJRw+cbHPSB4jUhYqeG1TS0tbwzdUTT/34j/AxDI1561/ALqAAAAAElFTkSuQmCC;" parent="1" vertex="1">
          <mxGeometry x="200" y="1042.5" width="90" height="90" as="geometry" />
        </mxCell>
        <mxCell id="2bNVYI1MK1_DozGiR_B5-25" style="edgeStyle=orthogonalEdgeStyle;rounded=0;orthogonalLoop=1;jettySize=auto;html=1;exitX=0.5;exitY=0;exitDx=0;exitDy=0;entryX=1;entryY=0.75;entryDx=0;entryDy=0;fillColor=#f8cecc;strokeColor=#b85450;" parent="1" source="4koaPTSwhBmFynQigVtt-6" target="4koaPTSwhBmFynQigVtt-12" edge="1">
          <mxGeometry relative="1" as="geometry" />
        </mxCell>
        <mxCell id="2bNVYI1MK1_DozGiR_B5-26" style="edgeStyle=orthogonalEdgeStyle;rounded=0;orthogonalLoop=1;jettySize=auto;html=1;exitX=1;exitY=0.5;exitDx=0;exitDy=0;entryX=0.75;entryY=1;entryDx=0;entryDy=0;fillColor=#f8cecc;strokeColor=#b85450;" parent="1" source="4koaPTSwhBmFynQigVtt-6" target="4koaPTSwhBmFynQigVtt-41" edge="1">
          <mxGeometry relative="1" as="geometry">
            <Array as="points">
              <mxPoint x="720" y="1160" />
              <mxPoint x="2454" y="1160" />
            </Array>
          </mxGeometry>
        </mxCell>
        <mxCell id="4koaPTSwhBmFynQigVtt-6" value="" style="shape=image;verticalLabelPosition=bottom;labelBackgroundColor=default;verticalAlign=top;aspect=fixed;imageAspect=0;image=data:image/png,iVBORw0KGgoAAAANSUhEUgAAAFoAAABaCAYAAAA4qEECAAAAAXNSR0IArs4c6QAAE/lJREFUeF7tnQl0U2Xax//vvUlulrZZmjRJS6Uig4KADDAIwiA0AVFGnXHccJtvvnFFWdRxFPWgjo4zzvgpIzruzuJ8KipnVBx0pAsqrnygKIigCJSWJk3bLG325L7feW9ISUPaJk1X5D0npz3JuzzP7z73uc+7XoJhlHS6OTpRLjfJSNwkUj7Ai3FXS4u3CdgS7RM1VtK7CcFdfVJXWiWkPyrtbZ1as30UARYCGEUhlhAQEwATAUooYAKBPFPdhMJLgSYALgBNBNQlgrjA0Xe9jTXvZC1PGuhSZROmTSpBkysEv1/EV/vaUWwsQSQOtAYTtRYogPbI4b9dtTXooHUW+xwCcSEFOQPABCaogopRPY1GTWKUmuNhuVUMK0xiBEYxisTfCAKEh4tToJlTwMXJ2f9iA68MN3GC2MrJeB+RKVldBAgBZB2FuB4QN3ocG/d1CT4N9JhiDy6ZqMTK05X46/+FcNtbMZw5vgA6JfCdG4hTSP83tgHnnATU7gXiIuAJAR8e6NzKgIPWHrdQj0h4HiF0HijmARjJRBoba/efF3Jqzg65cGLMn7URdpfxbcGIN5Ul0XVKUzwJHsB7AK0FuI0eR9XGTuXTQFcUeDHVSsBRipcu00J3ZzvGH18AnkvA9EcABQ9YCwGXH/BHgb3uzBINGOiKijlKd4hfylMsEwlKeUrjM6Oe8Pxws/onIRdGxg/di32C+MhKNin0qBEMeE1p9u3lVUUsBwU+BsjDXkfVy1KJlfRmQvBgsrSRtGDR5CIY4g148vMKtPp9MFqKUFoICDJArwRagkCRAAg8UO8DtjYOImid2f7fHBFvFEHGz464Q4uCjcq54RaYxUg/Ye2+2s1yLaoFA/6iOS7SRmQKAGsJIavc12zQEYp1ydJ8pB0CzyMeB2IiRZwHIFf3SuZ+tWid2X4uCF0KoHJcrD201L9feVHQ0StB+6PQfl6Fp9Uj8KS6XIwRwgF0tf9nj++Kmsawh3Cfpn4BrbfaZ4FiCQW90CJGwjf49wvX+g+AZzfrEEzbZQV4WlOOf6hKIQNtjgIPeguEVfj2rXBfidvnoLVm+32E0DsEKsYXB+r4a/wHBs1F5ArpI4UOT6jLY28oS2QKKm6PEG6px1Fdm2s9mfL3KWi92fYEJbjmwqADy/z7MS7W3hcyDngdG4Ri3FX4g/AuXs1RgmVuR83j+QrRJ6D1ersWCvo3SvDTO9v34Ob2rkPVfAUeqPINvBJLisaiVjCwYPzPnsbq5fm0nTdo1puTI74pRjjr854vwEK1oyldpTsZryot7OnyttdRfWZvdcsLdJGlchoH8olZDOON1s8wpo86Gr1Vpr/KrSgaw3w3q36vmlOPP3hwXSDXtnoNWmu1X0UofWp2xI3XW7fm2u6wy/+iyorF2nEJuTky2XOw6rNclOgVaJ3VvhyUPnxloB5/8u3Kpb1hnXe3TINTjdMTOhBa4Wms2Z+tQjmD1lnt54HStZcEG/GY96ts2zlq8oUIB6t5rqSPmlNrsnUjOYHWWudNJVTcfFLMj4+aPz5q4OWqyC6ZBtOZZRNs8zRWT8qmfNagC8zzS+Qk9nWRGNfta3o363LZCDEc8/xHMOJi/SkM9rOexuore9Iha2A6i20zgKnrWrdiVqSLscCeWjvKfn9KXY5bi8awccC7PY6ae7pTLyvQeot9DRu3+F3bN1jsrzvKcOWnzu2FP8DjmuNAQJe4HTWPdlVbj6D1FvsfKOitS/x1+G3bN/lJdZSWvlB/SniDYBQIxSK3s/qlTGp2C5qNwlFK3z8/5MTTnu1HKab81WrgBSw0TGnbz6u+9TgMPwJeiafX2j1oi32NgsZ/XtOymR+uA0T5Y8yuhudVpViqHdulC+kS9KFB+9du9O/DyrY92bX2Pc81y3iqb4es4ICaU09Lj6+7Bm2xVVvEyMyNzZ8IgzXlNNyu2xqVBddqT2Yh382exuqHUuXPCJrN8YHQZ+9r+wbXH4sycrre84qntm+Ra51UGZ/q2bfRkyx8BGg2W+0Lcaz3N/q95k+VQ3X6KSftBzDza8oS/FI3AYTidrez+vddgtZabL8hwANPeHdgKE2kDiCrvJs6xzA58IFc5w5TMsXfVO1kFXayaF3FHB0X5HfMiroNr7dulVb6HEu5E1gvmHCpfiLrMd7jcdTcfSRo69zzQLm1T3p3gM37HUu9JzDdOKN9F6/Z5nFWzToStMW+WkbF63a6NvFsfduwToTANXIkNG431F7vgKtyV+FoPKIZCZ6QcS2NVTs7uw6L/ZsFYVfpi+5tvVuOM+DqZG6QEgKfyQSPxYLClhYYGhoGXDK2/Ozn+h92hHodoIvM9ukcoR894t2Jy4MHB1ywvmpQ5Di4S0sRFQTonE7IIhHpMxhpTMmPg02c4l02qdsBWmetvBOU3LvdtQll8T5boDPg+rUbDBLkmEIBncMBeXjwdLleO5a+oCoVBcprD4O22DZPjvrGVrds1gw4nT5o0Gs2I6JSgbkNkedh2r8ffLRvNgL0Vry3BBMu0U8EBblIAm0onV8uivE6NgzKhkOHY/IZjQhrNJJP5mMxyEOhIaGG2Tw3FiHcCxJovaXyBgqyenPzRxgdy3nJwqAqRDkObcXF8Ot0kpvQNzZ2WLJfr5eijsFMV+gmRNYpS9ok0DqrbZVCFBc7nbUZ94gMpqCpbd+m1eIf6s4B0TlKJW7heYw4eBCyaLQDMvPRzlGjpO9K9u4FEcVBUWO1ZiRWFo5O9Ay1VvsLlnjo3K+bNg3JsG69Uokr9fpOoAwGA3ieB8dxiEajeKCuDgvb2qSHYKigAOyhKPj9KGhtHdQHYnLhTcKiLZVV42PtM95v/nTIgd6iUGCJTod9PFtufzhZLBao1WoEg0G4XC6MCIex2uOBefRoKdpgD0f2QFQEBtcVVgnFuEA/KWHROott2/xw80lr3NvYNoMhk3yEYLlOh7eViWGXBaEQHvb5ELdYpMjiK0HAHYEA9ogiNBoNLtNqcd0hC2awB8tdpAL8XF6IucXTEqANFpvj8kCDeZXv615B7srqnnG7cVbK0z/VBdzp80lt3Vck7duREvtusf/wjqzUehnkVR4PRLMZXCyGmCBIEcYXoihZ/AoAswlBXCaDxuOR3AZLmWS7IhDAH9K65an52O8XBIOd7qRk+0U0t10LbPnveNPMpEXb479u/467o/27nEFn8p+plaTC7ikvK5cK4S8aTceFeCoUwmlqtQRSEQpB65RGH6UULCyE22qFEAhIboOFdyyllk9XbFI0CiZbKdsJ1MUFSS+T6QL1BCxMOFjMc0EKS+cYeZF3PeDbjasDabsQe6oFQDISqIjHJR85JRLBQZ6XHl6fy+VIVSgddNKCU/OzJpMXJwlqNM/j3oICjAuFEOd5WPYcnsMMaLVo1+slCzft29fx4Mt0NzBrTJUhFVy65SdlS/0+/eJkgUfKUmaeEyMGi22cCOx4zrMdPwsdtpJsKkn3oem3fnodXSnJ8mX67TadDi8WFWFaeTmu93gwtbFRiiJSLbnNaJS2IBnr6zv1BDMZQLJcpt+6ujCsTHd1ZcPpFNNpUcK2CLOdpL1d6tXV7ZnJp6X76FR/nGrVybL3FxVhXVkZTiwsxK27dmFKICANEAWKiiQLZj1BWTgMtc/X4ZOZ4pnqSvWtmeRI99GpPjxf0GcUTxWJzjRvEnjxs3y2RWTqSCSvdOrt2R3oekHAEqsVu1QqzA4Gcb/TiZc4TvLRLFa+vb0di71eyUezXiDr9bHOSPGBA+AO+dlkm0MN9DTjjDgpLq4si8tJ/UO+r/HLQH7jtl097JI+tyvQDF5dURGWazTYIopYEIthpUIBh8+H5YIgxdDMyu9VKFAUi0mjc+xT1NyMr8JhKTq4zO/viFiGGuhS81yRAFPkOosusqL9O/ymfW82LierPKkuJem7U0En3YOG5xHQ6fBuLIarVSqpbnYX3N/eDqdej7sUCrx5KKT6aUEBbmb+2OtFkcuFRo7reOiycqnuKh8fnR5d5OM6vJwMFSWnJ8I7vdnm+VWwXpvrNomuoovUB0hqFHFE1BEI4HK5HBG/H7colVLHJDV6YZ2ST0wmrFAosPvQkKder0c4HEYgrceXWi794Zp6AbKJOvoS9A5ZAWYZTz0UR5ttu88JN53wd8+XXFbmmpKpp9i4Kx8tk8lQWFgoAWPgWNJqtbgAwK9bWqTogvleBvvfZjOWCQJC3Qx9Zop4ehtH9yXodwQjLtKf0gH6g6kx3+QNLZt7tcQgPQ5OXod05ZMXhUFeQQjKfT7JXahUKowYMQKLFAqc0doq+V82/Hn81q1QBIMSbPYA/L1cjr+Rzmt+euqxZZIt00Xpr6jjr+oy3FR0Ugfof5WLoflfuD7o10GlJGhmuUtcLixuaUFYrUbD2LFSr451OBhYljxmM9pMJpRvTywXZrBZzMzGlwdrDjDXu53lv7fwBDykqUj66Mqn1KC/qHfW9uugEgN9XUmJZMFL6+ulKGH/xIlSmFa2c6ekh3/UKKgaGsCFw/h65kyU7tolRRcssYvCgKva2nqj86CUYYse1yrNjsR4tNn2O0Jw+56m92AQ+2+ejYFebDZDEAQsa2joNIDE5PBNmIDA8cfDWFsLWVsbds+YAevu3dLgEUtsTjAul0N1aEBqUMjl2OjZhsn4UKH75BBou50QuuFR71e4NNjFWTU5NpApOwN9lcEAnU6H65uasPiQpUqQx49HYNQoGD78EIrmZmlNRvNxx0l+OjlIxMY0hGBwyMwH9oTEzckxqmQ2cxt/TJ0Fbzsz1Kx8wbNN1lMF+f4eVSqlETc2nJmcqQ6VlUnugkFmE63Mb7PBI/3BxBoTFmuTeHxYuQ120Moy7Vi2xHHuYdBm2/McoZcecL5L1PSILRj5sj2ifCbYElCtVvLbpro6GPcndgAPR8hMbrYPcYNQ7G511Bg6QOvNtospwYv5jHnkejUywWagGdjhDpmdy1dRcroYI9yrbkdVYl0HS5oSm1nOwfFfgQY83MuZllxBs/xdWfZwtmQm+8sqC67RngxK6VVeZ80zaYscbW8axKhtd9P7A7rSn8FmoRuLodmHdVZCmsSCqeEUyqUa2vXacXhBZQUvoyNa6msaOoO22m4Cxf+scW/D/HAidh2oxEAz4AwyW9bFZq+VKfOHAyVHX7QjgmBMyY9DLZz8I4+jupLV2Rl0qf2HEOnWK4IH8WdvogMx0ImBHgqz1/nozY7qXMTGNwjucDdW338EaPaFzmJ7BcD561u3YEakY1NRPu1+78qebZgc2qTQc5SjM7wHa6TjeY7YlWUoqTxN5MgH54WcePbYtuScjeQVlQVXa08GAXnA7ai6LVlB5n2GVtsqUCx72f055oUT3d9jKTsCpxunBb6UFTRFRDI9uSMro0VL7sNaOVJG6ebZYY9+rfuzfu8pZqfC0M+VHBIFJUs9zqrVqRJ3uUU5ud+QuQ/mRo6l7gkECY+ZxlMDe3nVVo+j+sfpubs53WCK3GTWbp4YazuxqpcTAt+ni8N2YLGdWJSQ872NVWtzAA3orbZLKcU/WajHQr5jKTOBJk7B5gVDzZz8Dbej5qJMubo9ryMR7tnXCjR+7kvubfycyOFVQsegHybAzulg53VwlMxodVZlPD6tR9Bsfwsfj1UbxUjFW61b5P19RPxwu4APayrw28ITWJx8g9tR/VhX8vcImhXUltjmcRzenhhtIxtbPs2qzHAD1ht5O04yAH3Q7ai5pbs6soaW3FBkC7fgVffnvZHrqCqzTV6IOcXT2ALLt7yO6rN6Ui5r0If89WqA3sCWjrElZN/X5CUyVJhPl9SPirCkdkzych2phXVW2zvs/SmrvTtx2fc0EmEr+NlKfpGK033O2k+yMbicLDpZoc5iY7s+y//X/QXOCh9dB3P3BO1MwxR8rNAhU++vT3x0eiU6i40NghjuavsWy/1Zn+7bkx5D+vcJppmo55VZ++VUZXpl0R2Wbbb9EwSXXhxsxONH8RHHe3g17MU/goeThn2e8ziqf5WrReQFmjWmt9ouoxTPT4768IxnO47v51cx5apgvvn/LZhwhX4CFUEIBW71Oqr/2Js68wadgG2fxYnimwJo4bOeL7kFAzwN1hvFsynTMRoHBEC5RR7nhjeyKZcpT5+AZhUXj6gsE2LiswHwZ9zT9i2WDnO/nRwkAvBZnBMXtR2szeuM/T4DnbyKxZbKR+IgS6ZFvLHFgTrZuSH2Psfhk9jrnB7RjGx9RWUxUOAlr6N6UV9I3+egmVBai+18DcQVAXCTF4Zc9NrAATLUD/dmL0p4QlMe+LuqTKCAh4I+mjxKbciCTolKlikg3hohnPUXgQZcGzgA9n6AoZTYG+CeUZfRp9Tl7AATtmXxUUrJY15nVe7biLtRrF8sOrU9o/EMa1wWY68/uklBRdzgr5NdHGoc9ANYGjkBz6nL8ITmuHA74QVCyNM0Hn/M01S7rT8Mod9BJ4XWWudOISJ3I4u72XdTor7g/HCzan64BZOiiQ34/Z2cnCC9MPI/SmOoWmHg/ESmIMAaEPKou7FqU3+2P2Cgk0oYrLYFYuJds+wjvcx3VCwQWRBuVpwddmF6H68lqeOVYGdmvKY0+99X6KV1ZoSigRJUEYgvux216/sTcLLuAQedqlTivS7xn4BydhA6UwoTxWhsWtQjGxEPoywekj4jxMP/Z9o2xhZ8J96onPybeLPyv5Rm/27ZoUV8oNspIesQR623yVCT6Xj4/gQ+qKBTFWPveZERcSFAF/KgJwMYEQcpSFfeHI/EysUgu+1FFyenrZxcxnptXUDaREFf50HWtzqqB/U1SP8PaH5jhjO/PEwAAAAASUVORK5CYII=;" parent="1" vertex="1">
          <mxGeometry x="630" y="1047.5" width="90" height="90" as="geometry" />
        </mxCell>
        <mxCell id="PJWs02H1WUagGIbA9iWr-119" style="edgeStyle=orthogonalEdgeStyle;rounded=0;orthogonalLoop=1;jettySize=auto;html=1;exitDx=0;exitDy=0;entryX=-0.013;entryY=0.879;entryDx=0;entryDy=0;entryPerimeter=0;" parent="1" source="PJWs02H1WUagGIbA9iWr-130" target="4koaPTSwhBmFynQigVtt-41" edge="1">
          <mxGeometry relative="1" as="geometry">
            <Array as="points">
              <mxPoint x="1010" y="877" />
              <mxPoint x="1010" y="880" />
              <mxPoint x="2290" y="880" />
              <mxPoint x="2290" y="668" />
            </Array>
          </mxGeometry>
        </mxCell>
        <mxCell id="4koaPTSwhBmFynQigVtt-8" value="" style="shape=image;verticalLabelPosition=bottom;labelBackgroundColor=default;verticalAlign=top;aspect=fixed;imageAspect=0;image=data:image/png,iVBORw0KGgoAAAANSUhEUgAAACEAAACfCAYAAAB3JLBqAAAAAXNSR0IArs4c6QAABXdJREFUeF7tXE1vG0UYfsa7tteOHduJkziQukpDPkCopRKHHFBUQRGnCoggBSGI6IU7v6C/gDsHBFQqrahQi8iBCiG48FEh0YhWURM5MVE+nbixHdvr9Xp3B822DkmUxF7b61jtzM3a2Zln3/d535l59vUS2N0u03OE4pfJl3L48Z4CQwpDIIBBgXwJyKsAsRsDHoN49UQB0wslnB1uh6IBSRmYTT6a3X4QbJbL9NxRD9scEBXMzUGUDdQalghGzh9JGtujh0VH4NT5FJFpsBmTHTQH9ZI0CUZeo7lPvceFAb7PZOyA0IaEpgMR5/TGg3BSB/yGG1tCoaoHajgIFxXQrbdhTchBJ0bzQTAAIUPCpiCjzXAi61DtAyGkVIQ+n4NzMQ/lTAjpyQG4JBcimg9bSwn03dqEvJhEejSIzPv9FYFYdgcp6Ah+PQ91wI/8670IXIvDI7pRGh9Adnsb0atrSL4SQmbYu6ffUUgsg2BWCFxZQOFCFFq/D9J0Gifu5LF4sQddGSeM23GsTESgh1xo+2kNrvmsaSnqOTzqLINwLeTQPrUK5cNBaEEnpH9luG7EQN4dQWm7APrHys6k0t0t+G6vIvXJkAnqsGYZhPduGuFfH0KdHMGgJ4L1RALKzRlsvfksMJ/e8+S2gQjEiwj//BB9b7+M+e4CBuNOxL77HZm3+qCmZXjuJO23hC9F4ftmAf7xF6FG3BiYc2B26k+kLg1ASxXg+2EZmY9O2csJFh2Rq0so9vvgHxtA4dYMQCk2JvpQDt3cG8+gOBKwLzoYudhk3V/E4VktIv+CHxsfRHfYz4gb/GoewqYCeazbnjyxm+EEBBS0YjKq1MFydFQasJbrHETZaq1liVBkjCoTDuh9jlrcWtc9wrIB6VsDJNx7mjqxWddg9dxcQhdIS1iivNt+Yja6Vt3SWtHB3WHH4YdzwqoFWnPt4NHBo+MxM21J21wkaapIclBSclPBFEnWxRwChoRtRxEK0arKXw3hhJc64TFEpAUFAV2C7ChVDYChrBmEAAIHJSCEoFPzICUo6NQ9pgWq1arqStsMAPM/OwA6QKASHe26C0WiI+8oVeWC3Z0sW4IBkAzRVOeGS51YFrNICHloxDDB1NIsg/DQRwCeV8OI+3Loz/nwt3sdOqGWeFCXJTzUCQMUvWIAiqGiTRWxImbN0zlzRy3NsiXYJBIVTT5EtDYkxLw5b7XheBDImkCwgRgxWXpmXKjVAnVFR/lmLpLUQr6j7qmZE40EwkE0JDoa5RLuDu6O/VzinOCc4Jw4LMPy6ODR0ZTo4CLJ0yeS7H4VrXdJKH48AjEaBL3xAH6fH9psEkYsZd9r6p1yltFuqGc6zEqSyJKBpQthnJzagno/gZWLvWbVAKu7YS/vlbMdR25HLWdMBqLjShz6aA+U06E9Ion7ZhxySdl5Sc/KWcTk/78blraZSNKWoui9toxBVwQrJIPYeAeKQRGe6zFoYcks+GHNNhD7RZKhGYIHv00j9d5JuL5fMCcvlzWxyqPdvxtmiYMqSe7/cw+Zd6KQrsfM2itWyMOabZxggwenswh8GUM4HMa6t4DUpecghxxmzRVRDLjiObOIY3s8uuMaWw7EB4kkDMRuTlR7QrMcHbsH3i+SHAuIap+0Ur+6LFFp8GqvcxB8e9eU7V21hOTu4O5o2FJulXTV9OcZk4coD1EeopVyhS15goskT59Isp9ovJKEV5K0VCUJ1XREFT/+ktZ4JQmvJKm0MFq6bssqaglBPbV3VieyRb3jIBppAX744YcffvipFFE8bfM8wfMEzxPHkie4SMJFEi6ScJGkpUSSlvi7TY/mxYYom1mZ/93myf0mSaVl167r5jfOWuFrb/8Bxocr0gZzxQIAAAAASUVORK5CYII=;" parent="1" vertex="1">
          <mxGeometry x="870" y="760" width="33" height="159" as="geometry" />
        </mxCell>
        <mxCell id="PJWs02H1WUagGIbA9iWr-40" style="edgeStyle=orthogonalEdgeStyle;rounded=0;orthogonalLoop=1;jettySize=auto;html=1;exitX=0.5;exitY=0;exitDx=0;exitDy=0;entryX=0;entryY=0.5;entryDx=0;entryDy=0;" parent="1" source="4koaPTSwhBmFynQigVtt-12" target="4koaPTSwhBmFynQigVtt-8" edge="1">
          <mxGeometry relative="1" as="geometry" />
        </mxCell>
        <mxCell id="4koaPTSwhBmFynQigVtt-12" value="mux" style="shape=loopLimit;whiteSpace=wrap;html=1;rotation=90;fillColor=#ffe6cc;strokeColor=#d79b00;" parent="1" vertex="1">
          <mxGeometry x="700" y="824.5" width="130" height="34.5" as="geometry" />
        </mxCell>
        <mxCell id="4koaPTSwhBmFynQigVtt-13" value="0" style="text;html=1;strokeColor=none;fillColor=none;align=center;verticalAlign=middle;whiteSpace=wrap;rounded=0;" parent="1" vertex="1">
          <mxGeometry x="747.25" y="782.25" width="20" height="30" as="geometry" />
        </mxCell>
        <mxCell id="4koaPTSwhBmFynQigVtt-14" value="1" style="text;html=1;strokeColor=none;fillColor=none;align=center;verticalAlign=middle;whiteSpace=wrap;rounded=0;" parent="1" vertex="1">
          <mxGeometry x="747.25" y="826.75" width="20" height="30" as="geometry" />
        </mxCell>
        <mxCell id="4koaPTSwhBmFynQigVtt-17" value="2" style="text;html=1;strokeColor=none;fillColor=none;align=center;verticalAlign=middle;whiteSpace=wrap;rounded=0;" parent="1" vertex="1">
          <mxGeometry x="747.25" y="866.75" width="20" height="30" as="geometry" />
        </mxCell>
        <mxCell id="PJWs02H1WUagGIbA9iWr-6" style="edgeStyle=orthogonalEdgeStyle;rounded=0;orthogonalLoop=1;jettySize=auto;html=1;exitDx=0;exitDy=0;entryX=0;entryY=0.5;entryDx=0;entryDy=0;" parent="1" source="PJWs02H1WUagGIbA9iWr-97" target="4koaPTSwhBmFynQigVtt-24" edge="1">
          <mxGeometry relative="1" as="geometry" />
        </mxCell>
        <mxCell id="4koaPTSwhBmFynQigVtt-18" value="" style="shape=image;verticalLabelPosition=bottom;labelBackgroundColor=default;verticalAlign=top;aspect=fixed;imageAspect=0;image=data:image/png,iVBORw0KGgoAAAANSUhEUgAAACEAAACYCAYAAABqIYDSAAAAAXNSR0IArs4c6QAAA71JREFUeF7tnM9PE0EUx7/7o9vSH5ZKIRUEBQyQGCKcSDwYYzR68cLNi3gzXv0/jGePnjx60IPGRM960ejBiAGiCCWBUCjbdtvdnTGzZgk/tNvd7W7UvO2hpN2d99n33ryZ+TJdCQB6S1cvi/cojsbFezOt6fmHCzM6XnwywFJFKBLAOFAzgVoLkAQAT+OpVOe9UUBYgxdQu/kAV4Yb+LBsYnbyBAwL2KoDX7Z+WXQgAP5Gv5+OgsFpk9vTbds+BGFNKJGB/KlhddE+7AmCcHOCPEGe+C97R4LLyLEktpVGx/Wmq3VC4woG7AzKig5bYvFDCIACS2FTqSPDEtiTW/FCJLmCkpXFhqojz1Koyk0YkhUfRJon0MNU7CgG8nYKddn0BSBIA+WEDMl5yQCKVhoVxUCf3eN4wE8YXFf5hhAAKhfmuQNiSRx5W0NTslGTzY5DcPBEXxACQCRgjiUw1SpiVa2irOpg4DB99IajpL4gBECWJ3C+2Y+VrI5RPYt3yTKYJCDsQF7wnRMCgoNjSC2AWzZGjBzeptadz2LzhKB2QQatnBOKsAC+PbGfzVyGAhkMLJQHAvcO90LJ6R/dOXwlZndMHm+FIELnRDdDQ+GgcIQawLqZjIGHcoKIygPUO6h3kGbl1btoFI2sTpBIQiIJiSQkkvxVIonBWsi0VEcyCqtR+B47SCQ5OhyTSOI1QQnyve/EDGLE6xqCiGxm5eX6331P4aBw0IKYFsRetePfrBP5JyvgmgLtaxWJbzXULw1g99aoc7NKpYXCo0Xnc/NMBpW7E7ALmpcj/P9zVkAkP1exc2fcMSCM6tcH0ZzKo/fxEhpzRRizJ5F5VYa6ZewDtiPxHQ4BIQ737l1jjbl+ZJ/9wO7tsY7uPpSiKyCsYgq1a6ecdlwI4Ynsy/WOQxAa4qAnXM/E7gmReCLpxOHmhHk26/xt3BiGNl1C8/UytKU97CyMg/e038UWKCckg0Fb0aFsGqjOj+yHJrtsYOx5BduLazBOpzoOTSCIgznhxjZWkeRoYgoI2klCO0loJwntJDk2O6adJJ5zpGAn+B47gplpfxVB0IKYFsS0IPaqLVQnqE5QnaA6QXXCywOR1QnaSRKrSPK7OJNIQiIJiSQkkpBI0ukoGPY8WndENp8IEhoKB4WDloG0DPSqHVQnqE5QnaA6EXudIJGERBL6uU2kP7dp16fFM0kSkoKclMSU2odVu4oNtgebAxaCPw5E2Oz4aW9aQkE6k8TkuRJW13YxPJTH+4/fwRmHaYWD+Anv1XZkEWQjyQAAAABJRU5ErkJggg==;" parent="1" vertex="1">
          <mxGeometry x="381" y="438.88" width="33" height="152" as="geometry" />
        </mxCell>
        <mxCell id="PJWs02H1WUagGIbA9iWr-5" style="edgeStyle=orthogonalEdgeStyle;rounded=0;orthogonalLoop=1;jettySize=auto;html=1;exitX=0.5;exitY=0;exitDx=0;exitDy=0;entryX=0;entryY=0.5;entryDx=0;entryDy=0;" parent="1" source="4koaPTSwhBmFynQigVtt-19" target="4koaPTSwhBmFynQigVtt-18" edge="1">
          <mxGeometry relative="1" as="geometry" />
        </mxCell>
        <mxCell id="4koaPTSwhBmFynQigVtt-19" value="mux" style="shape=loopLimit;whiteSpace=wrap;html=1;rotation=90;fillColor=#ffe6cc;strokeColor=#d79b00;" parent="1" vertex="1">
          <mxGeometry x="180" y="497.63" width="200" height="34.5" as="geometry" />
        </mxCell>
        <mxCell id="4koaPTSwhBmFynQigVtt-20" value="0" style="text;html=1;strokeColor=none;fillColor=none;align=center;verticalAlign=middle;whiteSpace=wrap;rounded=0;" parent="1" vertex="1">
          <mxGeometry x="262.25" y="420.38" width="20" height="30" as="geometry" />
        </mxCell>
        <mxCell id="4koaPTSwhBmFynQigVtt-21" value="1" style="text;html=1;strokeColor=none;fillColor=none;align=center;verticalAlign=middle;whiteSpace=wrap;rounded=0;" parent="1" vertex="1">
          <mxGeometry x="262.25" y="464.88" width="20" height="30" as="geometry" />
        </mxCell>
        <mxCell id="4koaPTSwhBmFynQigVtt-22" value="2" style="text;html=1;strokeColor=none;fillColor=none;align=center;verticalAlign=middle;whiteSpace=wrap;rounded=0;" parent="1" vertex="1">
          <mxGeometry x="262.25" y="532.13" width="20" height="30" as="geometry" />
        </mxCell>
        <mxCell id="4koaPTSwhBmFynQigVtt-23" value="3" style="text;html=1;strokeColor=none;fillColor=none;align=center;verticalAlign=middle;whiteSpace=wrap;rounded=0;" parent="1" vertex="1">
          <mxGeometry x="262.25" y="581.63" width="20" height="30" as="geometry" />
        </mxCell>
        <mxCell id="EiuUyV7uElEIks8eiaqD-5" style="edgeStyle=orthogonalEdgeStyle;rounded=0;orthogonalLoop=1;jettySize=auto;html=1;exitX=1;exitY=0.75;exitDx=0;exitDy=0;entryX=-0.142;entryY=0.718;entryDx=0;entryDy=0;entryPerimeter=0;" parent="1" source="4koaPTSwhBmFynQigVtt-24" target="EiuUyV7uElEIks8eiaqD-2" edge="1">
          <mxGeometry relative="1" as="geometry" />
        </mxCell>
        <mxCell id="4koaPTSwhBmFynQigVtt-24" value="Im" style="whiteSpace=wrap;html=1;aspect=fixed;fillColor=#d5e8d4;strokeColor=#82b366;" parent="1" vertex="1">
          <mxGeometry x="530" y="473.94" width="80" height="80" as="geometry" />
        </mxCell>
        <mxCell id="PJWs02H1WUagGIbA9iWr-118" style="edgeStyle=orthogonalEdgeStyle;rounded=0;orthogonalLoop=1;jettySize=auto;html=1;exitX=1;exitY=0.5;exitDx=0;exitDy=0;entryX=0.25;entryY=1;entryDx=0;entryDy=0;" parent="1" source="4koaPTSwhBmFynQigVtt-25" target="4koaPTSwhBmFynQigVtt-41" edge="1">
          <mxGeometry relative="1" as="geometry">
            <mxPoint x="770" y="760" as="targetPoint" />
            <Array as="points">
              <mxPoint x="765" y="480" />
              <mxPoint x="700" y="480" />
              <mxPoint x="700" y="930" />
              <mxPoint x="2371" y="930" />
            </Array>
          </mxGeometry>
        </mxCell>
        <mxCell id="4koaPTSwhBmFynQigVtt-25" value="NPC" style="rounded=0;whiteSpace=wrap;html=1;rotation=90;" parent="1" vertex="1">
          <mxGeometry x="730" y="403" width="70" height="30" as="geometry" />
        </mxCell>
        <mxCell id="PJWs02H1WUagGIbA9iWr-10" style="edgeStyle=orthogonalEdgeStyle;rounded=0;orthogonalLoop=1;jettySize=auto;html=1;exitX=0.5;exitY=0;exitDx=0;exitDy=0;entryX=0;entryY=0.5;entryDx=0;entryDy=0;" parent="1" source="4koaPTSwhBmFynQigVtt-26" target="PJWs02H1WUagGIbA9iWr-9" edge="1">
          <mxGeometry relative="1" as="geometry" />
        </mxCell>
        <mxCell id="4koaPTSwhBmFynQigVtt-26" value="Inst" style="rounded=0;whiteSpace=wrap;html=1;rotation=90;" parent="1" vertex="1">
          <mxGeometry x="700" y="551.63" width="70" height="30" as="geometry" />
        </mxCell>
        <mxCell id="PJWs02H1WUagGIbA9iWr-13" style="edgeStyle=orthogonalEdgeStyle;rounded=0;orthogonalLoop=1;jettySize=auto;html=1;exitX=0.5;exitY=0;exitDx=0;exitDy=0;entryX=-0.001;entryY=0.676;entryDx=0;entryDy=0;entryPerimeter=0;" parent="1" source="4koaPTSwhBmFynQigVtt-30" target="4koaPTSwhBmFynQigVtt-34" edge="1">
          <mxGeometry relative="1" as="geometry" />
        </mxCell>
        <mxCell id="4koaPTSwhBmFynQigVtt-30" value="mux" style="shape=loopLimit;whiteSpace=wrap;html=1;rotation=90;fillColor=#ffe6cc;strokeColor=#d79b00;" parent="1" vertex="1">
          <mxGeometry x="957.5" y="601.75" width="65" height="34.5" as="geometry" />
        </mxCell>
        <mxCell id="4koaPTSwhBmFynQigVtt-31" value="0" style="text;html=1;strokeColor=none;fillColor=none;align=center;verticalAlign=middle;whiteSpace=wrap;rounded=0;" parent="1" vertex="1">
          <mxGeometry x="972.25" y="581.63" width="20" height="30" as="geometry" />
        </mxCell>
        <mxCell id="4koaPTSwhBmFynQigVtt-32" value="1" style="text;html=1;strokeColor=none;fillColor=none;align=center;verticalAlign=middle;whiteSpace=wrap;rounded=0;" parent="1" vertex="1">
          <mxGeometry x="972.25" y="620" width="20" height="30" as="geometry" />
        </mxCell>
        <mxCell id="PJWs02H1WUagGIbA9iWr-59" style="edgeStyle=orthogonalEdgeStyle;rounded=0;orthogonalLoop=1;jettySize=auto;html=1;exitX=1;exitY=0.25;exitDx=0;exitDy=0;entryX=0;entryY=0.5;entryDx=0;entryDy=0;" parent="1" source="4koaPTSwhBmFynQigVtt-34" target="PJWs02H1WUagGIbA9iWr-47" edge="1">
          <mxGeometry relative="1" as="geometry">
            <Array as="points">
              <mxPoint x="1280" y="505" />
              <mxPoint x="1280" y="462" />
            </Array>
          </mxGeometry>
        </mxCell>
        <mxCell id="PJWs02H1WUagGIbA9iWr-60" style="edgeStyle=orthogonalEdgeStyle;rounded=0;orthogonalLoop=1;jettySize=auto;html=1;exitX=1;exitY=0.75;exitDx=0;exitDy=0;entryX=0;entryY=0.5;entryDx=0;entryDy=0;" parent="1" source="4koaPTSwhBmFynQigVtt-34" target="PJWs02H1WUagGIbA9iWr-55" edge="1">
          <mxGeometry relative="1" as="geometry">
            <Array as="points">
              <mxPoint x="1270" y="589" />
              <mxPoint x="1270" y="578" />
            </Array>
          </mxGeometry>
        </mxCell>
        <mxCell id="4koaPTSwhBmFynQigVtt-34" value="" style="shape=image;verticalLabelPosition=bottom;labelBackgroundColor=default;verticalAlign=top;aspect=fixed;imageAspect=0;image=data:image/png,iVBORw0KGgoAAAANSUhEUgAAAKUAAACoCAYAAACBtS4EAAAAAXNSR0IArs4c6QAAFTJJREFUeF7tnQuQVNWZx//9mJ5nz/sBw1OQqEHXrGF1tyIJlCa4FjFmo64CMbqwiwiIQokrjmWlFvGR+IiwRFNhcYOIblwlahJFd00W4mazRF1gJAhEGZyBeT96pnt6+rX1nc5p79y+PXN7+k7PvX2/UzUF033uud/5vt985/0dR/mkKxd4vSWv+Hy+cnDKaQ2E6y/GwNcfM30dHQQlEHvnn7eaX1jTa9PkAh4dKMGDH882uZTAMCgv+fOLTS8wCzh2DfyuFbhlX+rnZ5S0o76uCE6nC+EwEIlA/Nve6UdzfwGQVzT2l6fxJEOZhrKsnnU0KC+b1onaSVWY4/EjDzEc6clHd8CNgD+Ew81DmFpVjBIP4HAAeU7gvTOfaaTYA1xcB7x7+rPPLpsKHG0H+oLpaY6hTE9fls49GpRXXwKEQsDa8/vhcrnx1+cXYMd/92Dr++U40RZAXkEhXrweONkF/LEbaBsA6r1x6KIxYG4tcKQVqCwEAmFgshfoHQSa+4DzqgFfEKgsAr7/m/izqRJDaWnM0hN+NCivvBCIRYBp6EYkGkXIWYQHr3Di6l35aOoOIOAsxBWzAAeAE13AtLI4kG4ncEF1HNRwFAhGgNpioCwfONkd/55+p++nlQL7m4BAiKFMz3o5mns0KOfPiXvK8lg/ojEH5lQ4cc8CF778jAdn+gOorizE+r8Cfvi/wMJzgJ82AtRsUyJvSGnjl4AXjgB/ORX4QwdwqDV9ZbKnTF9nln1iNCgvnQ6UOMN4+xZ3oo473+3F/W+XoT0YwIy6Qlx1LhCJAbMqgA4/UJgX94LkPfNcwKd98d9b+4ErZwEvH4037T/4rX61MZT6dWX5nB92Adf9PHU1prna4C2rFd6SfmjkTf8O+n3ozXOgqrwEay4FftcMzK0B9p0ECtzxH48rDl+7H6gpijfh51bGIaUm/def6FcfQ6lfV5bP2eoHFv576mp4fJ+gsKAYiLkQjUL80LRQKDyASHEF4CnJig4Yyqyo2RwvCUWBb/0cONFjDnkMHX0/8dg/4rW9PxlWZv2UmdjUsBWfv/CLumr84p7taGlpwl0bHtaVnzMZo4ETvcDLJwDymp0BY8o0qhRffz+OHz85thUdgpKSEiiCrPHwQdxz35MoLi4dUU7K+8z2zfj6tTczlEZZNAfKee/9/8PqtRuMg/LDI7/Hzh2P4u57n0BtbT2U3lQJH33e3dmG2efORVd3O0OZAzAZVQXDoVR6yvcOHsBbb74kvCalpx6/D9/45i3DmnZuvo0yZe6UkzGU6j7leRd8Ad/d/GPhJff/+hcJKFM15Qxl7sBkVE0yhlL2KQcG+vDIg3di7kXz8Lc33Z6QT/Yb6YOVtzcM+44+YyiNMmXulGMYlKQS6k9u2bwWK1c1YP5Xrh6mJQntVxddN+w7hjJ3YDKqJoZCKT2fHH2//upziekegpL7lEaZLbfLMRzKtrYWPNCwAgsWLsbia5aJJv3A/jeEFrn5zm2YjKpdRlAaJQSXwxpQaoChZB5MpwGG0nQmYYEYSmbAdBpgKE1nEhaIoWQGTKcBhtJ0JmGBGEpmwHQaYChNZxIWiKFkBkynAYbSdCZhgRhKZsB0GmAoTWcSFoihZAZMpwGG0nQmYYEYSmbAdBpgKE1nEhaIoWQGTKcBhtJ0JmGBGEpmwHQaYChNZxIWiKFkBkynAYbSdCZhgRhKZkCXBtSxSClelDoKijrinq6CNTIxlGPVnI2ek2EbZcxRrfA88jNvaXkiwNlYVcRQjlVzNnkuVeAyZcBciq73zA8344YbV4pIezI26VhVxFCOVXM2ek5vxGVuvm0EhRmqKmNEHTv6gRBHKyQ4Q2kGS9lUhlRNOkNpUyCyXW3ykNuebMCaOzeL6MwyacUVZSizbR0bv099C4gy3KMyajNDaWNIJqLq6nlKrVijDOVEWIbfmRUN8JRQVtTML0lHAwxlOtrivFnRAEOZFTWP7SXhUBCh0CAKi8rGVoBFn2IoTWq4cDgIX287HE4n3Hn5KCmpMqmkxovFUBqv04xLHAr6EY4MYTDgQ15ePmKxGIqKK+B2ezIu2woFMJQmsxI12d1dn6Kyejp8vW2IRiPCU5aW1ZlM0vETh6EcP92mXTIBSD99va3Izy9CsY2abKWyGMq00RmfB0KhIPp9HQgNBVBWMRkDvk4UlVSgoMA7Pi80cakMpUmM4+trF31GgtM/0I2qmhnIyyswiXTZFYOhzK6+E2+jvqPT5UJw0A+/vwelpTXwD/TA6XIDiMFbWjtBkk38axnKCbIBzT/2drfA5c5HUXE5yFMWl1QiEh4S/zoczgmSbOJfy1BOoA2Ghvzo7mpGdfVMOJwO+P29tpqPTKV6hnICoCQvSYOawsJSMQdJXrK6Zuafmu4JEMhkr2Qos2wQ6kv6fO1wOt2gSXKn04XSslrkeQqTJInFoiJPfkFJlqWc2NcZBqV6vx1Vq37KTGxq2IrPX/jFpFrSqbfnd2/L+DjmxKovvbfTdA/NQZaWTxKwORwODA0FUF7x2Y5uZYnkUQf6u1J+n97brZPbUCip2ndteDhRe9oy33j4IOR5YaVa7AhlMDiAnq4W1NTNEgMa+p2WD8lbqlNX52mRhybTCwpLUVBQYhuPOa5QqnciywPrLc2fiNNwHx07ZAtPSV5xoL8TcDgEYP7+blRWT9McYVOTTQMe0d+MRtHZeQpebw1cbg88Gk28dfyffknHFUqlpxwY6McDDSuwYOFi0LkOau5zGcpIJIwAjaa9VejsaBKQhcNDcOd54HZ5RB+Smm+ZCEaaBqJ1b7c7H8FgPyqrpqOnuwWVVdP0WzQHchoK5Wt7fzJMJedd8IWEJ9Tymjt3PJpxNAUz24CAoqaZfgYDfWItm/qQZeWTholNXjQQ8KGqejr6etsQi0XEQIj6lASmEl4z19co2QyFUvYptc4Fq/uQRh0yMkoRRpdDgxqfrwMOOMRUD+30cTldovlWJwK2t6dVbFOrqJqKzvZTYh9lReVUzf6m0bKarbxxgZIqqQ6CZDdP2dPVLFZmqJluPXMc3rIaFBWVD7N/INAnBjDUbHe0fSyApQl1avLJu1Izbsc0blCSMpV9Svr9kQfvxNyL5uV0n5K8Hg1UaHdPwN8joKQJcpqLVC4dRiNhtLd/LDwpjcCpeym/9+QX22ZDr9Yf3bhCqT60rhx933DjbaBRuDrygpU9A/UXaaWGvB9trqC+Iw1utM7YyIlxauIJ4OBgP+iz6tpzrKwCQ2Q3DEpDpLF4IQF/X2LbGXlM2obmLa3RrBXNQfb2tgpwuzs/RXnlFDGgcbnyLK6FzMW3PZQyzJ1alVqRalOpW6680P5HMdIe7Me+N3+GZ7ZvTnqEyi0tLcbLL+3ErSs24LVXX0Bd3RT8zXUrbN1kKxXFUGqsOulZbaJ+Ym/PGbEE2Hb2hFiloaabBic02t778r8mrWZR80ypt+es2DNJ6+B7X9klvKkyJk/mvsbaJTCUGlBSX/h7D92FW5dvFOv2corrwP43hLWlF+3qaELjkQ/wby9sxenTp3HV1Tegr7cLq9dtweuvPpcEJTXpfX1taD3bijd+sRvfWd6APbu3YtKkaQLKVO+xNmLpS89Q6vCU6lDK+365C9ffuBq1ddOwc8dmXD7/GsyePQcv7nkaPT0+bNz0xDAoi4pK0NfTCjrLTX3HxkO/xX++/VPcdPM9eP65raivn56YkSAT0v4BGbI51YaW9E1tnScYyj3bk/p+yt1NcgZhydI14jYE8mZPb7sfl172FdEEf/D+u7hp2TpU10wXIL315ktiAwp5SupTOp1OVFVViWmhJctW4UvzF6GttRPP/sv3xWrW7l1PCSgXXnGtWIZVvoem0L666LqkWxisg9fYJGUoVZ4yVSxGCqs8a9Ys+P1+dHV1YdXqexAciuH0qWNYevNaTJp8bhKUtEPq9rWbUFExCcGgH578QrEV7WxLK57d+ZgmlDJ8szSnVsi9sZnaOk8xlCoo1XOr6v4lnTSkyXFKRxsP4a19exNb86SnXLf+n/Crd17FHxo/wNKbb8P0mX8mBjViYFQ5BcePNUKu+ys9pbIfax2EjJeUoUyzT0kLAI88dCdW/P16TJ/5OTy85W7R5F4y73KxYkVp46bH8R/79uCjYx9i+cp7EYuGUFU9I2E95ZKrhFLunJJ9Sq27aow3vzlLZCj/BOX6jQ/D7XKIFZjBQT+e37UNhUWluG31d+H39wvg5Ohb2aSSd6S+IPVDv7boWzhxvBGr1tyL3xx4C81Nx3HTt++A11spznDTpgxKqaBUj77t2HSTfmwPJSmBDm5RKij0ip06gAO0Nk07w2m3D205c7lHXmmhYw57dm+HPxDEkqXLUVs3W6zo9HQ3o6p6JlziPDcnPRqwPZS0Rk37F1PF7aFd47Sbh0LxqcGUTazLGYHb7cbUaedjzbr7UVJSif7+Dhqciz5kHHROejVgayhHA1IqcSQw4562DeFwCNFoWMBLTXUoHIQnr1Dsi+SUngZsC6VeIPWCSUuMtOZdWTVVbLCgE4t2jQWUHoLJuW0JZbpA6gezU+yhpN3jdt2gmymQthzojBVIvWDSkVitI7NGGMsuZdjKU44EJG0/Cw0NIhwaBJ1EzPPEp3C04kOO1se0CzzjVU/bQDkSkLT0R31C8nLq5MkvQkXFlKQ4PwzmeCFpk3nKkYCkqGe0pYxSfOe3R2yiiERCwmPKVDf5c0nNMoM5PmDmvKekiXGCTGseUgkknaOhzbbK4wjkQWlSnBKdNKyonJJkBQIzEg2L6BV8lMEYSHMaSjquGhwc0DwnowSSYCzxVmtqlFZ2Ws8eF9/RLnOtQ2B06Iv6pKnKMMZU9iklp6GkfiKF0VPPF+oFUmJA5ZDHpbXw8opkb0n5KLIFReS1y1034/knktNQUtiUsvLJw8KeUHPb2XFK6FTLQ4aGehGNhuDJp7PY8WhoFBOIyiLgaupma9qD+q20DJmfXzye9rJF2TkMZUyE3aO1Z3UiyCipm2ICMhIOiO88BRSlIr4Jg7oAXZ1Nom9aN/k8TTCoTJqftFuA0/H4K8lhKKlJbRWhU/QMQJRAuvNKQD8y0cZeOoFIwKWKgNbv6xRekuY3OWWmgZyGknb3IBYb9RbYkYAk9VJzT80+bbbwliVfJRIJh8SuIOoqcMpcAzkNZTzIfZvwcKn7ejEM+uPTPmoPSZ/JQQ71F2n3uNrrimvres6isLic+5OZ8yhKyGkoqYI0CU5XyuUXelNCI/uRLvfwYPgSSCpHazqIgKTYkhTEyo7X1RnEYFIxOQ+lXjDVmlECqTVKZyDHC0kbeEqpOj0eU+ZlIMcPOD0l28JTpgvmmeaj4hH2kHoQMj6PraDU25TTRDhtzlDPY3KTbTyAWiXaDkq9YKqVxUBmB8iMR9/p3jKmrJbyWeUtEtmqejp9TAYyW1aJvycjT6mOu0MFjnTLmKwaHeA/ePC/EreTaZWTDTXoAZOBzIYlhr/DcCjVt0AoPSLdMqa8Jk8J6UTd00hgUqxyp8OZtG5NIaBpd1BBEV1D582+dWz6RsOhVHrK9w4eSITGI/0+9fh9+MY3b0m6QFSPdx1P+9CeSQpaRee2aScQ3dIQ33keEpt7eefPeGo/ueyMoRzpljFlvMbi4uRLjUgc8qxbf9CAtes2a952m011CBDDQyKWJIWI5nPb2dT+Z+/KGEoqippkrVvGZB9TBqRXB2yyc2SxiTG3Nd5qGJTS623ZvBYrVzUkRZ+V0MrItHYOn2wNNCZOSkOhVI++KcRyS0tTwpPKPiXlM0uTPXGq5zen0oDhUCoj4S6+ZplmXEetu2smYq6SsTCnBjKC0pxVYqmsrgGG0uoWzEH5GcocNKrVq8RQWt2CWZJfvc9BeXeljPsuRUnnXkst8RnKLBnVyq8hILs72xJXsyjnl2mAuu3JhsQV2XrutRxNFwzlaBqy+fepFkVSbaJR39A2FvUxlGPRms2ekVN4qTbUKNVhxLIxQ2kzwMZaXekB5TV9WoCm8qrpvpOhTFdjnF9zn4MEsqKqVnN7YjpqYyjT0ZYN85KHVA5kpAqoSZdLyOr7LDNVE0OZqQZt8Hyqm30XLFwMuZQ896J54s5yIxJDaYQWbVCGep5SbkOU00MtzZ8M00Imc5UMpQ2AsloVGUqrWcwG8jKUNjCy1arIUFrNYjaQl6G0gZGtVkWG0moWs4G8DKUNjGy1KjKUVrOYDeRlKG1gZKtVkaG0msVsIC9DaQMjW62KDKXVLGYDeRlKGxjZalVkKK1mMRvIy1DawMhWq2JGUKrPbcjKXz7/KnEc89THx7Fzx6O4+94nUFtbL76mfXkfHTsE2m+n/Iy+04ryazWFsryZa8AQKJcsXZMI/ac8PLTwimvxvYfuwq3LN4qAqPQdRV5rajqBJcvWimfUIQIzrxKXYHUNGA4lKUR5foM8Y339dLFVnnYp/+yVZ1E/ZSa6utuFZ0x1BsTqimX5x64Bw6FUH7NU3gQh/79o0fUCzjvWPwhlXPRUIajHXj1+Uuu4AjmFTQ1bdYXzVjqVkbSpN58eixgCpTwLLF+oPBOsvC1i966nMG/el3HJvMsTQfkPH/4f8ZhRh470VNpOebSCA6QTRVkvbHrz6dG9IVDKPqWWAmQ/ksJK79//Syz99h1igEOVIEDpPh36l/qXnIzXQKqIFcoTirJ1O7D/DSGAHKhSJGZlvHp1EFyZj1o4JZT0/0H/ABobfw86UKbMp6eGhkIp+5O/euf1YaNr6mMOBgJCQGqyqRL01/rHk0dF31KCqkdgzpOeBlJBqby540dPbxGFyj7+Aw0rIB2NGja9+eQMS0fbGaSKg5+qJoZDqRW6gxRAfci/uGxBoplWDnq+83cb0tM059atAT1QKvvy6tmQVM3ySPm0vLC8gEGP4IZDSS9V91m0InEZFXdGTyXtnCcVlMoLtWg+mbyZ8uy2PLetnj3Rk0/5zFim/DKC0s7GtkrdR+tT/sNtm8RlCTLCRSoPqI6EMZqnlNOADKVVSMminKONvmecM2cYlDIqr9pTqqFMlY9mUdhTZtHAVnyVnnlKZXhoms6jJD2djE1JYVrq62eCBkGU1PnUAyL2lFakhWVOqQHuUzIcptMAQ2k6k7BADCUzYDoNMJSmMwkLxFAyA6bTgCaUppOSBbKdBlav3QBH+aQrF3i9Ja/4fL5y22mAK2w6DXi93h4HSUVgmk46Fsi2GhBQcmINmEkDDKWZrMGyCA38P7/IwlnIRzvbAAAAAElFTkSuQmCC;" parent="1" vertex="1">
          <mxGeometry x="1100" y="463.13" width="165" height="168" as="geometry" />
        </mxCell>
        <mxCell id="PJWs02H1WUagGIbA9iWr-30" style="edgeStyle=orthogonalEdgeStyle;rounded=0;orthogonalLoop=1;jettySize=auto;html=1;exitDx=0;exitDy=0;entryX=0;entryY=0.5;entryDx=0;entryDy=0;" parent="1" source="PJWs02H1WUagGIbA9iWr-70" target="4koaPTSwhBmFynQigVtt-42" edge="1">
          <mxGeometry relative="1" as="geometry" />
        </mxCell>
        <mxCell id="4koaPTSwhBmFynQigVtt-36" value="ALU" style="shape=step;perimeter=stepPerimeter;whiteSpace=wrap;html=1;fixedSize=1;fillColor=#e1d5e7;strokeColor=#9673a6;" parent="1" vertex="1">
          <mxGeometry x="1770" y="410" width="90" height="340" as="geometry" />
        </mxCell>
        <mxCell id="PJWs02H1WUagGIbA9iWr-29" style="edgeStyle=orthogonalEdgeStyle;rounded=0;orthogonalLoop=1;jettySize=auto;html=1;exitX=0.5;exitY=0;exitDx=0;exitDy=0;entryX=0;entryY=0.75;entryDx=0;entryDy=0;" parent="1" source="4koaPTSwhBmFynQigVtt-37" target="4koaPTSwhBmFynQigVtt-36" edge="1">
          <mxGeometry relative="1" as="geometry" />
        </mxCell>
        <mxCell id="4koaPTSwhBmFynQigVtt-37" value="mux" style="shape=loopLimit;whiteSpace=wrap;html=1;rotation=90;fillColor=#ffe6cc;strokeColor=#d79b00;" parent="1" vertex="1">
          <mxGeometry x="1560" y="604.38" width="130" height="34.5" as="geometry" />
        </mxCell>
        <mxCell id="4koaPTSwhBmFynQigVtt-38" value="0" style="text;html=1;strokeColor=none;fillColor=none;align=center;verticalAlign=middle;whiteSpace=wrap;rounded=0;" parent="1" vertex="1">
          <mxGeometry x="1607.25" y="562.13" width="20" height="30" as="geometry" />
        </mxCell>
        <mxCell id="4koaPTSwhBmFynQigVtt-39" value="1" style="text;html=1;strokeColor=none;fillColor=none;align=center;verticalAlign=middle;whiteSpace=wrap;rounded=0;" parent="1" vertex="1">
          <mxGeometry x="1607.25" y="606.63" width="20" height="30" as="geometry" />
        </mxCell>
        <mxCell id="4koaPTSwhBmFynQigVtt-40" value="2" style="text;html=1;strokeColor=none;fillColor=none;align=center;verticalAlign=middle;whiteSpace=wrap;rounded=0;" parent="1" vertex="1">
          <mxGeometry x="1607.25" y="646.63" width="20" height="30" as="geometry" />
        </mxCell>
        <mxCell id="PJWs02H1WUagGIbA9iWr-38" style="edgeStyle=orthogonalEdgeStyle;rounded=0;orthogonalLoop=1;jettySize=auto;html=1;exitX=0.991;exitY=0.37;exitDx=0;exitDy=0;entryX=0;entryY=0.5;entryDx=0;entryDy=0;exitPerimeter=0;" parent="1" source="4koaPTSwhBmFynQigVtt-41" target="4koaPTSwhBmFynQigVtt-52" edge="1">
          <mxGeometry relative="1" as="geometry" />
        </mxCell>
        <mxCell id="PJWs02H1WUagGIbA9iWr-114" style="edgeStyle=orthogonalEdgeStyle;rounded=0;orthogonalLoop=1;jettySize=auto;html=1;exitX=0.997;exitY=0.906;exitDx=0;exitDy=0;entryX=0;entryY=0.5;entryDx=0;entryDy=0;exitPerimeter=0;" parent="1" source="4koaPTSwhBmFynQigVtt-41" target="4koaPTSwhBmFynQigVtt-23" edge="1">
          <mxGeometry relative="1" as="geometry">
            <mxPoint x="190" y="600" as="targetPoint" />
            <Array as="points">
              <mxPoint x="2900" y="673" />
              <mxPoint x="2900" y="20" />
              <mxPoint x="170" y="20" />
              <mxPoint x="170" y="597" />
            </Array>
          </mxGeometry>
        </mxCell>
        <mxCell id="4koaPTSwhBmFynQigVtt-41" value="" style="shape=image;verticalLabelPosition=bottom;labelBackgroundColor=default;verticalAlign=top;aspect=fixed;imageAspect=0;image=data:image/png,iVBORw0KGgoAAAANSUhEUgAAAKUAAADbCAYAAAAMA1FrAAAAAXNSR0IArs4c6QAAGHtJREFUeF7tnQlwXMWZx/9zSqNzdNmWZCMCdjAGbJbDEHsRDriCDSSuLMWxEAPLFWKcVNawsNksKSosyZJgIAEMgVAshCQEQrxggg0YfBVOwDFgY2zWB7GMJVmWLY00h465tr4eevw0mtHMvJk3evPe96pUkkbd3+v+fz993f1eHxb3pPnzXJWulQPegBt8GVqBUNMs+L++XPd1tBCUQHTd4hW36b6wXMDcFGj31WPlvvNyM1KA3COgbDljagFuybcYLwX2HSrHE6tPSHn7lopuNE0sg9VqQygEhMMQ37uPBtDuKwUcZQUpOkNZEJn1cZN0UJ4z5SgmTKrDNGcADkSxw1OC3gE7BgJBfNw+jMl15ahwAhYL4LACH3Qeq1e5E5g1Edj8+bHPzpkM7OoG+oeyqz9DmZ1eRZ06HZQXnwEEg8B3p/tgs9mxcHopnv6LB4986MbewwNwlLrwh8uBfT3AZ73AYT/QVBmDLhIFTpkA7OgCal3AQAhorAT6BoH2fuCkesA7BNSWAQ+8G8ub6mIoixqz7AqfDsr5pwLRMDAFvQhHIghay3DfhVZc/JsSHOgdwIDVhQtPACwA9vYAU6pjQNqtwMn1MVBDEWAoDEwoB6pLgH29sb/T7/T3KVXApgPAQJChzM57Bk2dDsrzpsUipTvqQyRqwbQaK+6aZ0Prr5zo9A2gvtaFZV8BHt8CfPVLwEufANRs00XRkK475wIv7ADOnQx8egTY3pW9mBwps9esaHOkg3L2cUCFNYS119vjdXxmcx/uXluN7qEBtEx0YcFUIBwFTqgBjgQAlyMWBSl6OmzAwf7Y710+YP4JwJ92xZr2X/w1c9kYysy1KvqU7UddePjV1E9YptgOo7J6goiW9EUjb/o+GPCiz2FBnbsCS2cD77cDpzQAb+4DSu2xL6ctBl93AGgoizXhU2tjkFKTvmF/5vIxlJlrVfQp+/wO/NeL01PWw+ndD1dpORC1IRKB+KLHQsGQH+HyGsBZURANGMqCyKyPm4QjFjz0ylR0eUr1UaAUpWAode2e/Beuy1OC93fXoj/ggHfgWN8x/3dSZ3HQNwCGUp12nEsjBdo+2MtQaqQtm1WpAEOpUjgts3Xs2IXV99wPT7viHR6AWd+8BPPv/J6Wt05pe8/6d7Fz9VosuPsOlFSUY8jnx5p7HxDpEz9rmjkDZ19zuepyMpSqpdMuI0H5zoMrcMGyJWg69WRxI29XN179wY8x+9qrMG3eXO1unsIylWnzk8/ioh/ejsqJDaI8b9y3HNEoMPfb14lyys/m3BL7Xe3FUKpVTsN8yaCk26392S9R3dyYUxRSW2wZGWcsnC/+KShytr2/VZiTZaJyf/TyKlx4+20imqq9GEq1ymmYT4+Rkqq75bcviVpT0yx/djc3CTipW0Gf9bV35tzFYCg1hEut6VR9ytalN41LlJT1kP1K6lZseuIZnH7Z11HZUB/varz37O/RMvvMnLsXDKVacjTMlxgpCYb3n3sB3/jpj0R/brwu6jNSX3f24ivwyetv4bwlN4qivL38McxYcCF2rnlbgJpLf5LsMZTj5eEx7pus+ab+pP9ob3ykO17F3vDIk3C4XAj09MabaWq2nS4Xuvd+JkDNpT/JUI6XZ9PcV699Stmv3P/XrSIiyqcAFMn3bHgXzafNwKx/ujRnVTlS5ixh/g2kGn1TRNr99sZxbcYL8Q/DUOafKbaYowIMZY4Ccvb8K8BQ5l9TtpijAgxljgJy9vwrwFDmX1O2mKMCDGWOAnL2/CvAUOZfU7aYowIMZY4Ccvb8K8BQ5l9TtpijAgxljgJy9vwrwFDmX1O2mKMCDGWOAnL2/CtQECjHWl+il7mC+ZeWLapVgKFUqxzn00yBnKGk6VQbH/21KKC7uREL77lLzDyWC432btyMqa1z4Os+El+Jp5zuT8tGuz7dI6ZjHdq1G+899wKG+r2oP/FLYkLrgb99JFbx0UV25HJOirDy80knfzk+nSvV55opyIbzrkBOUCY2vTQ7mi5aRKScKS3BIvAIIILpyxe2ivUmlE4J5cZHn4qDrZy7V3f8cWKdcXldDc657p/F8k65lFMuYpo+f17Sz3NZg5x3xdlgWgVygjLRulzNRlPiCSC5HFO5PLO8vnbE+mHlemKKlMq1KGSvY/vOEdGRFsT/463XY91Dj8ehlOXI17rjtKpxAk0VyAlKZRMtS0nNMUUy5cJ5JZSUTgleIpTKXRiUXQNpXzbV3u4j8V0klM26smug/FxTFdl4XhXICcrESJaPSJkIZSbriFOtN87XOuS8Ks7G0iqQNyiH/QERHSdOnxZfmC6bXmWf8rizThdNu9xvJrFPqYQycT2I7KfSoqUtz78Y30JE9imbZ506omugXDyfVglOoBsFcoJSPn+kviA1q6deehH2v7dV9AHpIvjk6NtR5sK08+eKFXDKJvasqy+D52Cn2DeH7CihJBupRtPKpl3ZTKf6XDeKc0HSKpATlGmtcwJWQIUCDKUK0TiLtgowlNrqy9ZVKMBQqhCNs2irAEOprb5sXYUCDKUK0TiLtgowlNrqy9ZVKMBQqhCNs2irAEOprb5sXYUCDKUK0TiLtgowlNrqy9ZVKMBQqhCtEFkswRAswyFEyvV9sKcWWjCUWqiao00C0trnA6xWRB02RCrVn0mTY1HGJTtDOS6yp76pZWgYllAY1oEhRB120JFekYoyRO02nZVUu+IwlNppm7VlipC2o30IN7hh9fhgiUQEmGF3Zda2ijkDQ6kX70UiAkKbx4dIiRORyjK9lKzg5WAoCy756BuKPmS/H5bhIMI1VbB5/aLJjrhKdFC6wheBoSy85qPuaOv3IWqzwxIMwuofQGhCbaw/adKLoRwHx1NkjNqssA4OCwjD1RXiO4226aLfzXwxlOPgfWqmbb39iNrtiJS7YOvzxfqQobBotmG1jEOp9HNLhnKcfGEZCsJ+1BNrqq0WESnN9jwylfQMZYGhlA/Go2WxNzX0kJzAhC3WdPPFp9gWlIHYKJve1NhAD8mpmaZnkFGnY3Q5olGRJlpqvhE4R8oCYSn6kR6vgJCablgssAwPI1xbnbQElN7qC6T8e4GKPS63YSgLJLtlcBj2nj4EJ9XDEgqBfk81qLF39wLh2MP0iKsUkVInoiZ6ZslQagwlNcFWbwCwAFFXqYh+oYYaESlHXdFobMBT5oq93enuRaSqXDyzTNrEa1z28TLPUGqgvIWiXCA2mqaoFykrFZMsaFKF+KI+pBLKaFT8Tu+94bDBMjCMUIMb9p5+hOrdGpRQ3yYZSo38Y+vpi009s1phHRgUTTXNjwzXjJxcQVGU/k7Rk957IxoR+SgtgZk0ompUZr2YZSg18IQY1PT7ESXbNpoTaRegUcRMvKyBQTEAojShOjfs3T2AxYpQfXX8DY8GRdS1SYZSA/dQM0xvaKiZdnR0i9eG9OZGeRGMYsKFxQJ711ExoLHShAx6syMm9/K773lAdN3iFbeh5YypGrjJHCYJtNhApVR8F33HKBB2V4xshsMROLqOImqxIFJBsFrif4/SSNtEE3qTkcGRMk//L/TsUUw5Ky2B1R8QU9DoYXlihBS3i0TFM0pq4ilaWgeGRV8yNLEuT6UpbjMMZZ78J6IkPe6ZUAv6mYBMNduHRuLiQXpNJWxHPAjX0YAGiNrMs+RhLNkZSoU6yp2JlaLRUSu0A3GyS755oab649feQKinD7OWXJ9Sc4Jx0//8Dp3vfYAzbrkWJ7SeK5p4arLlrsV0mAEd+6LmUu6SLPMrzzcay2a2p2sk3ivTcqe7D0OZBMrZ114Vh1AK37r05mNgRqNi6hm9IrR3HkFoUp1oirevfguezi7M/ddbR/uenkXSYLzXiw9e+BOGPf1wuisxa8m/xNPSnu69n3egZkpTTlC+8+AKsV03HbJFF8GuPJ8oFZjpYFHmS2ZTeXZSSUXqFZjp7sNQpoGS/pzsFIxDb27E4cOHMe20UzD9mssw3OPB+l/8Cl1dXZARQ7n/esv0k3DRd25E9SknYdtzf0BPaAjeji6c//1bUTmxAeQogsk9uRHBgcG8Qkl1UB68ldgiUHnl2Ue0R72MrJUN9eJwBdqLni5ZL+URNMoWRPm5PHBBnqUkQTx78ZX46I+vir3w6T5XrPg5Kic0jPg/YSgzgFJ51s/gJ7ux9bU1OO+Opai22LDu9y+hpqwcs65YhPdWvwlPe6cASp7Gtugnd6PaWYrtL/4vun1eXHDL9dj5wkr02oDDu/fFD8Ci9G3vb0V1cyMyOaYlVbRLPFFDpiP7dMgBRVCCX57OoUxPEMqT3OQJb8nSkc3NTz4bP51DWRYJf+IBX8roqLyPjOZKGwxlllC6S0rFDHF6lUjXx+s3or3tQPyYlhFAffEum55F7nt9LQZ7PJhx09V4a/ljAj66ZHpyZsvsM+Fp79AUSnm2pax2prAo040FZaqzlDK9D9lmKDOAkqJM+xvrce63r4O1pho7nnoem155DY2NjbDZbKj+h1NGQUlN2YePPI2P129CVVUVfD4fzll0CU678Wq89dAKASWd+/PRy6twzuIrse7h2LF+7dt2aAKlsguiPISVqq9srpVnXiqPi1GmYyhTtVMafJ7qXHLp0EtuX4qDG/6CnrbPMfO6K2FvqBX9TRnt6OfwkV7MueFb+PC1NXAc7sWJN1yJUqcT+1e9ibYDB9C6bIno3xGUMxddjLeXPyag6N7zmTh/aPsrr2sCpWxWE48oTBXBZH9SDvqU6WTTLvuL0hVj9SlTdRO4+U4DMgm/6j/uBXXGZQc+cfS99Xd/xHBbO2ZffzUCVow6Zc3bcQhfW3w1dmzYhPZdu3HBDYvhK7GPSCehlKf4blv5Z7QuvUmc6pvr0X3J+pTKkXIibHS/7Sv/LE4OVvb1xkpHIKUbfZPU8tRh6mOnug9DmQJKehtjHRrGQPdRbH7qOXT/vQ1+vx8ejwfhcFicJS4hTXXK2sIf3o62D7aJpn3i2afjrEsXYMMTz+Dgrv9D5ZQmTPvaV+OnsW1a8bSIlARhonPzAeXqe+4XAy55JT6nVD4V+MqN3xJRmqKeHDEf2fd3ASl1JeRZ7sp0if+w8l6JzykTT5aj+1AXRUZaug+PvpNASctb6aIJEVFnbBKEmA9JG00NBzPaXErM8qFZQFXlYgJGsLFeTD2j6WthWq3Ii8Ky6myZeqAjNgCIRFPu2yNmjdNsnsrylJMkCEhauhCujW23Qmu5aQsWusJ11aae7ZMViYrEpoUyHZBSo3Rgikj7xSOicFUZog6HeO8tZgiZfFMBhjILBTIFMlMwKTJaB4dik3SPesQMITPPh8zCFUmTmi5SZgtkxmB6/bF9gercDGSOVJoKSrVAZgom9U+5yc6RSDO90RkLyNim90ExYraEw4hQf9BhT7o/ZLo+Zu4uYQumiJRjAUkTc219/tgqwoQr6nQiVFc9ap8fBlPbfxzDQzkWkLTAi5a3xi5L7LGP1SLWaCNyDNJgU8OolYUMpnZgGhpKioC0zV6y/cOVQNKOFGInCsWCLVqPbevzxh+s0zPHxEs8YA9HEC1x8FKGPDJqWCjFq8PBoaTrZEYAWVWBcFXyWdIEnL2zO/YgvKY66UFLtCeQWBqbwkYefWUaU4aFUqwUpOWqCdvsZQqkJIDs0PZ9tGw21Q5p9FbHbGfdaPkfYlwo6b1zTbVYJah8pCN2NKN33UkiZNVQCI5wFB6XHeEv9vqhPqncCprW4iS7xBpvmw20Zpuv3BUwLpR0SFKSfqAY+BCUCTtWEJClwdjgptflQNAWo1ls4XekV2wWEGyekBzKwKAYINGab75yV8C4UFKTSlunZLCWWgmk32kDfclLPDKiWUAlJbENp5JcVpqIUTK6q5C7e8xpwbBQ0uweca5hQkRMdPNYQFJaau5plE0zhZJtLiDOUfT6xftuvvKjgGGhJCDFUSClJSn7etRAN/iGhZKJEZI+k4Mc2Gxiq75Re/xEIrD3ehEud3F/Mj88CivGhVJM1qUoFhgTzNJQrB85aB95OkMcSPE4qGp0xKWddr0BMbo363F1eeRwhClDQykGKhmAmSiuEshko3R628NAaoWkwSOllC0bMBlI7WDL1LLhI2W2YDoOdoksHCEzRSj/6UwDZaZNearnmNxk5x++VBZNBWWmYI4Si/uQhSPS6KPvVEpm08fkCFlQHo3/SGgsOTMCkyNk4Yk0a6RUDn7kOYmJzxrFFtA0O4iOoTPREXTjQmHCTU3Xp0wUXZ4OJibr2u2xgxpomz9aq0O7ZvDMn4Jzanoo41GTlkCEw2L/cXGOzRdbuBTcI3xDY79mZP8WpwIcKYvTb4YuNUNpaPcWZ+UYyuL0m6FLzVAa2r3FWTmGsjj9ZuhSM5SGdm9xVo6hLE6/GbrUDKWh3VuclWMoi9Nvhi41Q2lo9xZn5RjK4vSboUvNUBravcVZOYayOP1m6FIzlIZ2b3FWjqEsTr8ZutQMpaHdW5yVYyiL02+GLjVDaWj3FmflGMri9JuhS81QGtq9xVk5hrI4/WboUjOUhnZvcVaOoSxOvxm61Aylod1bnJVTDWXHjl1Yfc/98LR3xmvubm7EwnvuQtOpJ6dVY+3Pfonq5kacfc3lY6bNNF3aG3KColEgJyjfeXAFLli2JA7hnvXvYuOjT2UEZqawZZquaBTngqZVIK9Q0t0IIrrm3/k9DPn8WHPvA9i7cbP4bGrrHCy4+w5sf+V1bHz01+Kz1qU3Yeaii5OmK6koF/ZkRKWfhwcG0fnxThGhpT1Kx5dxFMg7lBQtd65eK+DbtOLpOKDerm68+oMfY/a1V2HavLmjYJMgp0vX9ekefOOnP4K3+4joPrQuvVnY48s4CmgKpTKCyag5Y+H8UVAq5RwrXbIoLO0ZxyVck7xDueW3L6Fj+04RKY/uPzBqMERRLjFSJhs0JUunbMoT4WVXGkeBvEMpo9l5S24U/cSmmTPECDtVBJT9yXTpyAZDaRzwxqpJXqFUjr7rjj9uBJT0N+pTJkbARChTpWMozQEk1TInKNM9p5SA0Y1mffMSoaocSVMzTyNwGn27m5sEsMnSJY6+ZX5uvo0LqWoojSsJ12y8FWAox9sDfP9RCjCUDIXuFGAodecSLhBDyQzoTgGGUncu4QIxlMyA7hRgKHXnEi4QQ8kM6E4BhlJ3LuECMZTMgO4UYCh15xIuEEPJDOhOAYZSdy7hAjGUzIDuFBgFpe5KyAUypQIW96T585xlJauGA4MVplSAK607BQSUNrtrVTgUYCh15x5zFkhACUTXTb/0AXMqwLXWnQIjoKxqnKW7AnKBzKVAf+c2MJTm8rnua8tQ6t5F5isgQ2k+n+u+xgyl7l1kvgIylObzue5rzFDq3kXmKyBDaT6f677GDKXuXWS+AjKU5vO57mvMUOreReYrIENpPp/rvsYMpe5dZL4CMpTm87nua8xQ6t5F5isgQ2k+n+u+xgyl7l1kvgIylObzue5rzFDq3kXmKyBDaT6f677GDKUKFwUOb0XX1p9jcuuDcJQ3ZW2hf//r6N3zMiaf/zBszsqs8xs9A0OpwsMMpQrRssjCUI4hVnjYi4Mbvo/+tjUi1aTZ/wn3iYvQtvZmDHR/BFfD6WiZ/5T4mT6TF31WdfzF4lcC+PP138VwfxuqWhaI6Ojv2BSPlJSG7mEva0Dz3P/OwnXGTcpQjuHb7u2PY9jbJmAJ+jvQsfluNM25F0F/Z7z5pp/l52UTzgTlCXT9TcAXCXpxcOMyTDzz30B/a3/33+GsbEFJVYuAkmxR3pppl8UhNi5qmdeMocwQSmWysZpvZX9RGRGVfUeZxuooR2ntyWiY+Z3MPWaClAxlGidTdOvZ9RuRSjbLiVAq01A62Uz3fPp8PGomQknN/YQzlolmvWnOfTzgUfiBocww8lDzLZtiyiJH39SfPLztMQEsjcSziZTUxB/acp9o0jlaHnMEQzkGlLIPSMCk6lMqobQ6KsWghS4Cbsize0R/k+zRVdncGh/oUJpcHi9l+D9VVMkYyjHcRSDKkbay+Zaf02dTzn8Ih7bcL0bozqoW1J92q4iW8hkm/SxH5slG39SsKwdURUWPRoVlKDUSls2qV4ChVK8d59RIAYZSI2HZrHoFGEr12nFOjRRgKDUSls2qV4ChVK8d59RIAYZSI2HZrHoFGEr12nFOjRRgKDUSls2qV4ChVK8d59RIAYZSI2HZrHoFGEr12nFOjRRgKDUSls2qV4ChVK8d59RIAYZSI2HZrHoFGEr12nFOjRRgKDUSls2qV4ChVK8d59RIAYZSI2HZrHoFGEr12nFOjRRgKDUSls2qV2AUlOpNcU5WIH8KWNyT5s+zlZSvDA/53Pkzy5ZYAfUK/D+BKyxrMm0WIAAAAABJRU5ErkJggg==;" parent="1" vertex="1">
          <mxGeometry x="2330" y="475" width="165" height="219" as="geometry" />
        </mxCell>
        <mxCell id="PJWs02H1WUagGIbA9iWr-31" style="edgeStyle=orthogonalEdgeStyle;rounded=0;orthogonalLoop=1;jettySize=auto;html=1;exitDx=0;exitDy=0;entryX=0.007;entryY=0.198;entryDx=0;entryDy=0;entryPerimeter=0;" parent="1" source="PJWs02H1WUagGIbA9iWr-42" target="4koaPTSwhBmFynQigVtt-41" edge="1">
          <mxGeometry relative="1" as="geometry" />
        </mxCell>
        <mxCell id="4koaPTSwhBmFynQigVtt-42" value="R" style="rounded=0;whiteSpace=wrap;html=1;" parent="1" vertex="1">
          <mxGeometry x="2067" y="507.69" width="30" height="90.12" as="geometry" />
        </mxCell>
        <mxCell id="PJWs02H1WUagGIbA9iWr-32" style="edgeStyle=orthogonalEdgeStyle;rounded=0;orthogonalLoop=1;jettySize=auto;html=1;exitX=1;exitY=0.5;exitDx=0;exitDy=0;entryX=-0.017;entryY=0.649;entryDx=0;entryDy=0;entryPerimeter=0;" parent="1" source="4koaPTSwhBmFynQigVtt-43" target="4koaPTSwhBmFynQigVtt-41" edge="1">
          <mxGeometry relative="1" as="geometry" />
        </mxCell>
        <mxCell id="4koaPTSwhBmFynQigVtt-43" value="D" style="rounded=0;whiteSpace=wrap;html=1;" parent="1" vertex="1">
          <mxGeometry x="2067" y="595.07" width="30" height="90.12" as="geometry" />
        </mxCell>
        <mxCell id="PJWs02H1WUagGIbA9iWr-37" style="edgeStyle=orthogonalEdgeStyle;rounded=0;orthogonalLoop=1;jettySize=auto;html=1;exitX=1;exitY=0.5;exitDx=0;exitDy=0;entryX=0;entryY=0.5;entryDx=0;entryDy=0;" parent="1" source="4koaPTSwhBmFynQigVtt-44" target="PJWs02H1WUagGIbA9iWr-34" edge="1">
          <mxGeometry relative="1" as="geometry">
            <Array as="points">
              <mxPoint x="2110" y="710" />
              <mxPoint x="2110" y="770" />
              <mxPoint x="2620" y="770" />
              <mxPoint x="2620" y="619" />
            </Array>
          </mxGeometry>
        </mxCell>
        <mxCell id="4koaPTSwhBmFynQigVtt-44" value="Rd" style="rounded=0;whiteSpace=wrap;html=1;" parent="1" vertex="1">
          <mxGeometry x="2067" y="685.19" width="30" height="48.87" as="geometry" />
        </mxCell>
        <mxCell id="PJWs02H1WUagGIbA9iWr-27" style="edgeStyle=orthogonalEdgeStyle;rounded=0;orthogonalLoop=1;jettySize=auto;html=1;exitX=1;exitY=0.5;exitDx=0;exitDy=0;entryX=0.068;entryY=0.238;entryDx=0;entryDy=0;entryPerimeter=0;" parent="1" source="4koaPTSwhBmFynQigVtt-45" target="4koaPTSwhBmFynQigVtt-36" edge="1">
          <mxGeometry relative="1" as="geometry" />
        </mxCell>
        <mxCell id="4koaPTSwhBmFynQigVtt-45" value="S1" style="rounded=0;whiteSpace=wrap;html=1;" parent="1" vertex="1">
          <mxGeometry x="1400" y="446.51" width="30" height="90.12" as="geometry" />
        </mxCell>
        <mxCell id="PJWs02H1WUagGIbA9iWr-28" style="edgeStyle=orthogonalEdgeStyle;rounded=0;orthogonalLoop=1;jettySize=auto;html=1;exitX=1;exitY=0.5;exitDx=0;exitDy=0;entryX=0;entryY=0.5;entryDx=0;entryDy=0;" parent="1" source="4koaPTSwhBmFynQigVtt-46" target="4koaPTSwhBmFynQigVtt-40" edge="1">
          <mxGeometry relative="1" as="geometry">
            <Array as="points">
              <mxPoint x="1470" y="583" />
              <mxPoint x="1470" y="662" />
            </Array>
          </mxGeometry>
        </mxCell>
        <mxCell id="KmyLcMkFUDTkIue-pYeN-1" style="edgeStyle=orthogonalEdgeStyle;rounded=0;orthogonalLoop=1;jettySize=auto;html=1;exitX=1;exitY=0.75;exitDx=0;exitDy=0;entryX=0;entryY=0.5;entryDx=0;entryDy=0;" parent="1" source="4koaPTSwhBmFynQigVtt-46" target="4koaPTSwhBmFynQigVtt-43" edge="1">
          <mxGeometry relative="1" as="geometry">
            <Array as="points">
              <mxPoint x="1749" y="605" />
              <mxPoint x="1749" y="770" />
              <mxPoint x="2030" y="770" />
              <mxPoint x="2030" y="640" />
            </Array>
          </mxGeometry>
        </mxCell>
        <mxCell id="4koaPTSwhBmFynQigVtt-46" value="S2" style="rounded=0;whiteSpace=wrap;html=1;" parent="1" vertex="1">
          <mxGeometry x="1400" y="537.64" width="30" height="90.12" as="geometry" />
        </mxCell>
        <mxCell id="PJWs02H1WUagGIbA9iWr-36" style="edgeStyle=orthogonalEdgeStyle;rounded=0;orthogonalLoop=1;jettySize=auto;html=1;exitX=1;exitY=0.5;exitDx=0;exitDy=0;entryX=0;entryY=0.5;entryDx=0;entryDy=0;" parent="1" source="4koaPTSwhBmFynQigVtt-47" target="4koaPTSwhBmFynQigVtt-44" edge="1">
          <mxGeometry relative="1" as="geometry">
            <Array as="points">
              <mxPoint x="1450" y="652" />
              <mxPoint x="1450" y="810" />
              <mxPoint x="2050" y="810" />
              <mxPoint x="2050" y="710" />
            </Array>
          </mxGeometry>
        </mxCell>
        <mxCell id="4koaPTSwhBmFynQigVtt-47" value="Rd" style="rounded=0;whiteSpace=wrap;html=1;" parent="1" vertex="1">
          <mxGeometry x="1400" y="627.76" width="30" height="48.87" as="geometry" />
        </mxCell>
        <mxCell id="PJWs02H1WUagGIbA9iWr-26" style="edgeStyle=orthogonalEdgeStyle;rounded=0;orthogonalLoop=1;jettySize=auto;html=1;exitX=1;exitY=0.5;exitDx=0;exitDy=0;entryX=0;entryY=0.5;entryDx=0;entryDy=0;" parent="1" source="4koaPTSwhBmFynQigVtt-48" target="4koaPTSwhBmFynQigVtt-39" edge="1">
          <mxGeometry relative="1" as="geometry">
            <Array as="points">
              <mxPoint x="1490" y="400" />
              <mxPoint x="1490" y="622" />
            </Array>
          </mxGeometry>
        </mxCell>
        <mxCell id="4koaPTSwhBmFynQigVtt-48" value="SHA" style="rounded=0;whiteSpace=wrap;html=1;" parent="1" vertex="1">
          <mxGeometry x="1400" y="354.58000000000004" width="30" height="90.12" as="geometry" />
        </mxCell>
        <mxCell id="PJWs02H1WUagGIbA9iWr-25" style="edgeStyle=orthogonalEdgeStyle;rounded=0;orthogonalLoop=1;jettySize=auto;html=1;exitX=1;exitY=0.5;exitDx=0;exitDy=0;entryX=0;entryY=0.5;entryDx=0;entryDy=0;" parent="1" source="4koaPTSwhBmFynQigVtt-49" target="4koaPTSwhBmFynQigVtt-38" edge="1">
          <mxGeometry relative="1" as="geometry" />
        </mxCell>
        <mxCell id="4koaPTSwhBmFynQigVtt-49" value="Imm" style="rounded=0;whiteSpace=wrap;html=1;" parent="1" vertex="1">
          <mxGeometry x="1400" y="271.57000000000005" width="30" height="90.12" as="geometry" />
        </mxCell>
        <mxCell id="PJWs02H1WUagGIbA9iWr-39" style="edgeStyle=orthogonalEdgeStyle;rounded=0;orthogonalLoop=1;jettySize=auto;html=1;exitDx=0;exitDy=0;" parent="1" source="PJWs02H1WUagGIbA9iWr-81" target="PJWs02H1WUagGIbA9iWr-33" edge="1">
          <mxGeometry relative="1" as="geometry" />
        </mxCell>
        <mxCell id="4koaPTSwhBmFynQigVtt-50" value="mux" style="shape=loopLimit;whiteSpace=wrap;html=1;rotation=90;fillColor=#ffe6cc;strokeColor=#d79b00;" parent="1" vertex="1">
          <mxGeometry x="2560" y="515" width="65" height="34.5" as="geometry" />
        </mxCell>
        <mxCell id="4koaPTSwhBmFynQigVtt-51" value="0" style="text;html=1;strokeColor=none;fillColor=none;align=center;verticalAlign=middle;whiteSpace=wrap;rounded=0;" parent="1" vertex="1">
          <mxGeometry x="2574.75" y="494.88" width="20" height="30" as="geometry" />
        </mxCell>
        <mxCell id="4koaPTSwhBmFynQigVtt-52" value="1" style="text;html=1;strokeColor=none;fillColor=none;align=center;verticalAlign=middle;whiteSpace=wrap;rounded=0;" parent="1" vertex="1">
          <mxGeometry x="2574.75" y="533.25" width="20" height="30" as="geometry" />
        </mxCell>
        <mxCell id="2bNVYI1MK1_DozGiR_B5-13" style="edgeStyle=orthogonalEdgeStyle;rounded=0;orthogonalLoop=1;jettySize=auto;html=1;strokeWidth=2;" parent="1" source="PJWs02H1WUagGIbA9iWr-1" target="PJWs02H1WUagGIbA9iWr-2" edge="1">
          <mxGeometry relative="1" as="geometry" />
        </mxCell>
        <mxCell id="2bNVYI1MK1_DozGiR_B5-15" style="edgeStyle=orthogonalEdgeStyle;rounded=0;orthogonalLoop=1;jettySize=auto;html=1;exitX=0.25;exitY=0;exitDx=0;exitDy=0;entryX=0.5;entryY=1;entryDx=0;entryDy=0;fillColor=#f8cecc;strokeColor=#b85450;" parent="1" source="PJWs02H1WUagGIbA9iWr-1" target="4koaPTSwhBmFynQigVtt-32" edge="1">
          <mxGeometry relative="1" as="geometry">
            <Array as="points">
              <mxPoint x="1470" y="1073" />
              <mxPoint x="1470" y="861" />
              <mxPoint x="982" y="861" />
            </Array>
          </mxGeometry>
        </mxCell>
        <mxCell id="2bNVYI1MK1_DozGiR_B5-17" style="edgeStyle=orthogonalEdgeStyle;rounded=0;orthogonalLoop=1;jettySize=auto;html=1;exitX=1;exitY=0.25;exitDx=0;exitDy=0;entryX=1;entryY=0.75;entryDx=0;entryDy=0;fillColor=#f8cecc;strokeColor=#b85450;" parent="1" source="PJWs02H1WUagGIbA9iWr-1" target="4koaPTSwhBmFynQigVtt-37" edge="1">
          <mxGeometry relative="1" as="geometry" />
        </mxCell>
        <mxCell id="2bNVYI1MK1_DozGiR_B5-18" style="edgeStyle=orthogonalEdgeStyle;rounded=0;orthogonalLoop=1;jettySize=auto;html=1;exitX=1;exitY=0;exitDx=0;exitDy=0;entryX=0.42;entryY=1.013;entryDx=0;entryDy=0;entryPerimeter=0;fillColor=#f8cecc;strokeColor=#b85450;strokeWidth=2;" parent="1" source="PJWs02H1WUagGIbA9iWr-1" target="4koaPTSwhBmFynQigVtt-36" edge="1">
          <mxGeometry relative="1" as="geometry" />
        </mxCell>
        <mxCell id="2bNVYI1MK1_DozGiR_B5-23" style="edgeStyle=orthogonalEdgeStyle;rounded=0;orthogonalLoop=1;jettySize=auto;html=1;exitX=0.5;exitY=0;exitDx=0;exitDy=0;entryX=0.75;entryY=0;entryDx=0;entryDy=0;fillColor=#f8cecc;strokeColor=#b85450;" parent="1" source="PJWs02H1WUagGIbA9iWr-1" target="PJWs02H1WUagGIbA9iWr-90" edge="1">
          <mxGeometry relative="1" as="geometry">
            <Array as="points">
              <mxPoint x="1500" y="1073" />
              <mxPoint x="1500" y="330" />
              <mxPoint x="1151" y="330" />
            </Array>
          </mxGeometry>
        </mxCell>
        <mxCell id="PJWs02H1WUagGIbA9iWr-1" value="Ex" style="whiteSpace=wrap;html=1;aspect=fixed;" parent="1" vertex="1">
          <mxGeometry x="1480" y="1072.5" width="60" height="60" as="geometry" />
        </mxCell>
        <mxCell id="2bNVYI1MK1_DozGiR_B5-14" style="edgeStyle=orthogonalEdgeStyle;rounded=0;orthogonalLoop=1;jettySize=auto;html=1;strokeWidth=2;" parent="1" source="PJWs02H1WUagGIbA9iWr-2" target="PJWs02H1WUagGIbA9iWr-3" edge="1">
          <mxGeometry relative="1" as="geometry" />
        </mxCell>
        <mxCell id="2bNVYI1MK1_DozGiR_B5-19" style="edgeStyle=orthogonalEdgeStyle;rounded=0;orthogonalLoop=1;jettySize=auto;html=1;exitX=0.5;exitY=0;exitDx=0;exitDy=0;entryX=0.63;entryY=-0.003;entryDx=0;entryDy=0;entryPerimeter=0;fillColor=#f8cecc;strokeColor=#b85450;" parent="1" source="PJWs02H1WUagGIbA9iWr-2" target="4koaPTSwhBmFynQigVtt-41" edge="1">
          <mxGeometry relative="1" as="geometry">
            <Array as="points">
              <mxPoint x="2180" y="1073" />
              <mxPoint x="2180" y="400" />
              <mxPoint x="2434" y="400" />
            </Array>
          </mxGeometry>
        </mxCell>
        <mxCell id="2bNVYI1MK1_DozGiR_B5-20" style="edgeStyle=orthogonalEdgeStyle;rounded=0;orthogonalLoop=1;jettySize=auto;html=1;exitX=0.75;exitY=0;exitDx=0;exitDy=0;entryX=0.856;entryY=-0.003;entryDx=0;entryDy=0;entryPerimeter=0;fillColor=#f8cecc;strokeColor=#b85450;" parent="1" source="PJWs02H1WUagGIbA9iWr-2" target="4koaPTSwhBmFynQigVtt-41" edge="1">
          <mxGeometry relative="1" as="geometry">
            <Array as="points">
              <mxPoint x="2140" y="1073" />
              <mxPoint x="2140" y="340" />
              <mxPoint x="2471" y="340" />
            </Array>
          </mxGeometry>
        </mxCell>
        <mxCell id="2bNVYI1MK1_DozGiR_B5-21" style="edgeStyle=orthogonalEdgeStyle;rounded=0;orthogonalLoop=1;jettySize=auto;html=1;exitX=1;exitY=0.25;exitDx=0;exitDy=0;entryX=0.5;entryY=1;entryDx=0;entryDy=0;fillColor=#f8cecc;strokeColor=#b85450;" parent="1" source="PJWs02H1WUagGIbA9iWr-2" target="4koaPTSwhBmFynQigVtt-52" edge="1">
          <mxGeometry relative="1" as="geometry">
            <Array as="points">
              <mxPoint x="2520" y="1087" />
              <mxPoint x="2520" y="580" />
              <mxPoint x="2585" y="580" />
            </Array>
          </mxGeometry>
        </mxCell>
        <mxCell id="PJWs02H1WUagGIbA9iWr-2" value="Mem" style="whiteSpace=wrap;html=1;aspect=fixed;" parent="1" vertex="1">
          <mxGeometry x="2140" y="1072.5" width="60" height="60" as="geometry" />
        </mxCell>
        <mxCell id="2bNVYI1MK1_DozGiR_B5-22" style="edgeStyle=orthogonalEdgeStyle;rounded=0;orthogonalLoop=1;jettySize=auto;html=1;exitX=0.5;exitY=0;exitDx=0;exitDy=0;entryX=0.123;entryY=1.003;entryDx=0;entryDy=0;entryPerimeter=0;fillColor=#f8cecc;strokeColor=#b85450;" parent="1" source="PJWs02H1WUagGIbA9iWr-3" target="4koaPTSwhBmFynQigVtt-34" edge="1">
          <mxGeometry relative="1" as="geometry">
            <Array as="points">
              <mxPoint x="2585" y="960" />
              <mxPoint x="1120" y="960" />
            </Array>
          </mxGeometry>
        </mxCell>
        <mxCell id="PJWs02H1WUagGIbA9iWr-3" value="WB" style="whiteSpace=wrap;html=1;aspect=fixed;" parent="1" vertex="1">
          <mxGeometry x="2554.75" y="1072.5" width="60" height="60" as="geometry" />
        </mxCell>
        <mxCell id="PJWs02H1WUagGIbA9iWr-17" style="edgeStyle=orthogonalEdgeStyle;rounded=0;orthogonalLoop=1;jettySize=auto;html=1;exitX=1;exitY=0.75;exitDx=0;exitDy=0;entryX=0;entryY=0.5;entryDx=0;entryDy=0;" parent="1" source="PJWs02H1WUagGIbA9iWr-9" target="4koaPTSwhBmFynQigVtt-31" edge="1">
          <mxGeometry relative="1" as="geometry" />
        </mxCell>
        <mxCell id="PJWs02H1WUagGIbA9iWr-22" style="edgeStyle=orthogonalEdgeStyle;rounded=0;orthogonalLoop=1;jettySize=auto;html=1;exitX=1;exitY=0.25;exitDx=0;exitDy=0;entryX=-0.004;entryY=0.116;entryDx=0;entryDy=0;entryPerimeter=0;" parent="1" source="PJWs02H1WUagGIbA9iWr-9" target="4koaPTSwhBmFynQigVtt-34" edge="1">
          <mxGeometry relative="1" as="geometry">
            <Array as="points">
              <mxPoint x="890" y="450" />
              <mxPoint x="995" y="450" />
              <mxPoint x="995" y="483" />
            </Array>
          </mxGeometry>
        </mxCell>
        <mxCell id="PJWs02H1WUagGIbA9iWr-35" style="edgeStyle=orthogonalEdgeStyle;rounded=0;orthogonalLoop=1;jettySize=auto;html=1;exitX=1;exitY=0.5;exitDx=0;exitDy=0;entryX=0;entryY=0.5;entryDx=0;entryDy=0;" parent="1" source="PJWs02H1WUagGIbA9iWr-9" target="4koaPTSwhBmFynQigVtt-47" edge="1">
          <mxGeometry relative="1" as="geometry">
            <Array as="points">
              <mxPoint x="1030" y="555" />
              <mxPoint x="1030" y="710" />
              <mxPoint x="1370" y="710" />
              <mxPoint x="1370" y="652" />
            </Array>
          </mxGeometry>
        </mxCell>
        <mxCell id="PJWs02H1WUagGIbA9iWr-143" style="edgeStyle=orthogonalEdgeStyle;rounded=0;orthogonalLoop=1;jettySize=auto;html=1;exitDx=0;exitDy=0;strokeWidth=3;entryX=0.625;entryY=0;entryDx=0;entryDy=0;" parent="1" source="2bNVYI1MK1_DozGiR_B5-4" target="PJWs02H1WUagGIbA9iWr-144" edge="1">
          <mxGeometry relative="1" as="geometry">
            <mxPoint x="1199.4871794871794" y="1020" as="targetPoint" />
            <Array as="points">
              <mxPoint x="997" y="1010" />
            </Array>
          </mxGeometry>
        </mxCell>
        <mxCell id="vY5lLP2O3jn33NDwaVuw-4" style="edgeStyle=orthogonalEdgeStyle;rounded=0;orthogonalLoop=1;jettySize=auto;html=1;entryX=0;entryY=0.5;entryDx=0;entryDy=0;" edge="1" parent="1" source="PJWs02H1WUagGIbA9iWr-9" target="vY5lLP2O3jn33NDwaVuw-3">
          <mxGeometry relative="1" as="geometry">
            <Array as="points">
              <mxPoint x="885" y="285" />
            </Array>
          </mxGeometry>
        </mxCell>
        <mxCell id="PJWs02H1WUagGIbA9iWr-9" value="" style="rounded=0;whiteSpace=wrap;html=1;fillColor=#080808;" parent="1" vertex="1">
          <mxGeometry x="880" y="340" width="10" height="360" as="geometry" />
        </mxCell>
        <mxCell id="PJWs02H1WUagGIbA9iWr-21" style="edgeStyle=orthogonalEdgeStyle;rounded=0;orthogonalLoop=1;jettySize=auto;html=1;exitX=0.5;exitY=1;exitDx=0;exitDy=0;entryX=0;entryY=0.5;entryDx=0;entryDy=0;" parent="1" source="PJWs02H1WUagGIbA9iWr-20" target="4koaPTSwhBmFynQigVtt-32" edge="1">
          <mxGeometry relative="1" as="geometry" />
        </mxCell>
        <mxCell id="PJWs02H1WUagGIbA9iWr-20" value="." style="text;html=1;strokeColor=none;fillColor=none;align=center;verticalAlign=middle;whiteSpace=wrap;rounded=0;" parent="1" vertex="1">
          <mxGeometry x="942.5" y="550" width="15" height="5.5" as="geometry" />
        </mxCell>
        <mxCell id="PJWs02H1WUagGIbA9iWr-33" value="D" style="rounded=0;whiteSpace=wrap;html=1;" parent="1" vertex="1">
          <mxGeometry x="2670" y="503.94000000000005" width="30" height="90.12" as="geometry" />
        </mxCell>
        <mxCell id="PJWs02H1WUagGIbA9iWr-62" style="edgeStyle=orthogonalEdgeStyle;rounded=0;orthogonalLoop=1;jettySize=auto;html=1;exitDx=0;exitDy=0;entryX=0.848;entryY=0.993;entryDx=0;entryDy=0;entryPerimeter=0;strokeWidth=3;startArrow=none;startFill=0;" parent="1" source="PJWs02H1WUagGIbA9iWr-64" target="4koaPTSwhBmFynQigVtt-34" edge="1">
          <mxGeometry relative="1" as="geometry">
            <Array as="points" />
          </mxGeometry>
        </mxCell>
        <mxCell id="PJWs02H1WUagGIbA9iWr-142" style="edgeStyle=orthogonalEdgeStyle;rounded=0;orthogonalLoop=1;jettySize=auto;html=1;exitX=1;exitY=0.5;exitDx=0;exitDy=0;entryX=-0.018;entryY=0.406;entryDx=0;entryDy=0;entryPerimeter=0;" parent="1" source="PJWs02H1WUagGIbA9iWr-34" target="4koaPTSwhBmFynQigVtt-34" edge="1">
          <mxGeometry relative="1" as="geometry">
            <mxPoint x="1280" y="850" as="targetPoint" />
            <Array as="points">
              <mxPoint x="2831" y="619" />
              <mxPoint x="2831" y="850" />
              <mxPoint x="1080" y="850" />
              <mxPoint x="1080" y="531" />
            </Array>
          </mxGeometry>
        </mxCell>
        <mxCell id="PJWs02H1WUagGIbA9iWr-34" value="Rd" style="rounded=0;whiteSpace=wrap;html=1;" parent="1" vertex="1">
          <mxGeometry x="2670" y="594.0600000000001" width="30" height="48.87" as="geometry" />
        </mxCell>
        <mxCell id="PJWs02H1WUagGIbA9iWr-43" value="" style="rounded=0;orthogonalLoop=1;jettySize=auto;html=1;exitX=1;exitY=0.5;exitDx=0;exitDy=0;entryDx=0;entryDy=0;entryPerimeter=0;edgeStyle=orthogonalEdgeStyle;endArrow=none;endFill=0;" parent="1" source="4koaPTSwhBmFynQigVtt-42" target="PJWs02H1WUagGIbA9iWr-42" edge="1">
          <mxGeometry relative="1" as="geometry">
            <mxPoint x="2097" y="549" as="sourcePoint" />
            <mxPoint x="2331" y="518" as="targetPoint" />
          </mxGeometry>
        </mxCell>
        <mxCell id="PJWs02H1WUagGIbA9iWr-44" style="edgeStyle=orthogonalEdgeStyle;rounded=0;orthogonalLoop=1;jettySize=auto;html=1;entryX=0;entryY=0.5;entryDx=0;entryDy=0;" parent="1" source="PJWs02H1WUagGIbA9iWr-42" target="4koaPTSwhBmFynQigVtt-51" edge="1">
          <mxGeometry relative="1" as="geometry">
            <Array as="points">
              <mxPoint x="2250" y="450" />
              <mxPoint x="2560" y="450" />
              <mxPoint x="2560" y="510" />
            </Array>
          </mxGeometry>
        </mxCell>
        <mxCell id="PJWs02H1WUagGIbA9iWr-42" value="" style="shape=waypoint;sketch=0;fillStyle=solid;size=6;pointerEvents=1;points=[];fillColor=none;resizable=0;rotatable=0;perimeter=centerPerimeter;snapToPoint=1;" parent="1" vertex="1">
          <mxGeometry x="2240" y="512.13" width="20" height="20" as="geometry" />
        </mxCell>
        <mxCell id="PJWs02H1WUagGIbA9iWr-88" style="edgeStyle=orthogonalEdgeStyle;rounded=0;orthogonalLoop=1;jettySize=auto;html=1;exitX=0.5;exitY=0;exitDx=0;exitDy=0;entryX=0;entryY=0.5;entryDx=0;entryDy=0;" parent="1" source="PJWs02H1WUagGIbA9iWr-46" target="4koaPTSwhBmFynQigVtt-45" edge="1">
          <mxGeometry relative="1" as="geometry" />
        </mxCell>
        <mxCell id="PJWs02H1WUagGIbA9iWr-46" value="" style="shape=loopLimit;whiteSpace=wrap;html=1;rotation=90;fillColor=#ffe6cc;strokeColor=#d79b00;" parent="1" vertex="1">
          <mxGeometry x="1294.38" y="482.81" width="105.62" height="23.26" as="geometry" />
        </mxCell>
        <mxCell id="PJWs02H1WUagGIbA9iWr-47" value="0" style="text;html=1;strokeColor=none;fillColor=none;align=center;verticalAlign=middle;whiteSpace=wrap;rounded=0;" parent="1" vertex="1">
          <mxGeometry x="1335.0600000000002" y="447.13" width="20" height="30" as="geometry" />
        </mxCell>
        <mxCell id="PJWs02H1WUagGIbA9iWr-79" style="edgeStyle=orthogonalEdgeStyle;rounded=0;orthogonalLoop=1;jettySize=auto;html=1;exitX=0;exitY=0.5;exitDx=0;exitDy=0;entryX=1;entryY=0.666;entryDx=0;entryDy=0;entryPerimeter=0;endArrow=none;endFill=0;startArrow=classic;startFill=1;" parent="1" source="PJWs02H1WUagGIbA9iWr-48" target="PJWs02H1WUagGIbA9iWr-78" edge="1">
          <mxGeometry relative="1" as="geometry" />
        </mxCell>
        <mxCell id="PJWs02H1WUagGIbA9iWr-48" value="1" style="text;html=1;strokeColor=none;fillColor=none;align=center;verticalAlign=middle;whiteSpace=wrap;rounded=0;" parent="1" vertex="1">
          <mxGeometry x="1335.0600000000002" y="468.25" width="20" height="30" as="geometry" />
        </mxCell>
        <mxCell id="PJWs02H1WUagGIbA9iWr-49" value="2" style="text;html=1;strokeColor=none;fillColor=none;align=center;verticalAlign=middle;whiteSpace=wrap;rounded=0;" parent="1" vertex="1">
          <mxGeometry x="1335.0600000000002" y="491.63" width="20" height="30" as="geometry" />
        </mxCell>
        <mxCell id="PJWs02H1WUagGIbA9iWr-53" value="3" style="text;html=1;strokeColor=none;fillColor=none;align=center;verticalAlign=middle;whiteSpace=wrap;rounded=0;" parent="1" vertex="1">
          <mxGeometry x="1335.0600000000002" y="512.75" width="20" height="30" as="geometry" />
        </mxCell>
        <mxCell id="PJWs02H1WUagGIbA9iWr-87" style="edgeStyle=orthogonalEdgeStyle;rounded=0;orthogonalLoop=1;jettySize=auto;html=1;exitX=0.5;exitY=0;exitDx=0;exitDy=0;entryX=0;entryY=0.5;entryDx=0;entryDy=0;" parent="1" source="PJWs02H1WUagGIbA9iWr-54" target="4koaPTSwhBmFynQigVtt-46" edge="1">
          <mxGeometry relative="1" as="geometry" />
        </mxCell>
        <mxCell id="PJWs02H1WUagGIbA9iWr-54" value="" style="shape=loopLimit;whiteSpace=wrap;html=1;rotation=90;fillColor=#ffe6cc;strokeColor=#d79b00;" parent="1" vertex="1">
          <mxGeometry x="1294.38" y="598.43" width="105.62" height="23.26" as="geometry" />
        </mxCell>
        <mxCell id="PJWs02H1WUagGIbA9iWr-55" value="0" style="text;html=1;strokeColor=none;fillColor=none;align=center;verticalAlign=middle;whiteSpace=wrap;rounded=0;" parent="1" vertex="1">
          <mxGeometry x="1335.0600000000002" y="562.75" width="20" height="30" as="geometry" />
        </mxCell>
        <mxCell id="PJWs02H1WUagGIbA9iWr-56" value="1" style="text;html=1;strokeColor=none;fillColor=none;align=center;verticalAlign=middle;whiteSpace=wrap;rounded=0;" parent="1" vertex="1">
          <mxGeometry x="1335.0600000000002" y="583.87" width="20" height="30" as="geometry" />
        </mxCell>
        <mxCell id="PJWs02H1WUagGIbA9iWr-57" value="2" style="text;html=1;strokeColor=none;fillColor=none;align=center;verticalAlign=middle;whiteSpace=wrap;rounded=0;" parent="1" vertex="1">
          <mxGeometry x="1335.0600000000002" y="607.25" width="20" height="30" as="geometry" />
        </mxCell>
        <mxCell id="PJWs02H1WUagGIbA9iWr-58" value="3" style="text;html=1;strokeColor=none;fillColor=none;align=center;verticalAlign=middle;whiteSpace=wrap;rounded=0;" parent="1" vertex="1">
          <mxGeometry x="1335.0600000000002" y="628.37" width="20" height="30" as="geometry" />
        </mxCell>
        <mxCell id="PJWs02H1WUagGIbA9iWr-65" value="" style="edgeStyle=orthogonalEdgeStyle;rounded=0;orthogonalLoop=1;jettySize=auto;html=1;exitX=1;exitY=0.5;exitDx=0;exitDy=0;entryDx=0;entryDy=0;entryPerimeter=0;strokeWidth=3;endArrow=none;endFill=0;" parent="1" source="PJWs02H1WUagGIbA9iWr-33" target="PJWs02H1WUagGIbA9iWr-64" edge="1">
          <mxGeometry relative="1" as="geometry">
            <mxPoint x="2700" y="618" as="sourcePoint" />
            <mxPoint x="1240" y="630" as="targetPoint" />
            <Array as="points">
              <mxPoint x="2750" y="549" />
              <mxPoint x="2750" y="830" />
            </Array>
          </mxGeometry>
        </mxCell>
        <mxCell id="PJWs02H1WUagGIbA9iWr-66" style="edgeStyle=orthogonalEdgeStyle;rounded=0;orthogonalLoop=1;jettySize=auto;html=1;entryX=0;entryY=0.5;entryDx=0;entryDy=0;" parent="1" source="PJWs02H1WUagGIbA9iWr-67" target="PJWs02H1WUagGIbA9iWr-53" edge="1">
          <mxGeometry relative="1" as="geometry">
            <Array as="points">
              <mxPoint x="1280" y="646" />
              <mxPoint x="1280" y="528" />
            </Array>
          </mxGeometry>
        </mxCell>
        <mxCell id="PJWs02H1WUagGIbA9iWr-64" value="" style="shape=waypoint;sketch=0;fillStyle=solid;size=6;pointerEvents=1;points=[];fillColor=none;resizable=0;rotatable=0;perimeter=centerPerimeter;snapToPoint=1;" parent="1" vertex="1">
          <mxGeometry x="1287.25" y="820" width="20" height="20" as="geometry" />
        </mxCell>
        <mxCell id="PJWs02H1WUagGIbA9iWr-68" value="" style="edgeStyle=orthogonalEdgeStyle;rounded=0;orthogonalLoop=1;jettySize=auto;html=1;entryDx=0;entryDy=0;endArrow=none;endFill=0;" parent="1" source="PJWs02H1WUagGIbA9iWr-64" target="PJWs02H1WUagGIbA9iWr-67" edge="1">
          <mxGeometry relative="1" as="geometry">
            <mxPoint x="1297" y="830" as="sourcePoint" />
            <mxPoint x="1307" y="527" as="targetPoint" />
            <Array as="points">
              <mxPoint x="1280" y="830" />
              <mxPoint x="1280" y="646" />
            </Array>
          </mxGeometry>
        </mxCell>
        <mxCell id="PJWs02H1WUagGIbA9iWr-69" style="edgeStyle=orthogonalEdgeStyle;rounded=0;orthogonalLoop=1;jettySize=auto;html=1;entryX=0;entryY=0.5;entryDx=0;entryDy=0;" parent="1" source="PJWs02H1WUagGIbA9iWr-67" target="PJWs02H1WUagGIbA9iWr-58" edge="1">
          <mxGeometry relative="1" as="geometry" />
        </mxCell>
        <mxCell id="PJWs02H1WUagGIbA9iWr-67" value="" style="shape=waypoint;sketch=0;fillStyle=solid;size=6;pointerEvents=1;points=[];fillColor=none;resizable=0;rotatable=0;perimeter=centerPerimeter;snapToPoint=1;" parent="1" vertex="1">
          <mxGeometry x="1280" y="636.25" width="20" height="20" as="geometry" />
        </mxCell>
        <mxCell id="PJWs02H1WUagGIbA9iWr-71" value="" style="edgeStyle=orthogonalEdgeStyle;rounded=0;orthogonalLoop=1;jettySize=auto;html=1;exitX=1;exitY=0.5;exitDx=0;exitDy=0;entryDx=0;entryDy=0;endArrow=none;endFill=0;" parent="1" source="4koaPTSwhBmFynQigVtt-36" target="PJWs02H1WUagGIbA9iWr-70" edge="1">
          <mxGeometry relative="1" as="geometry">
            <mxPoint x="1860" y="580" as="sourcePoint" />
            <mxPoint x="2067" y="549" as="targetPoint" />
          </mxGeometry>
        </mxCell>
        <mxCell id="PJWs02H1WUagGIbA9iWr-72" style="edgeStyle=orthogonalEdgeStyle;rounded=0;orthogonalLoop=1;jettySize=auto;html=1;entryX=0;entryY=0.5;entryDx=0;entryDy=0;" parent="1" target="PJWs02H1WUagGIbA9iWr-56" edge="1">
          <mxGeometry relative="1" as="geometry">
            <mxPoint x="1310" y="490" as="targetPoint" />
            <mxPoint x="1300.0000000000002" y="506" as="sourcePoint" />
            <Array as="points">
              <mxPoint x="1300" y="599" />
              <mxPoint x="1310" y="599" />
            </Array>
          </mxGeometry>
        </mxCell>
        <mxCell id="PJWs02H1WUagGIbA9iWr-70" value="" style="shape=waypoint;sketch=0;fillStyle=solid;size=6;pointerEvents=1;points=[];fillColor=none;resizable=0;rotatable=0;perimeter=centerPerimeter;snapToPoint=1;" parent="1" vertex="1">
          <mxGeometry x="1940" y="565" width="20" height="20" as="geometry" />
        </mxCell>
        <mxCell id="PJWs02H1WUagGIbA9iWr-73" value="" style="edgeStyle=orthogonalEdgeStyle;rounded=0;orthogonalLoop=1;jettySize=auto;html=1;entryDx=0;entryDy=0;endArrow=none;endFill=0;strokeColor=#006600;" parent="1" source="PJWs02H1WUagGIbA9iWr-70" edge="1">
          <mxGeometry relative="1" as="geometry">
            <mxPoint x="1300.0000000000002" y="506" as="targetPoint" />
            <mxPoint x="1950" y="575" as="sourcePoint" />
            <Array as="points">
              <mxPoint x="1950" y="260" />
              <mxPoint x="1300" y="260" />
            </Array>
          </mxGeometry>
        </mxCell>
        <mxCell id="PJWs02H1WUagGIbA9iWr-78" value="" style="shape=waypoint;sketch=0;fillStyle=solid;size=6;pointerEvents=1;points=[];fillColor=none;resizable=0;rotatable=0;perimeter=centerPerimeter;snapToPoint=1;" parent="1" vertex="1">
          <mxGeometry x="1290" y="469.88" width="20" height="20" as="geometry" />
        </mxCell>
        <mxCell id="PJWs02H1WUagGIbA9iWr-82" value="" style="edgeStyle=orthogonalEdgeStyle;rounded=0;orthogonalLoop=1;jettySize=auto;html=1;exitX=0.5;exitY=0;exitDx=0;exitDy=0;endArrow=none;endFill=0;" parent="1" source="4koaPTSwhBmFynQigVtt-50" target="PJWs02H1WUagGIbA9iWr-81" edge="1">
          <mxGeometry relative="1" as="geometry">
            <mxPoint x="2610" y="532" as="sourcePoint" />
            <mxPoint x="2670" y="549" as="targetPoint" />
          </mxGeometry>
        </mxCell>
        <mxCell id="PJWs02H1WUagGIbA9iWr-83" style="edgeStyle=orthogonalEdgeStyle;rounded=0;orthogonalLoop=1;jettySize=auto;html=1;entryX=0;entryY=0.5;entryDx=0;entryDy=0;" parent="1" source="PJWs02H1WUagGIbA9iWr-84" target="PJWs02H1WUagGIbA9iWr-57" edge="1">
          <mxGeometry relative="1" as="geometry">
            <mxPoint x="1260" y="140" as="targetPoint" />
            <Array as="points">
              <mxPoint x="1290" y="90" />
              <mxPoint x="1290" y="622" />
            </Array>
          </mxGeometry>
        </mxCell>
        <mxCell id="PJWs02H1WUagGIbA9iWr-81" value="" style="shape=waypoint;sketch=0;fillStyle=solid;size=6;pointerEvents=1;points=[];fillColor=none;resizable=0;rotatable=0;perimeter=centerPerimeter;snapToPoint=1;" parent="1" vertex="1">
          <mxGeometry x="2630" y="517.75" width="20" height="20" as="geometry" />
        </mxCell>
        <mxCell id="PJWs02H1WUagGIbA9iWr-85" value="" style="edgeStyle=orthogonalEdgeStyle;rounded=0;orthogonalLoop=1;jettySize=auto;html=1;entryDx=0;entryDy=0;endArrow=none;endFill=0;strokeColor=#00994D;" parent="1" source="PJWs02H1WUagGIbA9iWr-81" target="PJWs02H1WUagGIbA9iWr-84" edge="1">
          <mxGeometry relative="1" as="geometry">
            <mxPoint x="1335" y="622" as="targetPoint" />
            <mxPoint x="2640" y="528" as="sourcePoint" />
            <Array as="points">
              <mxPoint x="2640" y="90" />
            </Array>
          </mxGeometry>
        </mxCell>
        <mxCell id="PJWs02H1WUagGIbA9iWr-86" style="edgeStyle=orthogonalEdgeStyle;rounded=0;orthogonalLoop=1;jettySize=auto;html=1;entryX=0;entryY=0.5;entryDx=0;entryDy=0;" parent="1" source="PJWs02H1WUagGIbA9iWr-84" target="PJWs02H1WUagGIbA9iWr-49" edge="1">
          <mxGeometry relative="1" as="geometry" />
        </mxCell>
        <mxCell id="PJWs02H1WUagGIbA9iWr-84" value="" style="shape=waypoint;sketch=0;fillStyle=solid;size=6;pointerEvents=1;points=[];fillColor=none;resizable=0;rotatable=0;perimeter=centerPerimeter;snapToPoint=1;" parent="1" vertex="1">
          <mxGeometry x="1280" y="503.94" width="20" height="20" as="geometry" />
        </mxCell>
        <mxCell id="PJWs02H1WUagGIbA9iWr-93" style="edgeStyle=orthogonalEdgeStyle;rounded=0;orthogonalLoop=1;jettySize=auto;html=1;exitX=0;exitY=0.5;exitDx=0;exitDy=0;entryX=0.908;entryY=0.074;entryDx=0;entryDy=0;entryPerimeter=0;startArrow=classic;startFill=1;endArrow=none;endFill=0;" parent="1" source="PJWs02H1WUagGIbA9iWr-90" target="PJWs02H1WUagGIbA9iWr-9" edge="1">
          <mxGeometry relative="1" as="geometry" />
        </mxCell>
        <mxCell id="PJWs02H1WUagGIbA9iWr-95" style="edgeStyle=orthogonalEdgeStyle;rounded=0;orthogonalLoop=1;jettySize=auto;html=1;exitDx=0;exitDy=0;entryX=0;entryY=0.5;entryDx=0;entryDy=0;" parent="1" source="PJWs02H1WUagGIbA9iWr-106" target="4koaPTSwhBmFynQigVtt-49" edge="1">
          <mxGeometry relative="1" as="geometry">
            <Array as="points">
              <mxPoint x="1230" y="366" />
              <mxPoint x="1230" y="317" />
            </Array>
          </mxGeometry>
        </mxCell>
        <mxCell id="PJWs02H1WUagGIbA9iWr-90" value="" style="shape=image;verticalLabelPosition=bottom;labelBackgroundColor=default;verticalAlign=top;aspect=fixed;imageAspect=0;image=data:image/png,iVBORw0KGgoAAAANSUhEUgAAADYAAAAhCAYAAACSllj+AAAAAXNSR0IArs4c6QAACDpJREFUWEfVmQtUFNcdxr87s7sM4LKzS5RFRMWgpohrUUxQ0CCLqI0e4jGeRmuTSlqNx0c0Wqn4NmhSo42tmGiSU3tipWpjY7UmWB7SqNWIWh8xNjXESCgsbIBZdmGfM9Mzu1kCCvtA8KRzzpydM3P/3/1+c+/9z917CXrh0GimRQgKq0akKA14SgOIkRQhGhBBI4JYIYpNEKlGUEITEWSNNC82Moylqbr6vPU+OxvETYRgo/u+w+J5LGMASubTOXlwrjFyVqtOJURIFURqPE0wQRBFZbd0RdwGyElChL/TLvvZb745Z4YXjHfgyE8VeGYY0H+rCdMSVaizAH0UgIMH7DzwnwagstFTc7fANP2zYgXB9QIBSaEoKo0XhHBJjFVH8MljE+iRuniwmgio1Z6TVSs915oI2Gx2mDgLOM4ME2cGx1m+/TXj2tXP7Zcv3qKamy1yiqJ4mZwubkpfR7sGp04G78DebAUWJANxr5kxJk6JOxwwPBIwtgKXawDO9t3rDApMGaMfJuNJDqGpBQLPq2Ni+rYmPz4iLFE3FGOfSMQPEuK61VD3Bn1280tcuXQLVy7fwofcY06LargcoUojLwupExm2EXSYAMq39YDA2H6TRoGmcmiKWsDzAjM9+0nMnJWBtIlJPQLiT+TokRIcKvzIcf3qbQXDKMrtVuc7TXUlhb7i/IKptfrtIFjFhIbws2ZPlklAibp4f1565fnJ4x/jUGGR/eKFT0Pkctk1l9O5pslQ9lFnlXUJFtE3PZ4JZQocDueUpcvn4OlZGRgQG9UrhoMVLS3+BLt3FTpu3byjALCBM5S+cq9Gp2DqKP10keCEilU6dxX8Uj4+7YfB1t3r5e02B1avfANFJ88BEI9zhrLs9pXeB8Zq9ccBzJiYPprfvTePZhjppXx/j107/oi3Co5IBms4Q2mM12kHMHV0xlpRJPlS11uyfM73l+YeZ7c/v4vpU5ZKX6/LnKEkucN3TB2VlSgS/kb80IE4WVzwfwPlNfrF7So8NXkJIJJlXF3J7rYWi4yZXCqKmPRhyR4SN6StRYMCFHgeNpsNYeHu7/VDPwp2/cndLRPitT9zg6miM2cRUXx//eaFmPf8U0EbMtTWInfxMtTV1sJoNILnebdG7KCB2PqbndCN9v+9kzRWvrgYCSMTsTZ/S9AepABpJrNw/kbrjRuVNW6wfoOmbtdqI1cU/+Nt3zPLLqqrqa7Gltw8xMYNxqp1eQhhmKCMXb/yL6x9eSW+vluF2T+Z2y0w3sXD2tqCw4dK8eZvCz1zxQHxMyrSM5KTd/5uVVCGpMIulwt3KyuxJW89EnU6rMjLhUwu76BTWnQKKxctxoo1uZg151msX7Ua9YY67Ny7B/W1hjYoKag7YJIHi8mEPioVzpyuwEuLXwfBiNkKtqHRnrs2Bzm/eDooMKfDAek0NTdjw8rVGDI0Hmu2bOpUY+u6Dbhw9ix0SUk4eeyv2PnWHuinToHUWiVFRcicOtUNmJKWFlSLeT0wYWGwWa2wWR0Yl/w8CKvNTAfE0wcObcPjKYl+wURRhHRCFNFitiA0PAxVd75C/roNuFJR0SF+UtZkvLJjO/oolW4Ab3drf98b4H0eCFhnHlotLQgJZdzDIHPiAp6w2vTBAH3ntR0vYeYzep9gkqCU+bwHoSjYrVY0NDQgd+lyvwNfarU/Hyxsa632lQUK1pUHWiaDIiTELTk9a6ngHmN9Y6dWT8+eGCPBdXVIgrzLBbvNBmOtAapIDZQqFQghMNbX+81o3nEm6Y/Q6dzjSxsd3VZdIGC+PNA03aY1esSzHjBWq98fHR05r/z8/i6zohvKbkf9f2vQf+BA1FRVYcCQuIDAvKm8nzbKPa7WvbzqviQRCJgvD16wOkMDJqbM92RFtTZjiQiy+8gHr2NU0vBOG01Kp1Jp3uGE0+mE0WBA7KND3AL137bYzevX74uVkkR1VRXeePXXbV3Qm0jaf+MCA/vOgwigxWx29xzJA/Vti12u+AxzZ//KA8b2z0yiQM4mj01QHDi8zUereYTNnAlKVuWGaN8F/GaeHijgfcFdeVj083zbuTNXr7VNqdRR+jUiwbY586ZhU/6iLi0IvABBEEBRpO0t9YDfoCS68nDoYBE2rn0TBOKPOszuWa3+YwATfHXJoBw8xMJfVxmkNA9CUQVNNcVLO/s/JnVfnLv0Hh55hH2I1rpf1d2vapGVvhAUTX1JO5ypRmO54T6wCK1+LAVclKr5/YHNSJ3gfwLbfUsPHnngD39D/qa3JagGwYUcrq5Y+qPcxbpi/LQQtdl5XCRi1uq8+XhhwcwHd9ALCls3v4P39p+AXC47Y7chp9l46gtvNT5XqVhtxiaAbMyeOQk/njsFY8Ym9IK94CWvXvk33t33l5biUxfCAXE3Zyhbdq+K3+U3Vps5X66gX3U6XFHpGcmQ1hRnZD8ZvJseiCgvq8D7h0tcxafOy2iaqnEJwhZTbem+zqT9gklByhh9JC2Q58JCQ15sbbUNG/bYIDdcZlYKhjw6oAcs+5Y4drQMHxwtw4V/XkdYKHPVarW9K9r4gxxXznUVGRBY+2BWm/lceDizqKXFmiLd143yLG9PSB+DceN1PQLZfon7/LlrtsYGE6NShReZmlr2cfWlxwKpJGgwr2hEdOYUShTGMaFMuuDin3A4XUwfZZgrbUKSMFI3VCFtRLCs0r0h4bn2bE742pS4+WklPjl/w9VsssikTYmwcKbcbLaeAiGnTbXFlwIBCih5BCOk7j8pVRCoVAIxVSaTD4coxrh4vk8wGjRNV/Iu4USHbaRgBNqV/R/3jL7iVjuqNAAAAABJRU5ErkJggg==;" parent="1" vertex="1">
          <mxGeometry x="1110" y="350" width="54" height="33" as="geometry" />
        </mxCell>
        <mxCell id="PJWs02H1WUagGIbA9iWr-94" style="edgeStyle=orthogonalEdgeStyle;rounded=0;orthogonalLoop=1;jettySize=auto;html=1;exitX=0;exitY=0.5;exitDx=0;exitDy=0;entryX=1;entryY=0.213;entryDx=0;entryDy=0;entryPerimeter=0;startArrow=classic;startFill=1;endArrow=none;endFill=0;" parent="1" source="PJWs02H1WUagGIbA9iWr-91" target="PJWs02H1WUagGIbA9iWr-9" edge="1">
          <mxGeometry relative="1" as="geometry" />
        </mxCell>
        <mxCell id="PJWs02H1WUagGIbA9iWr-96" style="edgeStyle=orthogonalEdgeStyle;rounded=0;orthogonalLoop=1;jettySize=auto;html=1;exitX=1;exitY=0.5;exitDx=0;exitDy=0;entryX=0;entryY=0.5;entryDx=0;entryDy=0;" parent="1" source="PJWs02H1WUagGIbA9iWr-91" target="4koaPTSwhBmFynQigVtt-48" edge="1">
          <mxGeometry relative="1" as="geometry">
            <Array as="points">
              <mxPoint x="1240" y="416" />
              <mxPoint x="1240" y="400" />
            </Array>
          </mxGeometry>
        </mxCell>
        <mxCell id="PJWs02H1WUagGIbA9iWr-91" value="" style="shape=image;verticalLabelPosition=bottom;labelBackgroundColor=default;verticalAlign=top;aspect=fixed;imageAspect=0;image=data:image/png,iVBORw0KGgoAAAANSUhEUgAAADYAAAAhCAYAAACSllj+AAAAAXNSR0IArs4c6QAACGJJREFUWEfVmQlUVNcZx/9vmWEYZRZAHS1iVZBWEdEYZElPETCgqW0JWk2IsT0xKjE2Ki7FBVdi0mjtqdpoTSWJy0mM0bQGqwhY6y4uFZdaT4kJERyGxRlmhtnee7fnPXzEZRgGpDa557xz3pm533f/v/vd+93lUfi2l3yygqKwXJLptrWoZVUAzfpUTnUll8aQEkdTdBIICQMQzLJMT5qmQwGECIKg53lBS9OUi6ZpM0VRZgANvCDUCx6uHhTdSCDcIAKOW0xlla26ZDDejT1TlJgwCOhTYMHYaC1qbUB3JeDmARcP3GwAKhtbLDsNFhw8VsMFeBJoIiRQoOJpmn6GF4RuolOlUikEh2honS4IOv29R6eR3l1OF8xmGyxmK8xmKyxmG8x3m4j4zvOCpEfdLbA+MFB5vLHeUtI0cVusENz/VfBubPmZEtNHAv3fsuKp/kG4ZQaiQoC6ZuBCDWB2fhOmDoNp+6SMoAQqm2GZqTzHh4iu+n2/N4bFRiEuPhoJScMQ1rdXpwbCrS+qce1qJa5d+Q+uXqlExeWbvHnIJIYPj2vmVfoaogysA814wKgF0L6l+w2m75UyHhSVTYBJouq09Hgkjx6JYcOjMCiqX6dA2jNyuzwS6N49R7D34yNQBQbUO5rdWwWWfGitLr3py75dMH3v1GwikBxQVBLD0CRzQiqVmZWCkXFD2tPVpf9fKL+O3TsO4vO//gMMQ7s4nhRyAllhN5XWemvIJ5jOkLoKwDK9XuPJmpSmEIEiIsO7VHBHnZ08fkkCLCk+C5Uq4JbD5ZxpuVNW/LAfr2A9eiQbeJbdLBDy/E8zk/HGvOxOz5uOCve3/oeFB1CwcptUnYAssBjL1t1v+wiYzpA6Wqlg33d7uPCVBa9hcnaGv2098Xrnz13DwrkbUF1tEhP8DrOx5GVZxANgwYbUwYSmTxBB0B84vPF/lhS6ugdmzXgTJYfPiHCbzMaS2Y+sY6Fh6bs5jnvh2JlCGAxSJv/OlLwFf8C+T0pACySp0VR2qjViUvYj2PnK9EwsXPyrTgEJPA+n0wl1N2mdfuJlzI9noL7ubu1LE+JHS2CasPRgNcuUxycOHbB1e36nBPEcB1uTFUE6LWia7pSPxzW6UH4NubPfRl299U8SmM6Q9rJCyf65qHgTK+4iOlpqbt/GqkWLcfb0aajVatjtdslF337hKPjdesSMGO7TZcHSfHyya7dUZ0hMDNZv2QxD747p4DkejmY73t9ehMJt+1r2it+LGP/HyMi+OR/vf6ejTOA4Dl9VVmLV4mWIjonB3MWLwCoUfvspPXQYuTmzsP7dzRiVlIhl8xcitEcPLFkjLqH+FVGDzWJBd60WxUXH8ZsFG1vAwiLGV4wb/6Ohq9fO8s/TvVoetxviY2lqQn7uQgyIjEDeqhWP+JDFz81bhKwXJkviTcZar5ERo3f9ylW/oyZrUKnVcDocqKlpwHNjXgcVFpYQaOPUzUtXTMeUX/6kXTBCCMQHhMButSGwmxpVt77EmqX5GDgoss2eFgWfOXECMcOHo+izv0gRSs1If6C9iouXsGReLiKiorB63W/RPSjIqx5vGpptdgQEqhCgUuGpoZN5SmdISwbI0R0fvSntzn0V0aGY+eRC0TRcDgcaGhqwaPYcXKuoeMB89LNjWgXKor/+qgr3/y4bGO/cQe7MWZIPMbJTp7/aJpQ3DQzLQhkQINlMmbzkm4jNyX0JObN/0SaXCCVmPpfTibo7RmhDghGk1YKiKNSZTJKowUOjfc4NOUk8HC2b1SoNz6PFR7xCy6J8aWAYplV7cuIrLQe70LD0cwlJMU+/98Gj80OuLUG5XDBV16BPeDhqqqoQNqC/32DyPPOW+WTg9jKiLw0yGMfxiInKIi3pvlfKhgBVwOwzl3YyarXKa9TEdCqmGt7tgcfjQZ3RiL4DB0jZx9ROxORh1tPQS5pXS+fNx8TsF6XoysD+LA33ayAA7FarNHJEDfS9iImH1YyUnJasKK5jAPlg45Y8PJuR0OZwlB1bzRZpIRaL2FP3z4+HjcVhd7uqChvWvt2aMOREIq5xB/btb13DZFtfkWtLg2xbWnwWr00vaAET7y8EhftYj576wQdLNis12u5twgm8AEEQQNNUay+1m0q7uEJbGhwOFzLHveG49UXNvta9oqZ3WjpNyKHEZ2JRuNP/xbGLNT+Wu1X5W7H3o2K7x+2Je+DYojOkLAeoFctXz8SLU8Y9ViNP2vjg58cx93Vp5zTfbCxd/8hBU29IPUSA9LXv/BrPT0x70vo61d6WTXuwYd1O8SxdajaWSaK9Xg1oDSmLKFBviVFbnD8NCoXvW9dOqekCI6fThZxpa3DqxGVQhCqmGHpaY03x122CiX9oe41JpWlyOHpoBDM/byriE2K6QErXuTh29AJWLnuXr75tYkCo35trS+be793nLZUmbEykrpt6Z5PFFvfzrBSIt1Txif9fwDOnKrD/0zJ89mmZeO6z8zw/x1Jb9t7DXdbuvSIixgbobK68wEDVHIfDpU1OeVoCzHguqeu63w9Ph4pOSkB/Lyu/V5vsowVqXaOp9LQ38/bB7lmFhqb35ljPDBkwdsQPkDEuCcNiB2HEyB/6Ia3jVSou38TF8//C34pO4p8Xb0CpVNjdbvd2gZBdTbVHz/ry6DeY7EQGZBk2h+P5ntICH6IVYodH0eLtcEJiDAZHD+w4BYB/3/gS4pXa+XPXce7sVaG+7q50x6BQKm643Z5CliW7Gm6XVfvjvMNgslNxt8IrPHE0LYwihBrFMHQizwvS1ZZ4FR4coqX0evELiwZ6fRCk92CN168td+82EfHri/y1hVUw1ZyHP0IB5TxQ3mQslcefP0xSnf8C72DORHF8HJUAAAAASUVORK5CYII=;" parent="1" vertex="1">
          <mxGeometry x="1110" y="400" width="54" height="33" as="geometry" />
        </mxCell>
        <mxCell id="PJWs02H1WUagGIbA9iWr-98" value="" style="edgeStyle=orthogonalEdgeStyle;rounded=0;orthogonalLoop=1;jettySize=auto;html=1;exitX=1;exitY=0.5;exitDx=0;exitDy=0;entryDx=0;entryDy=0;endArrow=none;endFill=0;" parent="1" source="4koaPTSwhBmFynQigVtt-18" target="PJWs02H1WUagGIbA9iWr-97" edge="1">
          <mxGeometry relative="1" as="geometry">
            <mxPoint x="423" y="514" as="sourcePoint" />
            <mxPoint x="553" y="514" as="targetPoint" />
          </mxGeometry>
        </mxCell>
        <mxCell id="PJWs02H1WUagGIbA9iWr-102" style="edgeStyle=orthogonalEdgeStyle;rounded=0;orthogonalLoop=1;jettySize=auto;html=1;entryX=0.5;entryY=1;entryDx=0;entryDy=0;" parent="1" source="PJWs02H1WUagGIbA9iWr-97" target="PJWs02H1WUagGIbA9iWr-101" edge="1">
          <mxGeometry relative="1" as="geometry" />
        </mxCell>
        <mxCell id="PJWs02H1WUagGIbA9iWr-97" value="" style="shape=waypoint;sketch=0;fillStyle=solid;size=6;pointerEvents=1;points=[];fillColor=none;resizable=0;rotatable=0;perimeter=centerPerimeter;snapToPoint=1;" parent="1" vertex="1">
          <mxGeometry x="460" y="503.94" width="20" height="20" as="geometry" />
        </mxCell>
        <mxCell id="PJWs02H1WUagGIbA9iWr-103" style="edgeStyle=orthogonalEdgeStyle;rounded=0;orthogonalLoop=1;jettySize=auto;html=1;exitDx=0;exitDy=0;entryX=0;entryY=0.5;entryDx=0;entryDy=0;" parent="1" source="PJWs02H1WUagGIbA9iWr-109" target="4koaPTSwhBmFynQigVtt-20" edge="1">
          <mxGeometry relative="1" as="geometry">
            <mxPoint x="470" y="300" as="targetPoint" />
            <Array as="points">
              <mxPoint x="230" y="380" />
              <mxPoint x="230" y="435" />
            </Array>
          </mxGeometry>
        </mxCell>
        <mxCell id="PJWs02H1WUagGIbA9iWr-101" value="" style="shape=image;verticalLabelPosition=bottom;labelBackgroundColor=default;verticalAlign=top;aspect=fixed;imageAspect=0;image=data:image/png,iVBORw0KGgoAAAANSUhEUgAAAB0AAAAdCAYAAABWk2cPAAAAAXNSR0IArs4c6QAAAe1JREFUSEvt1z9oE2EYx/Hvewn2YrV3RxESQUG7iaKoaUrr0KKhLi5OLp10UNz8A1aKUqlSK606FNxd3FxFkC6KIvgvVkFxbVMcxDS53iXm3lfuNIWqRBLfTOZdbnnf53PP746HOwFgJw8Nhlddy+s/taey6+jNHd1f8D0D17CJCVguQ6kCIgQtq/N+oVCydaHVzbtxj0wzM1hiYu4bTreDbcKLxR9ChIKau3vvmi6zbp2RYxfXor19O1sKP382TxttWcTteJuKVgYSBMy/fsPszC3Gb0ySTKV+q6U1XrdY5NOHj4ydO0+XZTN9Z1YvenXsEn0HBjh4eBgpJZ7r8vTxE25fn2LkxHEePXiov9MaOpTNRuA6s4NKuUxHIsH73Ft98S7l85w9eZp3uVz0nAzDwHEc9vamOTN6gU2pJPF4nNzLV/rQ2hsRxjl5eZx0JsPQcBbf80l0ricWi0VbtKNBEKCkZOrKBJmBfval97PRtldB7agMAnzP4/NiHqVga882EGINqB0NqlWKhWVM02RpYYEtPdujOGux1uLXGm/YqQL8lRXKvk+X4yD+0OnfJkvDwyGEpVIYQiAMI0IbXQ2jIaCkisZdM2B4vim00c5+3d9G/zXBuuf/83hbmu3P4qvfvbp/K+rdvGVt+Podq6GHcWXg7ZcAAAAASUVORK5CYII=;" parent="1" vertex="1">
          <mxGeometry x="455.5" y="420" width="27.13" height="27.13" as="geometry" />
        </mxCell>
        <mxCell id="PJWs02H1WUagGIbA9iWr-112" style="edgeStyle=orthogonalEdgeStyle;rounded=0;orthogonalLoop=1;jettySize=auto;html=1;exitX=0;exitY=0.5;exitDx=0;exitDy=0;entryX=0;entryY=0.5;entryDx=0;entryDy=0;" parent="1" source="PJWs02H1WUagGIbA9iWr-105" target="4koaPTSwhBmFynQigVtt-21" edge="1">
          <mxGeometry relative="1" as="geometry">
            <Array as="points">
              <mxPoint x="220" y="315" />
              <mxPoint x="220" y="480" />
            </Array>
          </mxGeometry>
        </mxCell>
        <mxCell id="PJWs02H1WUagGIbA9iWr-105" value="" style="shape=image;verticalLabelPosition=bottom;labelBackgroundColor=default;verticalAlign=top;aspect=fixed;imageAspect=0;image=data:image/png,iVBORw0KGgoAAAANSUhEUgAAAD4AAABHCAYAAABf7PRNAAAAAXNSR0IArs4c6QAABYpJREFUeF7tnHtMU1ccx799U0ppwzADEQyZ/iWwsZnFZWaabMnMNjWRMRU2WbLNzVFhCuVZOhEQUcTpfCzbH/MRxWwq23zMR4x/7JFpnESG24xmDh8UqzKgty29pbfLOYQO1IxKr/Z2O+ef3rT3nPv7nO/3e87tA2QAYEx4YSZ5jKTmmLclTxg3+U1aszDwT+lyZVAYMgJtMOhaens5Y1A9JHJS/9RF8Dy1iFYzdUIPTr9txMbTwI5WYLwesHGADIBXAOKjgVsuoP0G4PMPAlBwwH9y555VEkEKrozmP5PQfDmJnpwWz6HNFEOP4xuAZ5IBrRLo9QByGdDFAee6Ro47AvzpaWnBXVUCZzV+r0LjdypaSazHhj7OgWhNIh5J0lNY3jcIHaUEBgSgo+c/At7XL8PXvytwgyOGDr5dv2bH/r0nRlo9khQPHnXkmad/ascbCyoYOF3cmOJj9VEE9GNWH76PM6tHgGXHWiKzOrM6287Gmp7I6McyzjLOMh4ZWR1rlSzjUsx4v9uNvu6/EJ+YALlcPlZx79lPsoq7XS70u1zQ6fVQazSiQpPBJAfu8/ng9XjA8zxUKjW0umjRoSUJ7nH3g3M4YIyLg0KpeCDQkgPnPR54eZ7mWavT0WMX54TeEAu5QtxJkITV/X4/nA4ObicHQ1wczfSA1wunwwGNVosorVZ05SUBTpR2O10UUB2loce8px8qtQY6/eAXBGK3sIMPQjuhiYpCVHQ0BJ8Ae2cnXc31RoPYvIHxwgZO7M319kEQBETH6KBSq6m9Hb29gUkQe+8ePosPFbzLZkPRe/mYkpGO/GUfYGDAi5jYWApKtrE9n2/DkYOHYLZWIePJzAem9kNd1QWfD122LpSYCjAlPQ3vFpigNxio0sTqvIfHN/v24Ytdu1HXtC5ywOssVny5azdVaUpGBtZ9shkJiYloO9uK6rJy2K534tmZM9BzuxupkyehoqYaxO5rq2tx/PBhJCaNR0pqKs6dPRsAP3HkKIqW5N815tDz2bk59JrksbJ25X05RBSrk0IOtnyFmsY1+OPiJVQuL8K06dNRWGpGdWk5bt28hfqN63H+XBtKlxbSQs1WC04eO44N9Q3Ifj0Hc1/LxoclZbh04QIFJ42M82rOQmQtXICq4hL6HLnGqR9+pBMyFuCh2REFfGiw4aqTol6eOwe1lirMzpqHvMXv4GpHB8oKltGML68oQ9Oq1fit/TzWbvmYumP7p59h7+5mCt565kzgmOSdvHbs0LfUSWQCCfi6rZvx/KwX70tpUcFJUeuJcrk5eCt/CV3A0h/PwKzZr6DKXIL5ubmYPuM5OJ1O7Nm+EzFGA4qrKtFYU4dff2lHw6YNd4Ef2N8SiM5QsckTU+ik3LTbww9O7quH25DjOJjfX0pVfWnuHKyvq0d65hNYbqmArbMTDVUrkDrpMRSWl6LeugI/nzoFa/0qupj9m+LDZR3KeNgVJxYnyhEbHj1wEJsam5C1YD5M5iLUVFhw7cpVrNn4ES5fvARzQSFy8/JgKi0GAbAWl2BxgSmQ4/vJeNjBycpNFqKrHVdA7BhrMCJlYgrKV1bD5XahttyC23Y7EpInQK1QYlzCoyi2WuibkOZtO9BUv5r2y8jMRFtra9CretjB77W6kFtPnvdArVYH3ll1228CMhnixsVTaNLIPh6OJuqqfifAnfDkoyTyRiTc0A/lzm0IXqlQQKFS0fvxcCot6nY2mlUHeC8EvwC/4IdcqYBKNfjzrHC2B2r1cIKNdm0GLsXP1UdTLZTXmeJMcfZtaSgJkn5flnGWcZZx6ec0lApZxlnGWcZDSZD0+7KMs4yzjEs/p6FUyDLOMs4yHkqCpN+XZZxl/P+cceknVJwKA38/Hon/HCOUKTAYYnr+BnBNXd78FkZAAAAAAElFTkSuQmCC;" parent="1" vertex="1">
          <mxGeometry x="410" y="279" width="62" height="71" as="geometry" />
        </mxCell>
        <mxCell id="PJWs02H1WUagGIbA9iWr-107" value="" style="edgeStyle=orthogonalEdgeStyle;rounded=0;orthogonalLoop=1;jettySize=auto;html=1;exitX=1;exitY=0.5;exitDx=0;exitDy=0;entryDx=0;entryDy=0;endArrow=none;endFill=0;" parent="1" source="PJWs02H1WUagGIbA9iWr-90" target="PJWs02H1WUagGIbA9iWr-106" edge="1">
          <mxGeometry relative="1" as="geometry">
            <mxPoint x="1164" y="367" as="sourcePoint" />
            <mxPoint x="1400" y="317" as="targetPoint" />
            <Array as="points" />
          </mxGeometry>
        </mxCell>
        <mxCell id="PJWs02H1WUagGIbA9iWr-108" style="edgeStyle=orthogonalEdgeStyle;rounded=0;orthogonalLoop=1;jettySize=auto;html=1;entryX=1;entryY=0.75;entryDx=0;entryDy=0;" parent="1" source="PJWs02H1WUagGIbA9iWr-106" target="PJWs02H1WUagGIbA9iWr-105" edge="1">
          <mxGeometry relative="1" as="geometry" />
        </mxCell>
        <mxCell id="PJWs02H1WUagGIbA9iWr-106" value="" style="shape=waypoint;sketch=0;fillStyle=solid;size=6;pointerEvents=1;points=[];fillColor=none;resizable=0;rotatable=0;perimeter=centerPerimeter;snapToPoint=1;" parent="1" vertex="1">
          <mxGeometry x="1221" y="306.63" width="20" height="20" as="geometry" />
        </mxCell>
        <mxCell id="PJWs02H1WUagGIbA9iWr-110" value="" style="edgeStyle=orthogonalEdgeStyle;rounded=0;orthogonalLoop=1;jettySize=auto;html=1;exitX=0.5;exitY=0;exitDx=0;exitDy=0;entryDx=0;entryDy=0;" parent="1" source="PJWs02H1WUagGIbA9iWr-101" target="PJWs02H1WUagGIbA9iWr-109" edge="1">
          <mxGeometry relative="1" as="geometry">
            <mxPoint x="262" y="435" as="targetPoint" />
            <mxPoint x="469" y="420" as="sourcePoint" />
            <Array as="points">
              <mxPoint x="469" y="380" />
            </Array>
          </mxGeometry>
        </mxCell>
        <mxCell id="PJWs02H1WUagGIbA9iWr-111" style="edgeStyle=orthogonalEdgeStyle;rounded=0;orthogonalLoop=1;jettySize=auto;html=1;entryX=1;entryY=0.25;entryDx=0;entryDy=0;" parent="1" source="PJWs02H1WUagGIbA9iWr-109" target="PJWs02H1WUagGIbA9iWr-105" edge="1">
          <mxGeometry relative="1" as="geometry">
            <mxPoint x="530" y="300" as="targetPoint" />
            <Array as="points">
              <mxPoint x="492" y="400" />
              <mxPoint x="492" y="297" />
            </Array>
          </mxGeometry>
        </mxCell>
        <mxCell id="PJWs02H1WUagGIbA9iWr-116" style="edgeStyle=orthogonalEdgeStyle;rounded=0;orthogonalLoop=1;jettySize=auto;html=1;entryX=0.5;entryY=1;entryDx=0;entryDy=0;" parent="1" source="PJWs02H1WUagGIbA9iWr-109" target="4koaPTSwhBmFynQigVtt-25" edge="1">
          <mxGeometry relative="1" as="geometry" />
        </mxCell>
        <mxCell id="PJWs02H1WUagGIbA9iWr-109" value="" style="shape=waypoint;sketch=0;fillStyle=solid;size=6;pointerEvents=1;points=[];fillColor=none;resizable=0;rotatable=0;perimeter=centerPerimeter;snapToPoint=1;" parent="1" vertex="1">
          <mxGeometry x="459.07" y="389.64" width="20" height="20" as="geometry" />
        </mxCell>
        <mxCell id="PJWs02H1WUagGIbA9iWr-131" value="" style="edgeStyle=orthogonalEdgeStyle;rounded=0;orthogonalLoop=1;jettySize=auto;html=1;exitX=1;exitY=0.5;exitDx=0;exitDy=0;entryDx=0;entryDy=0;entryPerimeter=0;endArrow=none;endFill=0;" parent="1" source="4koaPTSwhBmFynQigVtt-8" target="PJWs02H1WUagGIbA9iWr-130" edge="1">
          <mxGeometry relative="1" as="geometry">
            <mxPoint x="903" y="840" as="sourcePoint" />
            <mxPoint x="2328" y="668" as="targetPoint" />
            <Array as="points" />
          </mxGeometry>
        </mxCell>
        <mxCell id="PJWs02H1WUagGIbA9iWr-132" style="edgeStyle=orthogonalEdgeStyle;rounded=0;orthogonalLoop=1;jettySize=auto;html=1;entryX=0.009;entryY=0.659;entryDx=0;entryDy=0;entryPerimeter=0;endArrow=none;endFill=0;" parent="1" source="PJWs02H1WUagGIbA9iWr-130" target="PJWs02H1WUagGIbA9iWr-133" edge="1">
          <mxGeometry relative="1" as="geometry">
            <mxPoint x="620" y="840" as="targetPoint" />
            <Array as="points">
              <mxPoint x="1002" y="943" />
              <mxPoint x="1002" y="980" />
              <mxPoint x="643" y="980" />
            </Array>
          </mxGeometry>
        </mxCell>
        <mxCell id="PJWs02H1WUagGIbA9iWr-130" value="" style="shape=waypoint;sketch=0;fillStyle=solid;size=6;pointerEvents=1;points=[];fillColor=none;resizable=0;rotatable=0;perimeter=centerPerimeter;snapToPoint=1;" parent="1" vertex="1">
          <mxGeometry x="992.25" y="866.75" width="20" height="20" as="geometry" />
        </mxCell>
        <mxCell id="PJWs02H1WUagGIbA9iWr-136" style="edgeStyle=orthogonalEdgeStyle;rounded=0;orthogonalLoop=1;jettySize=auto;html=1;entryX=0;entryY=0.5;entryDx=0;entryDy=0;" parent="1" source="PJWs02H1WUagGIbA9iWr-133" target="PJWs02H1WUagGIbA9iWr-135" edge="1">
          <mxGeometry relative="1" as="geometry">
            <Array as="points">
              <mxPoint x="590" y="842" />
              <mxPoint x="610" y="841" />
            </Array>
          </mxGeometry>
        </mxCell>
        <mxCell id="PJWs02H1WUagGIbA9iWr-137" style="edgeStyle=orthogonalEdgeStyle;rounded=0;orthogonalLoop=1;jettySize=auto;html=1;entryX=0;entryY=0.5;entryDx=0;entryDy=0;" parent="1" source="PJWs02H1WUagGIbA9iWr-133" target="PJWs02H1WUagGIbA9iWr-134" edge="1">
          <mxGeometry relative="1" as="geometry">
            <Array as="points">
              <mxPoint x="570" y="798" />
            </Array>
          </mxGeometry>
        </mxCell>
        <mxCell id="PJWs02H1WUagGIbA9iWr-138" style="edgeStyle=orthogonalEdgeStyle;rounded=0;orthogonalLoop=1;jettySize=auto;html=1;entryX=0;entryY=0.5;entryDx=0;entryDy=0;" parent="1" source="PJWs02H1WUagGIbA9iWr-133" target="4koaPTSwhBmFynQigVtt-17" edge="1">
          <mxGeometry relative="1" as="geometry">
            <Array as="points">
              <mxPoint x="570" y="882" />
            </Array>
          </mxGeometry>
        </mxCell>
        <mxCell id="PJWs02H1WUagGIbA9iWr-133" value="" style="shape=waypoint;sketch=0;fillStyle=solid;size=6;pointerEvents=1;points=[];fillColor=none;resizable=0;rotatable=0;perimeter=centerPerimeter;snapToPoint=1;" parent="1" vertex="1">
          <mxGeometry x="560" y="831.75" width="20" height="20" as="geometry" />
        </mxCell>
        <mxCell id="PJWs02H1WUagGIbA9iWr-141" style="edgeStyle=orthogonalEdgeStyle;rounded=0;orthogonalLoop=1;jettySize=auto;html=1;exitX=1;exitY=0.5;exitDx=0;exitDy=0;entryX=0;entryY=0.5;entryDx=0;entryDy=0;" parent="1" source="PJWs02H1WUagGIbA9iWr-134" target="4koaPTSwhBmFynQigVtt-13" edge="1">
          <mxGeometry relative="1" as="geometry" />
        </mxCell>
        <mxCell id="PJWs02H1WUagGIbA9iWr-134" value="" style="shape=image;verticalLabelPosition=bottom;labelBackgroundColor=default;verticalAlign=top;aspect=fixed;imageAspect=0;image=data:image/png,iVBORw0KGgoAAAANSUhEUgAAAB0AAAAdCAYAAABWk2cPAAAAAXNSR0IArs4c6QAAAd5JREFUSEvtl0FrE0EYhp+ZDe0mEZOlFqXagvYmip5EPBUR9NKLJy/iSUEPtkIhREqJxVaLtL3rSaqiFBH6B3oVQSut/oRW8SCmyXY3MTNTdrWltRhInJzMd5nLzvfs+8zwsSsAsocuDESrrQrO3TxdPXl59njXd8JA4sssjoD1CpSrICJgJpN+UyyWs7agtZ5T+IPTzAyUub/4E6/LI+vC+7VfhBgKZnHu5aQtZt0+V6/c3Q09c/ZES8Hv3n6iDW2Z4rbeptRqpUGAlJKJ0TGO9PVy7cb1Pb2s6vVLJdxkioeFe8w/f8GdfM4udPnDEq/mnpEfL5BKpwl8n5pSFHJ5DnR3x+msJ92C5gpjOELS4XZSrVToTCZJJBJ29T59/ITZB1NxkujsPM/D933GH01x/tLFGBiV9TPVWrOy9JGF+dfczo3gOAmS6RSO42xfGqtQpRRGaz4vr8SX5dbwEAcP9+wCWk2qlSIMAr6tfcEY6Os/CkLsAVqFqlqNUnEd13X5urpKb/+xWOdOrVt+remNkhog3NigEobs9zzEX5LWmy4ND4cIrI1BCoGQMoY2Wg1DI4DRJh53zQCj/U1BG0325/Nt6L8arLv/P9fbUre/m29/99r+raj38pnMvh+bFSZycZxNdD8AAAAASUVORK5CYII=;" parent="1" vertex="1">
          <mxGeometry x="620" y="783.25" width="29" height="29" as="geometry" />
        </mxCell>
        <mxCell id="PJWs02H1WUagGIbA9iWr-140" style="edgeStyle=orthogonalEdgeStyle;rounded=0;orthogonalLoop=1;jettySize=auto;html=1;exitX=1;exitY=0.5;exitDx=0;exitDy=0;entryX=0;entryY=0.5;entryDx=0;entryDy=0;" parent="1" source="PJWs02H1WUagGIbA9iWr-135" target="4koaPTSwhBmFynQigVtt-14" edge="1">
          <mxGeometry relative="1" as="geometry" />
        </mxCell>
        <mxCell id="PJWs02H1WUagGIbA9iWr-135" value="" style="shape=image;verticalLabelPosition=bottom;labelBackgroundColor=default;verticalAlign=top;aspect=fixed;imageAspect=0;image=data:image/png,iVBORw0KGgoAAAANSUhEUgAAAB0AAAAdCAYAAABWk2cPAAAAAXNSR0IArs4c6QAAAcJJREFUSEvt17FrE2EYx/Hvexm8JJK7kKVpUdBuotRJpHTo0FUEQXTxD3CRDopQuhQlCNJahIRuHVzcXCVF6lIUQYUqguLaVhxK07vLXWLufeU9aaEiIU3fkw55llveu8/z/O54704AuENTk/poqsLx2xfbF649OVfaJgotAsslI2C3BX4bhAYdJ/+i0fBdU2hneIzgyjwLkz4PV39RLBVxbXi/+UdIUFCrz55XTJldr3Pr5sxB9NLl86nC795+ZoCmFvEg3r6ilbEEAZZldT3faLyB5/H96zdqi0+Ze/yIoXL5n7gRVEpJGAQJOHv3HgXHZX6pmh6qI9Xgm7U1lmtLXL1xnVcv6+lNqqQk8H1O2DZN3ydfKPBl/RPVhUXzqI5TAL7nkc3liMKIbD5HJpNh/cNH82gcx7yur3D/zjQaH5+YYKbygOGRkeShMY7KOCYKQ35ubqEUnB49A0IkE+6VcTTudPAau9i2zY+NDU6Nnk2sVFE9qQKiZpNWFFEoFhFpT6qn0rBUCksIhGUl6GGrr81BSZVsd/2AusG+0MNO9vf6AXrUBP/fq63XTo/PPe2146Os2//uNf1b0a0pxzm58xv5F4Rxllh7qgAAAABJRU5ErkJggg==;" parent="1" vertex="1">
          <mxGeometry x="620" y="826.75" width="29" height="29" as="geometry" />
        </mxCell>
        <mxCell id="2bNVYI1MK1_DozGiR_B5-38" style="edgeStyle=orthogonalEdgeStyle;rounded=0;orthogonalLoop=1;jettySize=auto;html=1;exitX=1;exitY=0.5;exitDx=0;exitDy=0;entryX=-0.084;entryY=0.559;entryDx=0;entryDy=0;entryPerimeter=0;" parent="1" source="PJWs02H1WUagGIbA9iWr-144" target="2bNVYI1MK1_DozGiR_B5-37" edge="1">
          <mxGeometry relative="1" as="geometry">
            <Array as="points">
              <mxPoint x="1196" y="1098" />
              <mxPoint x="1196" y="1110" />
              <mxPoint x="1310" y="1110" />
              <mxPoint x="1310" y="1120" />
              <mxPoint x="1330" y="1120" />
              <mxPoint x="1330" y="1130" />
              <mxPoint x="1348" y="1130" />
            </Array>
            <mxPoint x="1320" y="1130" as="targetPoint" />
          </mxGeometry>
        </mxCell>
        <mxCell id="PJWs02H1WUagGIbA9iWr-144" value="Main control&amp;nbsp;&lt;br&gt;And ALU" style="shape=hexagon;perimeter=hexagonPerimeter2;whiteSpace=wrap;html=1;fixedSize=1;fillColor=#FF3333;" parent="1" vertex="1">
          <mxGeometry x="924.25" y="1057.5" width="120" height="80" as="geometry" />
        </mxCell>
        <mxCell id="2bNVYI1MK1_DozGiR_B5-1" value="" style="edgeStyle=orthogonalEdgeStyle;rounded=0;orthogonalLoop=1;jettySize=auto;html=1;exitX=0;exitY=1;exitDx=0;exitDy=0;strokeWidth=3;endArrow=none;endFill=0;" parent="1" source="PJWs02H1WUagGIbA9iWr-9" target="2bNVYI1MK1_DozGiR_B5-2" edge="1">
          <mxGeometry relative="1" as="geometry">
            <mxPoint x="1199.4871794871794" y="1020" as="targetPoint" />
            <Array as="points">
              <mxPoint x="230" y="700" />
              <mxPoint x="230" y="1010" />
            </Array>
            <mxPoint x="880" y="700" as="sourcePoint" />
          </mxGeometry>
        </mxCell>
        <mxCell id="2bNVYI1MK1_DozGiR_B5-6" style="edgeStyle=orthogonalEdgeStyle;rounded=0;orthogonalLoop=1;jettySize=auto;html=1;entryX=1;entryY=0.528;entryDx=0;entryDy=0;entryPerimeter=0;" parent="1" source="2bNVYI1MK1_DozGiR_B5-2" target="4koaPTSwhBmFynQigVtt-5" edge="1">
          <mxGeometry relative="1" as="geometry" />
        </mxCell>
        <mxCell id="2bNVYI1MK1_DozGiR_B5-2" value="" style="shape=waypoint;sketch=0;fillStyle=solid;size=6;pointerEvents=1;points=[];fillColor=none;resizable=0;rotatable=0;perimeter=centerPerimeter;snapToPoint=1;" parent="1" vertex="1">
          <mxGeometry x="421" y="1000" width="20" height="20" as="geometry" />
        </mxCell>
        <mxCell id="2bNVYI1MK1_DozGiR_B5-3" value="" style="edgeStyle=orthogonalEdgeStyle;rounded=0;orthogonalLoop=1;jettySize=auto;html=1;exitDx=0;exitDy=0;strokeWidth=3;endArrow=none;endFill=0;" parent="1" source="2bNVYI1MK1_DozGiR_B5-2" target="2bNVYI1MK1_DozGiR_B5-4" edge="1">
          <mxGeometry relative="1" as="geometry">
            <mxPoint x="1199.4871794871794" y="1020" as="targetPoint" />
            <Array as="points" />
            <mxPoint x="431" y="1010" as="sourcePoint" />
          </mxGeometry>
        </mxCell>
        <mxCell id="2bNVYI1MK1_DozGiR_B5-7" style="edgeStyle=orthogonalEdgeStyle;rounded=0;orthogonalLoop=1;jettySize=auto;html=1;entryX=1;entryY=0.25;entryDx=0;entryDy=0;" parent="1" source="2bNVYI1MK1_DozGiR_B5-4" target="4koaPTSwhBmFynQigVtt-5" edge="1">
          <mxGeometry relative="1" as="geometry" />
        </mxCell>
        <mxCell id="2bNVYI1MK1_DozGiR_B5-9" style="edgeStyle=orthogonalEdgeStyle;rounded=0;orthogonalLoop=1;jettySize=auto;html=1;entryX=0;entryY=0.5;entryDx=0;entryDy=0;" parent="1" source="2bNVYI1MK1_DozGiR_B5-4" target="4koaPTSwhBmFynQigVtt-6" edge="1">
          <mxGeometry relative="1" as="geometry" />
        </mxCell>
        <mxCell id="2bNVYI1MK1_DozGiR_B5-10" style="edgeStyle=orthogonalEdgeStyle;rounded=0;orthogonalLoop=1;jettySize=auto;html=1;entryX=-0.001;entryY=0.843;entryDx=0;entryDy=0;entryPerimeter=0;" parent="1" source="2bNVYI1MK1_DozGiR_B5-4" target="4koaPTSwhBmFynQigVtt-6" edge="1">
          <mxGeometry relative="1" as="geometry">
            <Array as="points">
              <mxPoint x="550" y="1010" />
              <mxPoint x="550" y="1123" />
            </Array>
          </mxGeometry>
        </mxCell>
        <mxCell id="2bNVYI1MK1_DozGiR_B5-4" value="" style="shape=waypoint;sketch=0;fillStyle=solid;size=6;pointerEvents=1;points=[];fillColor=none;resizable=0;rotatable=0;perimeter=centerPerimeter;snapToPoint=1;" parent="1" vertex="1">
          <mxGeometry x="469" y="1000" width="20" height="20" as="geometry" />
        </mxCell>
        <mxCell id="2bNVYI1MK1_DozGiR_B5-8" style="edgeStyle=orthogonalEdgeStyle;rounded=0;orthogonalLoop=1;jettySize=auto;html=1;entryX=1;entryY=0.75;entryDx=0;entryDy=0;" parent="1" source="2bNVYI1MK1_DozGiR_B5-5" target="4koaPTSwhBmFynQigVtt-5" edge="1">
          <mxGeometry relative="1" as="geometry" />
        </mxCell>
        <mxCell id="2bNVYI1MK1_DozGiR_B5-11" style="edgeStyle=orthogonalEdgeStyle;rounded=0;orthogonalLoop=1;jettySize=auto;html=1;entryX=0;entryY=0.361;entryDx=0;entryDy=0;entryPerimeter=0;" parent="1" source="2bNVYI1MK1_DozGiR_B5-5" target="4koaPTSwhBmFynQigVtt-6" edge="1">
          <mxGeometry relative="1" as="geometry" />
        </mxCell>
        <mxCell id="2bNVYI1MK1_DozGiR_B5-5" value="" style="shape=waypoint;sketch=0;fillStyle=solid;size=6;pointerEvents=1;points=[];fillColor=none;resizable=0;rotatable=0;perimeter=centerPerimeter;snapToPoint=1;" parent="1" vertex="1">
          <mxGeometry x="533" y="1000" width="20" height="20" as="geometry" />
        </mxCell>
        <mxCell id="2bNVYI1MK1_DozGiR_B5-28" style="edgeStyle=orthogonalEdgeStyle;rounded=0;orthogonalLoop=1;jettySize=auto;html=1;exitX=1;exitY=0.25;exitDx=0;exitDy=0;entryX=0.75;entryY=1;entryDx=0;entryDy=0;fillColor=#a20025;strokeColor=#6F0000;" parent="1" source="2bNVYI1MK1_DozGiR_B5-27" target="PJWs02H1WUagGIbA9iWr-53" edge="1">
          <mxGeometry relative="1" as="geometry">
            <Array as="points">
              <mxPoint x="1370" y="1013" />
              <mxPoint x="1370" y="560" />
              <mxPoint x="1350" y="560" />
            </Array>
          </mxGeometry>
        </mxCell>
        <mxCell id="2bNVYI1MK1_DozGiR_B5-29" style="edgeStyle=orthogonalEdgeStyle;rounded=0;orthogonalLoop=1;jettySize=auto;html=1;exitX=1;exitY=0.75;exitDx=0;exitDy=0;entryX=1;entryY=0.75;entryDx=0;entryDy=0;fillColor=#a20025;strokeColor=#6F0000;" parent="1" source="2bNVYI1MK1_DozGiR_B5-27" target="PJWs02H1WUagGIbA9iWr-54" edge="1">
          <mxGeometry relative="1" as="geometry" />
        </mxCell>
        <mxCell id="2bNVYI1MK1_DozGiR_B5-30" style="edgeStyle=orthogonalEdgeStyle;rounded=0;orthogonalLoop=1;jettySize=auto;html=1;exitX=0;exitY=0.25;exitDx=0;exitDy=0;endArrow=none;endFill=0;startArrow=classic;startFill=1;" parent="1" source="2bNVYI1MK1_DozGiR_B5-27" edge="1">
          <mxGeometry relative="1" as="geometry">
            <mxPoint x="1160" y="1012.9787234042553" as="targetPoint" />
          </mxGeometry>
        </mxCell>
        <mxCell id="2bNVYI1MK1_DozGiR_B5-31" style="edgeStyle=orthogonalEdgeStyle;rounded=0;orthogonalLoop=1;jettySize=auto;html=1;exitX=0;exitY=0.5;exitDx=0;exitDy=0;endArrow=none;endFill=0;startArrow=classic;startFill=1;" parent="1" source="2bNVYI1MK1_DozGiR_B5-27" edge="1">
          <mxGeometry relative="1" as="geometry">
            <mxPoint x="1150" y="1030" as="targetPoint" />
          </mxGeometry>
        </mxCell>
        <mxCell id="2bNVYI1MK1_DozGiR_B5-32" style="edgeStyle=orthogonalEdgeStyle;rounded=0;orthogonalLoop=1;jettySize=auto;html=1;exitX=0;exitY=0.75;exitDx=0;exitDy=0;endArrow=none;endFill=0;startArrow=classic;startFill=1;" parent="1" source="2bNVYI1MK1_DozGiR_B5-27" edge="1">
          <mxGeometry relative="1" as="geometry">
            <mxPoint x="1150" y="1047.0212765957447" as="targetPoint" />
          </mxGeometry>
        </mxCell>
        <mxCell id="2bNVYI1MK1_DozGiR_B5-33" style="edgeStyle=orthogonalEdgeStyle;rounded=0;orthogonalLoop=1;jettySize=auto;html=1;exitX=0.375;exitY=0;exitDx=0;exitDy=0;endArrow=none;endFill=0;startArrow=classic;startFill=1;" parent="1" source="2bNVYI1MK1_DozGiR_B5-27" edge="1">
          <mxGeometry relative="1" as="geometry">
            <mxPoint x="1180" y="970" as="targetPoint" />
          </mxGeometry>
        </mxCell>
        <mxCell id="2bNVYI1MK1_DozGiR_B5-34" style="edgeStyle=orthogonalEdgeStyle;rounded=0;orthogonalLoop=1;jettySize=auto;html=1;exitX=0.375;exitY=1;exitDx=0;exitDy=0;endArrow=none;endFill=0;startArrow=classic;startFill=1;" parent="1" source="2bNVYI1MK1_DozGiR_B5-27" edge="1">
          <mxGeometry relative="1" as="geometry">
            <mxPoint x="1170" y="1090" as="targetPoint" />
          </mxGeometry>
        </mxCell>
        <mxCell id="2bNVYI1MK1_DozGiR_B5-39" style="edgeStyle=orthogonalEdgeStyle;rounded=0;orthogonalLoop=1;jettySize=auto;html=1;exitDx=0;exitDy=0;entryX=0.75;entryY=0;entryDx=0;entryDy=0;fillColor=#a20025;strokeColor=#6F0000;" parent="1" source="2bNVYI1MK1_DozGiR_B5-42" target="2bNVYI1MK1_DozGiR_B5-36" edge="1">
          <mxGeometry relative="1" as="geometry" />
        </mxCell>
        <mxCell id="2bNVYI1MK1_DozGiR_B5-27" value="Forwarding and&lt;br&gt;Stall" style="shape=hexagon;perimeter=hexagonPerimeter2;whiteSpace=wrap;html=1;fixedSize=1;fillColor=#FF3333;" parent="1" vertex="1">
          <mxGeometry x="1180" y="990" width="120" height="80" as="geometry" />
        </mxCell>
        <mxCell id="2bNVYI1MK1_DozGiR_B5-48" style="edgeStyle=orthogonalEdgeStyle;rounded=0;orthogonalLoop=1;jettySize=auto;html=1;exitX=0.5;exitY=0;exitDx=0;exitDy=0;entryX=0;entryY=0.5;entryDx=0;entryDy=0;" parent="1" source="2bNVYI1MK1_DozGiR_B5-35" target="PJWs02H1WUagGIbA9iWr-1" edge="1">
          <mxGeometry relative="1" as="geometry" />
        </mxCell>
        <mxCell id="2bNVYI1MK1_DozGiR_B5-35" value="mux" style="shape=loopLimit;whiteSpace=wrap;html=1;rotation=90;fillColor=#ffe6cc;strokeColor=#d79b00;" parent="1" vertex="1">
          <mxGeometry x="1335" y="1092.62" width="65" height="34.5" as="geometry" />
        </mxCell>
        <mxCell id="vY5lLP2O3jn33NDwaVuw-2" style="edgeStyle=orthogonalEdgeStyle;rounded=0;orthogonalLoop=1;jettySize=auto;html=1;endArrow=none;endFill=0;startArrow=classic;startFill=1;" edge="1" parent="1" source="2bNVYI1MK1_DozGiR_B5-36" target="2bNVYI1MK1_DozGiR_B5-41">
          <mxGeometry relative="1" as="geometry">
            <Array as="points">
              <mxPoint x="1240" y="1100" />
            </Array>
          </mxGeometry>
        </mxCell>
        <mxCell id="2bNVYI1MK1_DozGiR_B5-36" value="0" style="text;html=1;strokeColor=none;fillColor=none;align=center;verticalAlign=middle;whiteSpace=wrap;rounded=0;" parent="1" vertex="1">
          <mxGeometry x="1349.75" y="1072.5" width="20" height="30" as="geometry" />
        </mxCell>
        <mxCell id="2bNVYI1MK1_DozGiR_B5-37" value="1" style="text;html=1;strokeColor=none;fillColor=none;align=center;verticalAlign=middle;whiteSpace=wrap;rounded=0;" parent="1" vertex="1">
          <mxGeometry x="1349.75" y="1110.87" width="20" height="30" as="geometry" />
        </mxCell>
        <mxCell id="2bNVYI1MK1_DozGiR_B5-41" value="NOP" style="text;html=1;strokeColor=none;fillColor=none;align=center;verticalAlign=middle;whiteSpace=wrap;rounded=0;" parent="1" vertex="1">
          <mxGeometry x="1210" y="1132.5" width="60" height="30" as="geometry" />
        </mxCell>
        <mxCell id="2bNVYI1MK1_DozGiR_B5-43" value="" style="edgeStyle=orthogonalEdgeStyle;rounded=0;orthogonalLoop=1;jettySize=auto;html=1;exitX=0.625;exitY=1;exitDx=0;exitDy=0;entryDx=0;entryDy=0;fillColor=#a20025;strokeColor=#6F0000;endArrow=none;endFill=0;" parent="1" source="2bNVYI1MK1_DozGiR_B5-27" target="2bNVYI1MK1_DozGiR_B5-42" edge="1">
          <mxGeometry relative="1" as="geometry">
            <mxPoint x="1256" y="1070" as="sourcePoint" />
            <mxPoint x="1365" y="1073" as="targetPoint" />
          </mxGeometry>
        </mxCell>
        <mxCell id="2bNVYI1MK1_DozGiR_B5-44" style="edgeStyle=orthogonalEdgeStyle;rounded=0;orthogonalLoop=1;jettySize=auto;html=1;entryX=0.5;entryY=1;entryDx=0;entryDy=0;fillColor=#a20025;strokeColor=#6F0000;exitDx=0;exitDy=0;exitPerimeter=0;" parent="1" source="2bNVYI1MK1_DozGiR_B5-45" target="4koaPTSwhBmFynQigVtt-18" edge="1">
          <mxGeometry relative="1" as="geometry">
            <mxPoint x="1280" y="1210" as="sourcePoint" />
            <Array as="points" />
          </mxGeometry>
        </mxCell>
        <mxCell id="2bNVYI1MK1_DozGiR_B5-42" value="" style="shape=waypoint;sketch=0;fillStyle=solid;size=6;pointerEvents=1;points=[];fillColor=none;resizable=0;rotatable=0;perimeter=centerPerimeter;snapToPoint=1;" parent="1" vertex="1">
          <mxGeometry x="1287" y="1077.5" width="20" height="20" as="geometry" />
        </mxCell>
        <mxCell id="2bNVYI1MK1_DozGiR_B5-46" value="" style="edgeStyle=orthogonalEdgeStyle;rounded=0;orthogonalLoop=1;jettySize=auto;html=1;entryDx=0;entryDy=0;fillColor=#a20025;strokeColor=#6F0000;exitX=0.45;exitY=0.688;exitDx=0;exitDy=0;exitPerimeter=0;endArrow=none;endFill=0;" parent="1" source="2bNVYI1MK1_DozGiR_B5-42" target="2bNVYI1MK1_DozGiR_B5-45" edge="1">
          <mxGeometry relative="1" as="geometry">
            <mxPoint x="1297" y="1088" as="sourcePoint" />
            <mxPoint x="398" y="591" as="targetPoint" />
            <Array as="points">
              <mxPoint x="1280" y="1088" />
              <mxPoint x="1280" y="1190" />
              <mxPoint x="460" y="1190" />
              <mxPoint x="460" y="653" />
            </Array>
          </mxGeometry>
        </mxCell>
        <mxCell id="2bNVYI1MK1_DozGiR_B5-47" style="edgeStyle=orthogonalEdgeStyle;rounded=0;orthogonalLoop=1;jettySize=auto;html=1;entryX=1;entryY=0.5;entryDx=0;entryDy=0;fillColor=#a20025;strokeColor=#6F0000;" parent="1" source="2bNVYI1MK1_DozGiR_B5-45" target="4koaPTSwhBmFynQigVtt-26" edge="1">
          <mxGeometry relative="1" as="geometry" />
        </mxCell>
        <mxCell id="2bNVYI1MK1_DozGiR_B5-45" value="" style="shape=waypoint;sketch=0;fillStyle=solid;size=6;pointerEvents=1;points=[];fillColor=none;resizable=0;rotatable=0;perimeter=centerPerimeter;snapToPoint=1;" parent="1" vertex="1">
          <mxGeometry x="455.5" y="642.93" width="20" height="20" as="geometry" />
        </mxCell>
        <mxCell id="9UrDOT5YUs4PGf6Kf9j5-1" style="edgeStyle=orthogonalEdgeStyle;rounded=0;orthogonalLoop=1;jettySize=auto;html=1;entryX=0.5;entryY=1;entryDx=0;entryDy=0;" parent="1" source="EiuUyV7uElEIks8eiaqD-1" target="4koaPTSwhBmFynQigVtt-26" edge="1">
          <mxGeometry relative="1" as="geometry" />
        </mxCell>
        <mxCell id="EiuUyV7uElEIks8eiaqD-1" value="mux" style="shape=loopLimit;whiteSpace=wrap;html=1;rotation=90;fillColor=#ffe6cc;strokeColor=#d79b00;" parent="1" vertex="1">
          <mxGeometry x="630" y="533.07" width="65" height="34.5" as="geometry" />
        </mxCell>
        <mxCell id="EiuUyV7uElEIks8eiaqD-2" value="0" style="text;html=1;strokeColor=none;fillColor=none;align=center;verticalAlign=middle;whiteSpace=wrap;rounded=0;" parent="1" vertex="1">
          <mxGeometry x="644.75" y="512.95" width="20" height="30" as="geometry" />
        </mxCell>
        <mxCell id="EiuUyV7uElEIks8eiaqD-6" style="edgeStyle=orthogonalEdgeStyle;rounded=0;orthogonalLoop=1;jettySize=auto;html=1;exitX=0;exitY=0.75;exitDx=0;exitDy=0;endArrow=none;endFill=0;startArrow=classic;startFill=1;" parent="1" source="EiuUyV7uElEIks8eiaqD-3" edge="1">
          <mxGeometry relative="1" as="geometry">
            <mxPoint x="580" y="573.9649122807017" as="targetPoint" />
          </mxGeometry>
        </mxCell>
        <mxCell id="EiuUyV7uElEIks8eiaqD-3" value="1" style="text;html=1;strokeColor=none;fillColor=none;align=center;verticalAlign=middle;whiteSpace=wrap;rounded=0;" parent="1" vertex="1">
          <mxGeometry x="644.75" y="551.32" width="20" height="30" as="geometry" />
        </mxCell>
        <mxCell id="EiuUyV7uElEIks8eiaqD-7" value="NOP" style="text;html=1;align=center;verticalAlign=middle;resizable=0;points=[];autosize=1;strokeColor=none;fillColor=none;" parent="1" vertex="1">
          <mxGeometry x="530" y="560.88" width="50" height="30" as="geometry" />
        </mxCell>
        <mxCell id="vY5lLP2O3jn33NDwaVuw-6" style="edgeStyle=orthogonalEdgeStyle;rounded=0;orthogonalLoop=1;jettySize=auto;html=1;exitX=1;exitY=0.5;exitDx=0;exitDy=0;entryX=1;entryY=0.25;entryDx=0;entryDy=0;" edge="1" parent="1" source="vY5lLP2O3jn33NDwaVuw-3" target="vY5lLP2O3jn33NDwaVuw-5">
          <mxGeometry relative="1" as="geometry" />
        </mxCell>
        <mxCell id="vY5lLP2O3jn33NDwaVuw-3" value="Ex3" style="ellipse;whiteSpace=wrap;html=1;fillColor=#dae8fc;strokeColor=#6c8ebf;" vertex="1" parent="1">
          <mxGeometry x="1104" y="271.57" width="60" height="27" as="geometry" />
        </mxCell>
        <mxCell id="vY5lLP2O3jn33NDwaVuw-11" style="edgeStyle=orthogonalEdgeStyle;rounded=0;orthogonalLoop=1;jettySize=auto;html=1;exitX=0;exitY=0.5;exitDx=0;exitDy=0;entryX=0;entryY=0.75;entryDx=0;entryDy=0;" edge="1" parent="1" source="vY5lLP2O3jn33NDwaVuw-5" target="4koaPTSwhBmFynQigVtt-22">
          <mxGeometry relative="1" as="geometry">
            <Array as="points">
              <mxPoint x="200" y="206" />
              <mxPoint x="200" y="555" />
            </Array>
          </mxGeometry>
        </mxCell>
        <mxCell id="vY5lLP2O3jn33NDwaVuw-5" value="" style="shape=image;verticalLabelPosition=bottom;labelBackgroundColor=default;verticalAlign=top;aspect=fixed;imageAspect=0;image=data:image/png,iVBORw0KGgoAAAANSUhEUgAAAD4AAABHCAYAAABf7PRNAAAAAXNSR0IArs4c6QAABYpJREFUeF7tnHtMU1ccx799U0ppwzADEQyZ/iWwsZnFZWaabMnMNjWRMRU2WbLNzVFhCuVZOhEQUcTpfCzbH/MRxWwq23zMR4x/7JFpnESG24xmDh8UqzKgty29pbfLOYQO1IxKr/Z2O+ef3rT3nPv7nO/3e87tA2QAYEx4YSZ5jKTmmLclTxg3+U1aszDwT+lyZVAYMgJtMOhaens5Y1A9JHJS/9RF8Dy1iFYzdUIPTr9txMbTwI5WYLwesHGADIBXAOKjgVsuoP0G4PMPAlBwwH9y555VEkEKrozmP5PQfDmJnpwWz6HNFEOP4xuAZ5IBrRLo9QByGdDFAee6Ro47AvzpaWnBXVUCZzV+r0LjdypaSazHhj7OgWhNIh5J0lNY3jcIHaUEBgSgo+c/At7XL8PXvytwgyOGDr5dv2bH/r0nRlo9khQPHnXkmad/ascbCyoYOF3cmOJj9VEE9GNWH76PM6tHgGXHWiKzOrM6287Gmp7I6McyzjLOMh4ZWR1rlSzjUsx4v9uNvu6/EJ+YALlcPlZx79lPsoq7XS70u1zQ6fVQazSiQpPBJAfu8/ng9XjA8zxUKjW0umjRoSUJ7nH3g3M4YIyLg0KpeCDQkgPnPR54eZ7mWavT0WMX54TeEAu5QtxJkITV/X4/nA4ObicHQ1wczfSA1wunwwGNVosorVZ05SUBTpR2O10UUB2loce8px8qtQY6/eAXBGK3sIMPQjuhiYpCVHQ0BJ8Ae2cnXc31RoPYvIHxwgZO7M319kEQBETH6KBSq6m9Hb29gUkQe+8ePosPFbzLZkPRe/mYkpGO/GUfYGDAi5jYWApKtrE9n2/DkYOHYLZWIePJzAem9kNd1QWfD122LpSYCjAlPQ3vFpigNxio0sTqvIfHN/v24Ytdu1HXtC5ywOssVny5azdVaUpGBtZ9shkJiYloO9uK6rJy2K534tmZM9BzuxupkyehoqYaxO5rq2tx/PBhJCaNR0pqKs6dPRsAP3HkKIqW5N815tDz2bk59JrksbJ25X05RBSrk0IOtnyFmsY1+OPiJVQuL8K06dNRWGpGdWk5bt28hfqN63H+XBtKlxbSQs1WC04eO44N9Q3Ifj0Hc1/LxoclZbh04QIFJ42M82rOQmQtXICq4hL6HLnGqR9+pBMyFuCh2REFfGiw4aqTol6eOwe1lirMzpqHvMXv4GpHB8oKltGML68oQ9Oq1fit/TzWbvmYumP7p59h7+5mCt565kzgmOSdvHbs0LfUSWQCCfi6rZvx/KwX70tpUcFJUeuJcrk5eCt/CV3A0h/PwKzZr6DKXIL5ubmYPuM5OJ1O7Nm+EzFGA4qrKtFYU4dff2lHw6YNd4Ef2N8SiM5QsckTU+ik3LTbww9O7quH25DjOJjfX0pVfWnuHKyvq0d65hNYbqmArbMTDVUrkDrpMRSWl6LeugI/nzoFa/0qupj9m+LDZR3KeNgVJxYnyhEbHj1wEJsam5C1YD5M5iLUVFhw7cpVrNn4ES5fvARzQSFy8/JgKi0GAbAWl2BxgSmQ4/vJeNjBycpNFqKrHVdA7BhrMCJlYgrKV1bD5XahttyC23Y7EpInQK1QYlzCoyi2WuibkOZtO9BUv5r2y8jMRFtra9CretjB77W6kFtPnvdArVYH3ll1228CMhnixsVTaNLIPh6OJuqqfifAnfDkoyTyRiTc0A/lzm0IXqlQQKFS0fvxcCot6nY2mlUHeC8EvwC/4IdcqYBKNfjzrHC2B2r1cIKNdm0GLsXP1UdTLZTXmeJMcfZtaSgJkn5flnGWcZZx6ec0lApZxlnGWcZDSZD0+7KMs4yzjEs/p6FUyDLOMs4yHkqCpN+XZZxl/P+cceknVJwKA38/Hon/HCOUKTAYYnr+BnBNXd78FkZAAAAAAElFTkSuQmCC;" vertex="1" parent="1">
          <mxGeometry x="410" y="170" width="62" height="71" as="geometry" />
        </mxCell>
        <mxCell id="vY5lLP2O3jn33NDwaVuw-8" style="edgeStyle=orthogonalEdgeStyle;rounded=0;orthogonalLoop=1;jettySize=auto;html=1;entryX=1;entryY=0.75;entryDx=0;entryDy=0;" edge="1" parent="1" source="vY5lLP2O3jn33NDwaVuw-7" target="vY5lLP2O3jn33NDwaVuw-5">
          <mxGeometry relative="1" as="geometry">
            <Array as="points">
              <mxPoint x="570" y="360" />
              <mxPoint x="516" y="360" />
              <mxPoint x="516" y="223" />
            </Array>
          </mxGeometry>
        </mxCell>
        <mxCell id="vY5lLP2O3jn33NDwaVuw-10" style="edgeStyle=orthogonalEdgeStyle;rounded=0;orthogonalLoop=1;jettySize=auto;html=1;endArrow=none;endFill=0;" edge="1" parent="1" source="vY5lLP2O3jn33NDwaVuw-7">
          <mxGeometry relative="1" as="geometry">
            <mxPoint x="570" y="400" as="targetPoint" />
          </mxGeometry>
        </mxCell>
        <mxCell id="vY5lLP2O3jn33NDwaVuw-7" value="" style="shape=waypoint;sketch=0;fillStyle=solid;size=6;pointerEvents=1;points=[];fillColor=none;resizable=0;rotatable=0;perimeter=centerPerimeter;snapToPoint=1;" vertex="1" parent="1">
          <mxGeometry x="560" y="356.5" width="20" height="20" as="geometry" />
        </mxCell>
        <mxCell id="vY5lLP2O3jn33NDwaVuw-12" value="return address" style="text;html=1;align=center;verticalAlign=middle;resizable=0;points=[];autosize=1;strokeColor=none;fillColor=none;" vertex="1" parent="1">
          <mxGeometry x="70" y="90" width="100" height="30" as="geometry" />
        </mxCell>
        <mxCell id="vY5lLP2O3jn33NDwaVuw-13" value="Jump" style="text;html=1;align=center;verticalAlign=middle;resizable=0;points=[];autosize=1;strokeColor=none;fillColor=none;" vertex="1" parent="1">
          <mxGeometry x="275" y="148" width="50" height="30" as="geometry" />
        </mxCell>
        <mxCell id="vY5lLP2O3jn33NDwaVuw-14" value="branch" style="text;html=1;align=center;verticalAlign=middle;resizable=0;points=[];autosize=1;strokeColor=none;fillColor=none;" vertex="1" parent="1">
          <mxGeometry x="280" y="258" width="60" height="30" as="geometry" />
        </mxCell>
        <mxCell id="vY5lLP2O3jn33NDwaVuw-15" value="reg sourse" style="text;html=1;align=center;verticalAlign=middle;resizable=0;points=[];autosize=1;strokeColor=none;fillColor=none;" vertex="1" parent="1">
          <mxGeometry x="910" y="664" width="80" height="30" as="geometry" />
        </mxCell>
        <mxCell id="vY5lLP2O3jn33NDwaVuw-16" value="ALU sourse" style="text;html=1;align=center;verticalAlign=middle;resizable=0;points=[];autosize=1;strokeColor=none;fillColor=none;" vertex="1" parent="1">
          <mxGeometry x="1515" y="678" width="90" height="30" as="geometry" />
        </mxCell>
        <mxCell id="vY5lLP2O3jn33NDwaVuw-17" value="push" style="text;html=1;align=center;verticalAlign=middle;resizable=0;points=[];autosize=1;strokeColor=none;fillColor=none;" vertex="1" parent="1">
          <mxGeometry x="2405" y="708" width="50" height="30" as="geometry" />
        </mxCell>
        <mxCell id="vY5lLP2O3jn33NDwaVuw-18" value="stack address" style="text;html=1;align=center;verticalAlign=middle;resizable=0;points=[];autosize=1;strokeColor=none;fillColor=none;" vertex="1" parent="1">
          <mxGeometry x="2290" y="708" width="100" height="30" as="geometry" />
        </mxCell>
      </root>
    </mxGraphModel>
  </diagram>
</mxfile>
